<svg width="211" height="49" viewBox="0 0 211 49" fill="none" xmlns="http://www.w3.org/2000/svg">
<g filter="url(#filter0_d_754_3226)">
<path d="M26.5873 41.7322C26.4301 41.7088 25.6837 41.6074 24.9289 41.5068C24.174 41.4062 23.5382 41.307 23.5161 41.2864C23.4745 41.2475 23.7029 40.7564 25.2432 37.5738C27.4568 32.9998 28.6085 30.3141 29.2386 28.2569C29.7002 26.7498 29.8175 24.6897 29.4994 23.6782C29.1202 22.4727 27.9867 21.5174 26.3014 20.9827C25.861 20.8431 25.4864 20.7173 25.4689 20.7032C25.4515 20.6891 25.4888 20.5418 25.5519 20.3758L25.6666 20.074H38.9305C47.8576 20.074 52.2181 20.1123 52.2668 20.1911C52.4125 20.4268 52.4614 23.2455 52.3373 24.2502C52.0446 26.6189 50.8927 29.8602 49.8508 31.2468C49.7004 31.447 49.5773 31.6444 49.5773 31.6853C49.5773 31.7263 49.3328 32.0754 49.034 32.4611C47.4016 34.5681 45.8524 36.0293 43.7958 37.4016C42.688 38.1409 39.9577 39.6326 39.7125 39.6326C39.6638 39.6326 39.4057 39.7294 39.139 39.8478C37.3186 40.6558 34.5348 41.3519 31.9631 41.6421C30.6848 41.7864 27.331 41.8425 26.5873 41.7322V41.7322Z" fill="#DA6C6C"/>
<path d="M102.476 39.9829C103.101 39.9201 102.847 39.898 101.316 39.8819C99.6917 39.8648 99.3438 39.8318 99.2893 39.6897C99.2531 39.5953 99.2672 39.5181 99.3207 39.5181C99.4457 39.5181 99.7015 38.5118 99.613 38.3685C99.5761 38.3088 99.5949 38.26 99.6547 38.26C99.7145 38.26 99.8105 38.0155 99.8679 37.7167C99.9254 37.4179 100.029 37.1845 100.097 37.1981C100.168 37.212 100.197 37.1269 100.165 37.0026C100.112 36.8004 100.222 36.3219 100.638 34.943C100.724 34.6599 100.86 34.1452 100.942 33.7992C101.023 33.4532 101.124 33.1187 101.167 33.0558C101.21 32.9929 101.237 32.8038 101.228 32.6357C101.219 32.4675 101.243 32.3497 101.282 32.3738C101.321 32.3978 101.46 31.9693 101.59 31.4213C101.721 30.8734 101.91 30.142 102.009 29.796C102.445 28.2839 102.542 27.8432 102.465 27.7194C102.42 27.646 102.433 27.6183 102.496 27.6569C102.62 27.7339 103.381 24.9326 103.28 24.7691C103.246 24.7138 103.269 24.6513 103.332 24.6302C103.395 24.6091 103.527 24.283 103.626 23.9056C103.725 23.5281 103.962 22.6274 104.153 21.9039C104.345 21.1805 104.569 20.3312 104.652 20.0167C104.734 19.7022 104.91 19.0433 105.043 18.5525C105.176 18.0617 105.254 17.6114 105.217 17.5517C105.181 17.492 105.197 17.4432 105.254 17.4432C105.348 17.4432 105.507 16.9006 106.379 13.6115C106.529 13.0454 106.71 12.3946 106.78 12.1654C106.851 11.9362 106.868 11.6838 106.819 11.6044C106.763 11.5141 106.776 11.4888 106.854 11.5368C106.926 11.5815 106.993 11.5055 107.014 11.3543L107.051 11.0952L115.344 11.1275C119.904 11.1452 124.228 11.113 124.951 11.056C125.675 10.999 126.32 10.9945 126.385 11.0461C126.45 11.0978 127.506 11.1432 128.73 11.1471C131.21 11.1549 132.557 11.3225 133.883 11.7883C134.349 11.952 134.793 12.0904 134.869 12.0958C134.944 12.1012 134.975 12.1572 134.936 12.2203C134.893 12.2894 134.943 12.3051 135.061 12.2598C135.169 12.2183 135.228 12.2315 135.192 12.2893C135.157 12.3469 135.226 12.4255 135.347 12.4638C135.731 12.5857 137.24 14.1522 137.104 14.2881C137.067 14.3249 137.1 14.355 137.177 14.355C137.255 14.355 137.286 14.4065 137.247 14.4694C137.208 14.5323 137.222 14.5838 137.278 14.5838C137.334 14.5838 137.37 14.6996 137.358 14.8411C137.345 14.9827 137.393 15.1708 137.463 15.2591C137.671 15.5214 137.616 18.5098 137.389 19.3256C137.285 19.7003 137.22 20.0282 137.246 20.0541C137.272 20.0799 137.216 20.1788 137.121 20.2738C137.026 20.3688 136.975 20.5171 137.008 20.6033C137.041 20.6896 137.015 20.7602 136.951 20.7602C136.886 20.7602 136.865 20.8116 136.904 20.8745C136.943 20.9375 136.917 20.9889 136.847 20.9889C136.776 20.9889 136.751 21.0404 136.789 21.1033C136.828 21.1662 136.803 21.2177 136.732 21.2177C136.662 21.2177 136.636 21.2691 136.675 21.3321C136.714 21.395 136.702 21.4464 136.649 21.4464C136.566 21.4464 136.16 22.036 136.146 22.1777C136.143 22.2056 135.836 22.5503 135.464 22.9438C135.092 23.3372 134.788 23.7079 134.788 23.7677C134.788 23.8275 134.701 23.8058 134.594 23.7194C134.481 23.6275 134.435 23.6189 134.482 23.6986C134.563 23.8328 134.155 24.3059 133.959 24.3059C133.904 24.3059 133.896 24.3702 133.942 24.4488C133.987 24.5275 133.983 24.5547 133.933 24.5094C133.882 24.4641 133.699 24.5284 133.525 24.6524C133.351 24.7763 133.149 24.8778 133.075 24.8778C133.002 24.8778 132.779 25.002 132.578 25.1538C132.378 25.3057 131.919 25.5291 131.558 25.6504C131.196 25.7717 130.922 25.892 130.948 25.9177C130.973 25.9433 130.857 25.9694 130.689 25.9756C130.522 25.9817 130.107 26.0461 129.768 26.1185C129.429 26.191 128.96 26.2503 128.726 26.2503C128.294 26.2503 127.696 26.6006 127.696 26.8534C127.696 26.9444 127.737 26.942 127.834 26.8451C128.05 26.6284 128.134 26.6769 128.383 27.1653C128.511 27.4169 128.67 27.6228 128.735 27.6228C128.8 27.6228 128.824 27.6701 128.789 27.728C128.753 27.7858 128.805 27.9145 128.904 28.0139C129.004 28.1134 129.055 28.1947 129.017 28.1947C128.979 28.1947 129.029 28.3491 129.126 28.5378C129.224 28.7266 129.354 28.881 129.415 28.881C129.476 28.881 129.52 28.9196 129.513 28.9668C129.467 29.2588 129.541 29.4578 129.669 29.3841C129.748 29.3388 129.775 29.3434 129.729 29.3942C129.631 29.5028 130.31 30.8254 130.464 30.8254C130.522 30.8254 130.538 30.8769 130.499 30.9398C130.46 31.0027 130.485 31.0542 130.556 31.0542C130.626 31.0542 130.656 31.0988 130.622 31.1532C130.546 31.2777 131.222 32.5411 131.365 32.5411C131.423 32.5411 131.458 32.5834 131.442 32.6352C131.393 32.7963 132.075 34.136 132.175 34.0744C132.226 34.0423 132.235 34.1044 132.194 34.2124C132.138 34.3561 132.159 34.3836 132.27 34.315C132.368 34.2545 132.394 34.2657 132.344 34.3468C132.249 34.5001 133.001 35.8909 133.116 35.7756C133.162 35.7304 133.161 35.7904 133.116 35.9089C133.059 36.0578 133.075 36.099 133.166 36.0424C133.256 35.9872 133.274 36.0245 133.223 36.1568C133.173 36.2891 133.191 36.3264 133.281 36.2712C133.37 36.216 133.389 36.2533 133.338 36.3856C133.281 36.533 133.303 36.5584 133.425 36.4875C133.514 36.4357 133.551 36.4338 133.506 36.4832C133.461 36.5327 133.512 36.734 133.619 36.9305C133.726 37.1269 133.815 37.3392 133.818 37.4021C133.826 37.6183 134.004 37.806 134.128 37.7294C134.202 37.6836 134.219 37.7059 134.17 37.7847C134.125 37.8574 134.152 37.9168 134.229 37.9168C134.306 37.9168 134.337 37.9488 134.298 37.9879C134.2 38.0856 134.763 39.1749 134.911 39.1749C134.977 39.1749 134.999 39.2264 134.96 39.2893C134.921 39.3522 134.933 39.4037 134.986 39.4037C135.039 39.4037 135.082 39.5095 135.082 39.6389C135.082 39.8726 135.055 39.8739 131.018 39.8384C127.133 39.8043 126.926 39.7915 126.335 39.5502C125.995 39.4114 125.665 39.3296 125.603 39.3684C125.534 39.4108 125.525 39.3803 125.579 39.2921C125.638 39.1973 125.618 39.1625 125.524 39.1938C125.444 39.2206 125.192 39.0858 124.965 38.8944C124.487 38.4924 123.043 37.0589 123.115 37.0589C123.182 37.0589 122.751 36.3902 122.628 36.3027C122.574 36.2642 122.534 36.187 122.538 36.1311C122.559 35.8826 122.408 35.6319 122.284 35.7067C122.21 35.7511 122.221 35.6993 122.308 35.5914C122.449 35.4179 122.443 35.4044 122.261 35.4745C122.119 35.529 122.08 35.512 122.137 35.4199C122.183 35.3463 122.162 35.2861 122.092 35.2861C122.022 35.2861 121.996 35.2346 122.035 35.1717C122.074 35.1088 122.051 35.0573 121.984 35.0573C121.918 35.0573 121.876 35.016 121.892 34.9656C121.947 34.7874 121.369 33.694 121.256 33.7638C121.193 33.8027 121.176 33.7792 121.217 33.7117C121.259 33.6441 121.212 33.5075 121.113 33.4081C121.008 33.304 120.987 33.2273 121.061 33.2273C121.132 33.2273 121.158 33.175 121.118 33.111C121.079 33.0471 120.997 33.0252 120.937 33.0624C120.877 33.0995 120.841 33.0875 120.856 33.0356C120.919 32.8195 120.606 32.1836 120.476 32.2642C120.397 32.3126 120.371 32.2987 120.413 32.2309C120.5 32.0906 119.835 30.8254 119.675 30.8254C119.613 30.8254 119.591 30.7786 119.626 30.7213C119.719 30.5716 119.571 30.2426 119.446 30.3198C119.388 30.3556 119.355 30.3414 119.373 30.2883C119.432 30.1068 118.972 29.2301 118.856 29.3021C118.792 29.3416 118.774 29.3186 118.815 29.251C118.857 29.1834 118.81 29.0468 118.711 28.9474C118.611 28.848 118.562 28.7666 118.602 28.7666C118.642 28.7666 118.535 28.5093 118.364 28.1947C118.192 27.8802 118.006 27.6228 117.949 27.6228C117.893 27.6228 117.883 27.5635 117.928 27.4911C117.973 27.4186 117.914 27.29 117.798 27.2052C117.682 27.1203 117.625 27.0509 117.671 27.0509C117.766 27.0509 117.181 26.0018 117.026 25.8944C116.971 25.8559 116.929 25.7787 116.934 25.7228C116.95 25.5249 116.814 25.2209 116.708 25.2209C116.65 25.2209 116.615 25.1819 116.63 25.1343C116.675 24.9996 115.802 23.3908 115.684 23.3908C115.627 23.3908 115.608 23.3178 115.642 23.2284C115.694 23.0937 116.27 23.0638 119.022 23.0529C120.846 23.0457 122.722 22.9912 123.19 22.9319C124.508 22.7647 125.693 22.3843 126.116 21.9924C126.203 21.9123 126.426 21.758 126.613 21.6495C126.8 21.541 126.939 21.3956 126.921 21.3264C126.904 21.2573 126.936 21.229 126.992 21.2637C127.13 21.349 127.49 20.9377 127.382 20.8183C127.335 20.7662 127.361 20.7607 127.44 20.8063C127.527 20.8564 127.614 20.8071 127.661 20.6816C127.704 20.5675 127.835 20.4045 127.954 20.3194C128.072 20.2342 128.142 20.0927 128.108 20.0048C128.074 19.917 128.095 19.8451 128.155 19.8451C128.428 19.8451 128.766 18.7502 128.79 17.7863C128.815 16.7959 128.565 15.5578 128.365 15.6813C128.309 15.7161 128.273 15.7021 128.285 15.6503C128.298 15.5984 128.244 15.4273 128.166 15.27C128.014 14.9643 127.072 14.4177 126.89 14.5299C126.83 14.5669 126.781 14.5428 126.781 14.4761C126.781 14.3925 125.028 14.355 121.118 14.355H115.454L115.294 14.7267C115.206 14.9312 114.871 16.1021 114.549 17.3288C114.228 18.5555 113.859 19.9093 113.73 20.3373C113.6 20.7652 113.527 21.2012 113.567 21.306C113.607 21.4109 113.602 21.4586 113.556 21.4122C113.471 21.3276 112.958 23.0824 112.91 23.6196C112.896 23.7769 112.855 23.9313 112.82 23.9627C112.784 23.9942 112.637 24.4574 112.492 24.9921C112.348 25.5269 112.11 26.3761 111.963 26.8794C111.443 28.6717 110.999 30.5066 111.061 30.608C111.096 30.6647 111.081 30.711 111.028 30.711C110.939 30.711 110.654 31.5527 110.601 31.9692C110.589 32.0635 110.489 32.4129 110.378 32.7455C110.266 33.0781 110.203 33.4222 110.237 33.5101C110.27 33.5981 110.255 33.6863 110.203 33.7061C110.151 33.7259 109.84 34.7457 109.512 35.9724C109.184 37.1991 108.803 38.5801 108.667 39.0413L108.418 39.8797L106.762 39.9094C105.852 39.9256 104.335 39.9669 103.391 40.0011C102.447 40.0353 102.036 40.0271 102.476 39.9829L102.476 39.9829ZM103.76 39.9065C103.722 39.8685 103.624 39.8645 103.541 39.8975C103.45 39.934 103.477 39.9611 103.61 39.9666C103.731 39.9716 103.798 39.9445 103.76 39.9065V39.9065ZM100.665 36.4013C100.633 36.3227 100.607 36.387 100.607 36.5443C100.607 36.7016 100.633 36.7659 100.665 36.6873C100.696 36.6086 100.696 36.48 100.665 36.4013ZM119.576 28.7666C119.576 28.7037 119.495 28.6522 119.397 28.6522C119.299 28.6522 119.251 28.7037 119.29 28.7666C119.328 28.8295 119.409 28.881 119.468 28.881C119.527 28.881 119.576 28.8295 119.576 28.7666ZM116.451 23.5982C116.415 23.5069 116.387 23.534 116.382 23.6673C116.377 23.7878 116.404 23.8554 116.442 23.8174C116.48 23.7794 116.484 23.6807 116.451 23.5982V23.5982ZM136.579 20.5028C136.547 20.4242 136.522 20.4885 136.522 20.6458C136.522 20.8031 136.547 20.8674 136.579 20.7888C136.611 20.7101 136.611 20.5814 136.579 20.5028V20.5028ZM129.784 11.8703C129.579 11.845 129.245 11.845 129.04 11.8703C128.836 11.8957 129.003 11.9165 129.412 11.9165C129.821 11.9165 129.988 11.8957 129.784 11.8703V11.8703ZM121.325 11.5251C120.872 11.5035 120.1 11.5033 119.609 11.5248C119.119 11.5463 119.49 11.564 120.433 11.5642C121.377 11.5643 121.778 11.5467 121.325 11.5251V11.5251ZM126.81 11.4106C126.354 11.3889 125.608 11.3889 125.151 11.4106C124.695 11.4323 125.069 11.4501 125.981 11.4501C126.893 11.4501 127.266 11.4323 126.81 11.4106V11.4106ZM128.642 11.4205C128.565 11.3892 128.41 11.3873 128.299 11.4162C128.188 11.4452 128.251 11.4708 128.44 11.4732C128.629 11.4753 128.72 11.4518 128.642 11.4204V11.4205ZM72.0992 39.8161C72.073 39.7912 71.81 39.7387 71.5147 39.6994C71.2195 39.66 70.4088 39.4785 69.7133 39.296C69.0177 39.1136 68.4479 38.9988 68.4469 39.041C68.446 39.0833 68.4073 39.0606 68.3611 38.9908C68.2225 38.7812 67.5364 38.4735 67.3982 38.5589C67.3138 38.6111 67.3017 38.5864 67.3632 38.487C67.4317 38.376 67.4042 38.3556 67.2605 38.4108C67.1439 38.4555 67.0926 38.4402 67.1341 38.373C67.197 38.2713 67.0458 38.2106 66.8188 38.2464C66.7716 38.2539 66.733 38.2153 66.733 38.1608C66.733 38.1062 66.5271 37.9254 66.2755 37.7589C66.0238 37.5923 65.818 37.3906 65.818 37.3105C65.818 37.2304 65.7029 37.1562 65.5623 37.1456C65.4217 37.135 65.2868 37.0668 65.2625 36.9939C65.2382 36.9211 65.1217 36.7787 65.0035 36.6775C64.8853 36.5763 64.7886 36.4357 64.7886 36.365C64.7886 36.175 64.3848 35.8438 64.2748 35.9436C64.2227 35.9909 64.2172 35.9649 64.2628 35.8858C64.3111 35.8019 64.2714 35.7136 64.1674 35.6737C64.0694 35.6361 64.0166 35.5611 64.0499 35.5071C64.0833 35.4531 64.0101 35.3083 63.8873 35.1855C63.7644 35.0626 63.6939 34.9321 63.7306 34.8954C63.7673 34.8587 63.7287 34.8286 63.6448 34.8286C63.5609 34.8286 63.5224 34.7985 63.5592 34.7617C63.6549 34.666 63.4153 34.028 63.2837 34.028C63.2233 34.028 63.2022 33.982 63.2369 33.9258C63.2717 33.8696 63.2306 33.6251 63.1456 33.3825C63.0606 33.1399 62.9548 32.6969 62.9106 32.3981C62.8663 32.0993 62.7893 31.8548 62.7395 31.8548C62.6896 31.8548 62.6596 30.864 62.6728 29.653C62.692 27.8875 62.7478 27.202 62.9542 26.1931C63.0959 25.5011 63.2191 24.832 63.2281 24.7062C63.2371 24.5804 63.2738 24.4517 63.3097 24.4203C63.4021 24.3392 64.1247 22.2295 64.1393 21.9981C64.1459 21.8927 64.2005 21.8368 64.2606 21.8739C64.3228 21.9123 64.3385 21.8595 64.2969 21.7511C64.2567 21.6465 64.2642 21.5608 64.3135 21.5608C64.4565 21.5608 64.8002 20.7571 64.7156 20.6203C64.6727 20.5508 64.6915 20.5286 64.7583 20.5699C64.8748 20.6419 65.284 19.926 65.2841 19.65C65.2842 19.5742 65.3234 19.5363 65.3713 19.5659C65.462 19.622 65.6536 19.172 65.609 19.0074C65.595 18.9555 65.6363 18.9457 65.7008 18.9856C65.7652 19.0254 65.818 19.0035 65.818 18.9369C65.818 18.8703 65.8193 18.7912 65.8209 18.7613C65.8225 18.7313 65.9401 18.5813 66.0823 18.428C66.2244 18.2746 66.4161 18.0059 66.5082 17.8309C66.6004 17.6559 66.7906 17.3876 66.931 17.2348C67.0714 17.082 67.1576 16.9107 67.1227 16.8541C67.0877 16.7976 67.1015 16.7654 67.1534 16.7827C67.2053 16.8 67.2639 16.7788 67.2837 16.7358C67.3035 16.6927 67.6509 16.3262 68.0557 15.9214C68.4606 15.5165 68.7918 15.1272 68.7918 15.0561C68.7918 14.985 68.848 14.9269 68.9167 14.9269C69.0783 14.9269 69.5444 14.5606 69.5715 14.4122C69.583 14.3493 69.6417 14.2978 69.7019 14.2978C69.7621 14.2978 69.8946 14.1949 69.9963 14.0691C70.098 13.9433 70.154 13.8961 70.1206 13.9642C70.0873 14.0324 70.13 14.0881 70.2156 14.0881C70.3012 14.0881 70.3475 14.0263 70.3185 13.9507C70.247 13.7642 70.7611 13.6394 70.8733 13.816C70.9235 13.895 70.9622 13.903 70.9632 13.8346C70.9641 13.7686 70.9006 13.6491 70.822 13.5691C70.7434 13.4891 70.7305 13.4375 70.7934 13.4545C70.9943 13.5086 71.4283 13.3133 71.3584 13.2002C71.3214 13.1403 71.3335 13.1047 71.3854 13.1212C71.5362 13.1693 72.2231 12.851 72.2231 12.7331C72.2231 12.6741 72.2712 12.6556 72.33 12.692C72.4228 12.7493 73.437 12.3405 73.5957 12.1819C73.6271 12.1504 73.7716 12.1119 73.9168 12.0963C74.0917 12.0774 74.1533 12.1123 74.0993 12.1997C74.0485 12.282 74.0682 12.3005 74.1517 12.2488C74.2254 12.2033 74.2567 12.1192 74.2212 12.0618C74.1858 12.0045 74.3641 11.9244 74.6176 11.8839C74.8905 11.8402 75.0487 11.7622 75.0056 11.6924C74.9613 11.6207 74.9897 11.6098 75.0783 11.6646C75.2273 11.7566 76.4545 11.5134 76.4558 11.3916C76.4561 11.3544 76.7072 11.3192 77.0135 11.3132C77.3198 11.3071 77.6608 11.2676 77.7711 11.2253C77.9922 11.1404 101.398 11.1227 101.482 11.2073C101.511 11.2362 101.372 11.7524 101.172 12.3542C100.973 12.9561 100.845 13.511 100.889 13.5873C100.934 13.6651 100.924 13.6853 100.867 13.6332C100.81 13.5816 100.688 13.7841 100.591 14.0908L100.417 14.641L91.1527 14.6676C85.3525 14.6842 81.6742 14.7382 81.3162 14.8119C80.4654 14.9871 79.3163 15.4091 79.3854 15.521C79.4187 15.5748 79.4035 15.6074 79.3516 15.5934C79.1848 15.5483 78.7427 15.7393 78.7427 15.8564C78.7427 15.9188 78.6976 15.942 78.6426 15.908C78.5213 15.8331 77.5989 16.483 77.5989 16.6433C77.5989 16.7059 77.5593 16.7441 77.5109 16.7284C77.3821 16.6866 76.7982 17.1686 76.7982 17.3168C76.7982 17.3863 76.7399 17.4433 76.6687 17.4433C76.4126 17.4433 75.3822 18.8362 75.516 19.0014C75.5607 19.0566 75.5487 19.0618 75.4894 19.013C75.3585 18.9052 74.4719 20.2619 74.5698 20.4203C74.6076 20.4814 74.5891 20.5315 74.5286 20.5315C74.3877 20.5315 74.1616 21.1708 74.2627 21.2835C74.3047 21.3304 74.2828 21.3367 74.214 21.2975C74.142 21.2566 74.0371 21.3823 73.967 21.5937C73.8999 21.7958 73.6334 22.5531 73.3748 23.2765C72.4283 25.9244 72.0759 27.8131 72.0729 30.2536C72.0705 32.2262 72.1421 32.6292 72.6835 33.6906C72.8103 33.9391 72.8873 34.1424 72.8545 34.1424C72.8218 34.1424 72.9108 34.2582 73.0524 34.3998C73.1939 34.5413 73.3521 34.643 73.404 34.6257C73.4559 34.6084 73.4703 34.6395 73.4361 34.6948C73.3507 34.8331 73.8753 35.3094 73.9942 35.2014C74.0468 35.1537 74.0544 35.1764 74.0111 35.2519C73.966 35.3306 74.0313 35.442 74.1643 35.5132C74.2919 35.5815 74.3963 35.6 74.3963 35.5543C74.3963 35.5086 74.4657 35.5661 74.5505 35.6821C74.6353 35.7981 74.764 35.8564 74.8365 35.8116C74.9089 35.7668 74.9682 35.7721 74.9682 35.8234C74.9682 35.9669 75.5261 36.1737 76.2759 36.3082C77.2017 36.4743 85.0334 36.474 85.0334 36.3079C85.0334 36.2365 85.1317 36.217 85.2698 36.2608C85.6098 36.3687 86.3336 35.8529 86.6739 35.2602C86.9874 34.714 87.3633 33.5028 87.2674 33.3476C87.2332 33.2922 87.2493 33.2297 87.3033 33.2086C87.449 33.1516 88.036 31.3076 87.9518 31.1714C87.912 31.1069 87.9257 31.0542 87.9824 31.0542C88.1164 31.0542 88.382 30.1685 88.2918 30.0225C88.2537 29.9608 88.2702 29.9104 88.3286 29.9104C88.3869 29.9104 88.5233 29.5887 88.6316 29.1956C88.74 28.8024 88.9569 28.1043 89.1136 27.6442C89.2704 27.184 89.3703 26.7337 89.3356 26.6434C89.2826 26.5052 88.6676 26.4788 85.4659 26.4774C83.3723 26.4765 81.7158 26.4378 81.7848 26.3916C81.8539 26.3453 82.1537 25.5876 82.4511 24.7077C82.7485 23.8277 83.0523 23.0693 83.1262 23.0223C83.2811 22.9238 98.8019 22.9003 98.9 22.9984C98.9358 23.0341 98.8439 23.536 98.6958 24.1136C98.3439 25.4859 97.4915 28.8825 96.8679 31.3974C96.5949 32.4982 96.2692 33.7575 96.144 34.1957C96.0188 34.6339 95.9413 35.0328 95.9718 35.0821C96.0023 35.1315 95.9697 35.1718 95.8993 35.1718C95.829 35.1718 95.8005 35.2189 95.8361 35.2764C95.8717 35.334 95.8577 35.3983 95.8051 35.4194C95.7525 35.4405 95.5334 35.7905 95.3183 36.1971C95.1032 36.6038 94.7631 37.1157 94.5625 37.3348C94.362 37.5539 94.2243 37.7757 94.2565 37.8278C94.2887 37.8799 94.2716 37.9084 94.2185 37.8911C94.0805 37.8462 93.4907 38.3296 93.5775 38.4164C93.6173 38.4562 93.5667 38.4888 93.465 38.4888C93.3632 38.4888 93.2275 38.5789 93.1634 38.6889C93.0993 38.799 93.0453 38.8492 93.0434 38.8004C93.0381 38.6668 92.3536 39.0482 92.3536 39.1847C92.3536 39.2497 92.3082 39.2748 92.2527 39.2405C92.1971 39.2062 91.8624 39.2777 91.5088 39.3993C90.2791 39.8224 89.3639 39.8613 80.6407 39.8613C75.9691 39.8613 72.1254 39.841 72.0992 39.8161L72.0992 39.8161ZM95.52 34.9216C95.4834 34.8303 95.4563 34.8574 95.4509 34.9907C95.4459 35.1112 95.4729 35.1788 95.5109 35.1408C95.5489 35.1028 95.553 35.0041 95.52 34.9216V34.9216ZM63.0343 30.9112C63.0025 30.8326 62.9766 30.8969 62.9766 31.0542C62.9766 31.2114 63.0025 31.2758 63.0343 31.1971C63.066 31.1185 63.066 30.9898 63.0343 30.9112ZM71.9607 30.4537C71.9335 30.3121 71.9111 30.428 71.9111 30.711C71.9111 30.9941 71.9335 31.1099 71.9607 30.9684C71.988 30.8268 71.988 30.5952 71.9607 30.4537ZM96.9619 28.881C96.9948 28.7552 96.9751 28.6522 96.918 28.6522C96.861 28.6522 96.8144 28.7552 96.8144 28.881C96.8144 29.0068 96.8341 29.1097 96.8582 29.1097C96.8823 29.1097 96.929 29.0068 96.9619 28.881ZM63.0729 28.4235C63.0729 28.3606 63.0502 28.3091 63.0225 28.3091C62.9947 28.3091 62.9402 28.3606 62.9013 28.4235C62.8625 28.4864 62.8852 28.5378 62.9518 28.5378C63.0184 28.5378 63.0729 28.4864 63.0729 28.4235ZM65.1317 21.7896C65.1317 21.7266 65.0802 21.6752 65.0173 21.6752C64.9544 21.6752 64.9029 21.7266 64.9029 21.7896C64.9029 21.8525 64.9544 21.9039 65.0173 21.9039C65.0802 21.9039 65.1317 21.8525 65.1317 21.7896ZM75.8832 17.5576C75.8832 17.4947 75.8605 17.4432 75.8328 17.4432C75.805 17.4432 75.7505 17.4947 75.7116 17.5576C75.6728 17.6205 75.6955 17.672 75.7621 17.672C75.8287 17.672 75.8832 17.6205 75.8832 17.5576ZM95.4132 14.3836C92.9756 14.3664 88.9866 14.3664 86.5489 14.3836C84.1113 14.4009 86.1057 14.415 90.9811 14.415C95.8564 14.415 97.8509 14.4009 95.4132 14.3836V14.3836ZM73.1953 12.9825C73.2342 12.9196 73.1827 12.8681 73.081 12.8681C72.9792 12.8681 72.9277 12.9196 72.9666 12.9825C73.0055 13.0454 73.0569 13.0968 73.081 13.0968C73.105 13.0968 73.1565 13.0454 73.1953 12.9825ZM73.4813 12.7033C73.4813 12.6755 73.4298 12.621 73.3669 12.5821C73.304 12.5433 73.2525 12.566 73.2525 12.6326C73.2525 12.6992 73.304 12.7537 73.3669 12.7537C73.4298 12.7537 73.4813 12.731 73.4813 12.7033ZM101.161 11.7243C101.161 11.6614 101.109 11.6099 101.046 11.6099C100.983 11.6099 100.932 11.6614 100.932 11.7243C100.932 11.7872 100.983 11.8387 101.046 11.8387C101.109 11.8387 101.161 11.7872 101.161 11.7243V11.7243ZM77.5989 11.6099C77.5989 11.547 77.5444 11.4956 77.4778 11.4956C77.4111 11.4956 77.3884 11.547 77.4273 11.6099C77.4662 11.6728 77.5207 11.7243 77.5484 11.7243C77.5762 11.7243 77.5989 11.6728 77.5989 11.6099ZM79.8293 11.5535C79.8922 11.5316 79.6991 11.5096 79.4003 11.5046C79.1015 11.4996 78.857 11.5367 78.857 11.587C78.857 11.6709 79.5621 11.6466 79.8293 11.5535V11.5535ZM78.1398 11.4264C78.1018 11.3884 78.0031 11.3844 77.9206 11.4174C77.8293 11.4539 77.8564 11.481 77.9897 11.4865C78.1102 11.4915 78.1778 11.4644 78.1398 11.4264V11.4264ZM147.083 39.6812C146.769 39.5934 146.447 39.545 146.369 39.5735C146.29 39.602 146.226 39.5805 146.226 39.5257C146.226 39.3971 145.545 39.1582 145.412 39.2403C145.356 39.2747 145.311 39.2586 145.311 39.2045C145.311 39.1055 144.314 38.5576 144.12 38.55C144.062 38.5478 143.865 38.4057 143.682 38.2344C143.498 38.063 143.311 37.9343 143.266 37.9484C143.22 37.9625 143.005 37.7683 142.788 37.5169C142.571 37.2655 142.285 36.9713 142.152 36.863C142.019 36.7548 141.684 36.3302 141.408 35.9196C141.133 35.5089 140.865 35.1727 140.814 35.1724C140.764 35.172 140.754 35.1203 140.793 35.0574C140.832 34.9945 140.806 34.943 140.735 34.943C140.665 34.943 140.644 34.8837 140.689 34.8113C140.734 34.7388 140.698 34.623 140.61 34.5539C140.522 34.4849 140.44 34.3511 140.428 34.2568C140.394 33.9817 140.094 33.2206 140.041 33.274C140.014 33.3008 139.982 33.2112 139.97 33.0749C139.957 32.9386 139.868 32.441 139.772 31.9692C139.282 29.573 139.21 27.4444 139.531 24.8206C139.834 22.341 140.594 19.6077 141.174 18.9053C141.263 18.7973 141.309 18.6043 141.275 18.4764C141.242 18.3485 141.26 18.2439 141.316 18.2439C141.372 18.2439 141.542 17.9994 141.693 17.7006C141.845 17.4018 142.077 17.0592 142.21 16.9394C142.343 16.8196 142.451 16.6586 142.451 16.5817C142.451 16.5047 142.53 16.3767 142.625 16.2971C142.721 16.2176 142.774 16.1271 142.743 16.0962C142.713 16.0652 142.867 15.8971 143.086 15.7226C143.343 15.5184 143.434 15.3844 143.34 15.3467C143.244 15.3078 143.239 15.2851 143.328 15.2791C143.401 15.2741 143.635 15.1028 143.848 14.8983C144.488 14.2845 145.176 13.7497 145.888 13.312C146.258 13.0844 146.524 12.8574 146.479 12.8076C146.434 12.7578 146.454 12.7497 146.525 12.7897C146.643 12.8571 147.584 12.4739 147.712 12.3059C147.744 12.2649 147.847 12.2363 147.941 12.2422C148.036 12.2482 148.164 12.2181 148.227 12.1754C148.422 12.0433 149.444 11.7477 150.343 11.5634C150.815 11.4667 151.381 11.35 151.601 11.304C151.822 11.258 156.656 11.2038 162.344 11.1835C170.148 11.1556 172.717 11.1796 172.81 11.2807C172.901 11.3797 172.891 11.3908 172.772 11.3229C172.648 11.2525 172.626 11.2887 172.675 11.4772C172.728 11.6783 172.673 11.7425 172.379 11.8279C172.18 11.8854 172.108 11.9371 172.218 11.9428C172.48 11.9562 172.472 12.0726 172.133 13.1394C171.976 13.6332 171.869 14.07 171.893 14.1103C171.918 14.1505 168.405 14.1834 164.086 14.1834C156.7 14.1834 156.191 14.1963 155.522 14.4006C155.116 14.5246 154.842 14.6671 154.883 14.7328C154.922 14.7961 154.903 14.8164 154.84 14.7779C154.674 14.6748 154.056 14.8747 154.088 15.0215C154.103 15.0908 154.039 15.1182 153.946 15.0825C153.85 15.0457 153.746 15.0969 153.706 15.2003C153.668 15.3008 153.597 15.3587 153.548 15.3289C153.328 15.1929 151.134 16.9755 151.129 17.2944C151.128 17.3448 151.053 17.4278 150.962 17.4788C150.87 17.5299 150.831 17.6279 150.873 17.6967C150.918 17.7696 150.898 17.7892 150.824 17.7436C150.686 17.6582 150.421 18.0546 150.538 18.1716C150.578 18.2114 150.551 18.2439 150.479 18.2439C150.317 18.2439 149.513 19.9333 149.604 20.0812C149.641 20.1401 149.623 20.1883 149.564 20.1883C149.446 20.1883 149.16 21.1557 148.979 22.1715C148.883 22.7125 148.891 22.87 149.022 23.0007C149.158 23.1372 150.715 23.1621 159.097 23.1621C168.494 23.1621 169.007 23.1726 168.93 23.3623C168.885 23.4724 168.799 23.7168 168.737 23.9056C168.675 24.0943 168.575 24.3525 168.515 24.4795C168.454 24.6064 168.396 24.8251 168.385 24.9656C168.375 25.106 168.32 25.2209 168.264 25.2209C168.208 25.2209 168.191 25.2981 168.227 25.3925C168.264 25.4868 168.249 25.564 168.195 25.564C168.141 25.564 168.064 25.6927 168.025 25.85L167.953 26.1359H158.251H148.55L148.417 26.4273C148.271 26.7483 148.23 29.2714 148.372 29.1833C148.421 29.1534 148.44 29.3365 148.416 29.5902C148.368 30.0974 148.835 32.2246 148.976 32.1376C149.024 32.1077 149.037 32.1856 149.004 32.3108C148.966 32.4549 149.012 32.5642 149.129 32.6089C149.23 32.6477 149.284 32.7254 149.249 32.7816C149.162 32.9221 149.711 33.821 149.819 33.7138C149.866 33.6664 149.895 33.6791 149.883 33.7421C149.832 34.0069 150.064 34.3465 150.648 34.8608C150.989 35.1615 151.326 35.3723 151.395 35.3292C151.472 35.2818 151.49 35.303 151.441 35.3829C151.368 35.4997 151.439 35.5366 151.674 35.5052C151.714 35.4998 151.779 35.5471 151.818 35.6104C151.857 35.6736 151.966 35.7423 152.059 35.7631C152.153 35.7838 152.281 35.8594 152.344 35.9308C152.407 36.0023 152.799 36.1712 153.214 36.3062C153.952 36.5459 154.122 36.5514 160.628 36.5462C166.941 36.5411 167.284 36.5513 167.227 36.7427C167.194 36.8538 167.061 37.4079 166.93 37.974C166.8 38.5402 166.641 39.1965 166.577 39.4324L166.461 39.8613L157.058 39.851C149.387 39.8427 147.55 39.8114 147.083 39.6812H147.083ZM167.919 24.8492C167.887 24.7705 167.861 24.8349 167.861 24.9921C167.861 25.1494 167.887 25.2137 167.919 25.1351C167.95 25.0565 167.95 24.9278 167.919 24.8492V24.8492ZM153.515 11.4264C153.477 11.3884 153.378 11.3844 153.296 11.4174C153.204 11.4539 153.231 11.481 153.365 11.4865C153.485 11.4915 153.553 11.4644 153.515 11.4264V11.4264ZM167.48 11.4098C164.984 11.3926 160.866 11.3926 158.33 11.4098C155.793 11.4269 157.835 11.441 162.868 11.441C167.9 11.4411 169.976 11.427 167.48 11.4098V11.4098ZM179.967 39.7414C179.747 39.6882 179.206 39.5073 178.766 39.3395C178.326 39.1717 177.875 39.0293 177.765 39.023C177.655 39.0167 177.565 38.9763 177.565 38.9333C177.565 38.8024 176.679 38.3842 176.579 38.4679C176.528 38.5108 176.551 38.4604 176.631 38.3559C176.729 38.2275 176.737 38.1419 176.656 38.0918C176.59 38.0511 176.536 38.0748 176.536 38.1446C176.536 38.2145 176.356 38.1346 176.137 37.9671C175.917 37.7996 175.763 37.6214 175.794 37.571C175.825 37.5206 175.76 37.4927 175.65 37.509C175.531 37.5266 175.367 37.4037 175.247 37.2074C175.136 37.0252 174.993 36.9082 174.93 36.9475C174.866 36.9867 174.829 36.9505 174.846 36.8673C174.863 36.784 174.809 36.73 174.726 36.7473C174.642 36.7646 174.604 36.7305 174.641 36.6715C174.677 36.6125 174.565 36.453 174.392 36.317C174.218 36.1811 174.151 36.1084 174.241 36.1555C174.332 36.2027 174.229 35.9877 174.012 35.6779C173.796 35.3681 173.58 35.0973 173.533 35.0762C173.485 35.0551 173.475 34.9908 173.511 34.9332C173.546 34.8757 173.518 34.8286 173.448 34.8286C173.377 34.8286 173.35 34.7789 173.388 34.7182C173.425 34.6574 173.359 34.4129 173.239 34.1749C173.12 33.9368 172.988 33.6005 172.947 33.4275C172.905 33.2545 172.818 33.113 172.752 33.113C172.687 33.113 172.661 33.0681 172.695 33.0134C172.729 32.9586 172.685 32.6369 172.597 32.2985C172.217 30.8396 171.914 26.9956 172.135 26.4451C172.181 26.3321 172.191 26.0035 172.159 25.7148C172.122 25.392 172.138 25.251 172.2 25.3484C172.266 25.453 172.301 25.3319 172.302 24.9921C172.308 23.4554 173.305 19.8987 174.197 18.2313C174.285 18.0671 174.328 17.9045 174.294 17.87C174.259 17.8355 174.332 17.775 174.457 17.7356C174.612 17.6862 174.664 17.5944 174.623 17.4392C174.591 17.3149 174.622 17.2144 174.692 17.2144C174.763 17.2144 174.82 17.1656 174.82 17.1059C174.82 17.0463 174.949 16.8586 175.106 16.6889C175.263 16.5192 175.392 16.3162 175.392 16.2378C175.392 16.1593 175.472 16.0643 175.571 16.0265C175.669 15.9888 175.717 15.9048 175.677 15.8399C175.637 15.775 175.664 15.736 175.737 15.7533C175.811 15.7706 175.93 15.6826 176.003 15.5577C176.076 15.4328 176.228 15.2612 176.34 15.1763C176.453 15.0914 176.633 14.9313 176.74 14.8207C176.848 14.71 177.228 14.3846 177.585 14.0975C177.942 13.8104 178.2 13.5407 178.157 13.4982C178.115 13.4557 178.131 13.437 178.194 13.4567C178.338 13.5017 179.052 13.0809 179.052 12.9511C179.052 12.898 179.104 12.8864 179.166 12.9253C179.229 12.9642 179.281 12.9415 179.281 12.8748C179.281 12.8082 179.319 12.7649 179.367 12.7786C179.512 12.8208 180.196 12.5426 180.196 12.441C180.196 12.3481 180.443 12.3012 180.963 12.2956C181.102 12.2943 181.256 12.2258 181.306 12.1437C181.43 11.94 182.979 11.5285 184.398 11.3225C185.365 11.1823 187.318 11.1524 195.535 11.1524H205.5L205.423 11.467C205.381 11.64 205.336 11.8845 205.324 12.0103C205.312 12.1361 205.233 12.311 205.15 12.399C205.066 12.4871 205.023 12.6543 205.053 12.7708C205.084 12.8872 205.07 12.9825 205.022 12.9825C204.974 12.9825 204.857 13.227 204.761 13.5258L204.588 14.0691L196.71 14.1263C189.375 14.1795 188.792 14.1982 188.259 14.3974C187.068 14.8431 186.15 15.302 186.22 15.4164C186.262 15.4829 186.237 15.4997 186.165 15.4551C186.095 15.4116 185.937 15.4766 185.814 15.5995C185.691 15.7223 185.562 15.794 185.527 15.7588C185.491 15.7236 185.43 15.7791 185.391 15.8821C185.351 15.9851 185.277 16.0437 185.226 16.0123C185.138 15.9576 183.748 17.3252 183.772 17.4432C183.778 17.4747 183.646 17.6484 183.479 17.8293C183.311 18.0102 183.202 18.2032 183.236 18.2582C183.27 18.3132 183.24 18.3582 183.17 18.3582C183.099 18.3582 183.074 18.4097 183.112 18.4726C183.151 18.5355 183.126 18.587 183.056 18.587C182.902 18.587 182.593 19.287 182.683 19.4328C182.718 19.4903 182.698 19.5071 182.639 19.47C182.579 19.433 182.455 19.45 182.364 19.5078C182.242 19.5847 182.237 19.6134 182.345 19.6146C182.514 19.6168 182.488 19.9513 182.303 20.1479C182.084 20.3821 181.628 22.707 181.761 22.9172C181.869 23.0885 182.742 23.1072 191.755 23.1316C200.805 23.1561 201.639 23.1742 201.736 23.3475C201.816 23.489 201.805 23.5138 201.695 23.4459C201.586 23.3786 201.566 23.4218 201.616 23.613C201.653 23.7549 201.651 23.8388 201.612 23.7996C201.514 23.7011 201.002 25.1279 201.07 25.3126C201.1 25.3945 201.073 25.4301 201.011 25.3917C200.949 25.3532 200.898 25.4241 200.898 25.5491C200.898 25.6742 200.817 25.8573 200.719 25.9562C200.558 26.1167 199.516 26.1359 190.962 26.1359C183.666 26.1359 181.353 26.1686 181.248 26.2732C181.045 26.4759 181.072 29.2848 181.289 30.5222C181.483 31.6322 181.864 32.7698 182.041 32.7698C182.103 32.7698 182.125 32.8172 182.089 32.875C182.053 32.9328 182.105 33.0615 182.205 33.1609C182.304 33.2604 182.343 33.3433 182.291 33.3452C182.24 33.3469 182.289 33.4018 182.4 33.4666C182.511 33.5315 182.573 33.6332 182.536 33.6927C182.499 33.7522 182.549 33.8316 182.647 33.8692C182.745 33.9068 182.793 33.9899 182.753 34.0537C182.714 34.1176 182.869 34.3412 183.097 34.5506C183.326 34.76 183.513 34.8968 183.513 34.8545C183.513 34.8123 183.593 34.8921 183.691 35.0319C183.789 35.1718 183.943 35.2862 184.034 35.2862C184.125 35.2862 184.199 35.3369 184.199 35.3989C184.199 35.5523 185.553 36.2262 185.691 36.1412C185.751 36.1038 185.8 36.1217 185.8 36.1809C185.8 36.4875 186.989 36.5443 193.4 36.5443C198.853 36.5443 199.983 36.5709 199.983 36.6989C199.983 36.7838 199.852 37.3836 199.692 38.0316C199.531 38.6796 199.428 39.2818 199.462 39.3699C199.495 39.458 199.472 39.4986 199.41 39.4602C199.348 39.4217 199.297 39.4962 199.297 39.6258V39.8613L189.832 39.8498C184.627 39.8435 180.187 39.7947 179.967 39.7415L179.967 39.7414ZM181.454 32.9481C181.454 32.9204 181.402 32.8659 181.34 32.827C181.277 32.7881 181.225 32.8108 181.225 32.8774C181.225 32.9441 181.277 32.9986 181.34 32.9986C181.402 32.9986 181.454 32.9759 181.454 32.9481ZM172.837 30.9112C172.805 30.8325 172.779 30.8969 172.779 31.0542C172.779 31.2114 172.805 31.2758 172.837 31.1971C172.869 31.1185 172.869 30.9898 172.837 30.9112ZM172.842 24.6217C172.815 24.4795 172.791 24.5689 172.79 24.8206C172.789 25.0722 172.811 25.1886 172.84 25.0792C172.868 24.9699 172.869 24.764 172.842 24.6217H172.842ZM182.541 18.7013C182.579 18.6384 182.557 18.587 182.49 18.587C182.423 18.587 182.369 18.6384 182.369 18.7013C182.369 18.7643 182.392 18.8157 182.419 18.8157C182.447 18.8157 182.502 18.7643 182.541 18.7013ZM180.882 12.6393C180.882 12.5764 180.859 12.5249 180.832 12.5249C180.804 12.5249 180.749 12.5764 180.71 12.6393C180.672 12.7022 180.694 12.7537 180.761 12.7537C180.828 12.7537 180.882 12.7022 180.882 12.6393ZM200.584 11.4098C197.989 11.3927 193.742 11.3927 191.147 11.4098C188.553 11.4269 190.676 11.441 195.866 11.441C201.055 11.441 203.179 11.4269 200.584 11.4098ZM15.1158 38.0079C15.0034 37.8903 14.8539 37.8297 14.7836 37.8731C14.7133 37.9166 14.684 37.9056 14.7186 37.8487C14.7965 37.7204 14.5863 37.5277 14.3196 37.4829C14.2096 37.4645 13.9905 37.3202 13.8325 37.1622C13.6746 37.0043 13.4969 36.905 13.4377 36.9416C13.3785 36.9783 13.2718 36.8994 13.2006 36.7664C13.1295 36.6335 13.0436 36.5524 13.0097 36.5862C12.9306 36.6654 12.6986 36.4306 12.6009 36.1726C12.5592 36.0625 12.4567 35.9724 12.3731 35.9724C12.2896 35.9724 12.0222 35.7686 11.7791 35.5196C11.5359 35.2706 11.281 35.1003 11.2126 35.1413C11.1441 35.1822 11.1598 35.1274 11.2473 35.0195C11.3833 34.852 11.3833 34.8317 11.2473 34.8803C11.0404 34.9543 10.3346 34.3108 10.3133 34.0287C10.3 33.8513 10.2654 33.8363 10.1273 33.948C10.0037 34.048 9.97943 34.0489 10.0379 33.9515C10.0839 33.8748 9.98897 33.7161 9.81568 33.5797C9.64933 33.4489 9.54957 33.3418 9.594 33.3418C9.63843 33.3418 9.5939 33.261 9.49504 33.1621C9.39619 33.0632 9.31531 32.9155 9.31531 32.8337C9.31531 32.7519 9.13905 32.5643 8.92362 32.4167C8.70819 32.269 8.55682 32.108 8.58724 32.0588C8.61767 32.0096 8.5881 31.9693 8.52141 31.9693C8.45479 31.9693 8.40846 31.9307 8.41844 31.8835C8.45705 31.7011 8.25591 31.4025 8.14188 31.4729C8.07584 31.5137 8.05115 31.4996 8.087 31.4416C8.16004 31.3235 7.66959 30.4506 7.58032 30.5398C7.54902 30.5711 7.52339 30.5204 7.52339 30.4271C7.52339 30.2032 7.11647 29.453 6.99499 29.453C6.94268 29.453 6.9293 29.4054 6.96525 29.3472C7.04036 29.2256 6.80414 28.6523 6.67895 28.6523C6.63313 28.6523 6.60107 28.588 6.6077 28.5094C6.61431 28.4307 6.45845 27.8517 6.26129 27.2226C6.06414 26.5935 5.84305 25.7185 5.76998 25.2782C5.69691 24.8378 5.61165 24.4003 5.58051 24.306C5.50886 24.0888 5.4656 20.7612 5.53533 20.831C5.60401 20.8997 5.99468 18.5593 5.93158 18.4572C5.9046 18.4136 5.93072 18.3606 5.98963 18.3395C6.04853 18.3184 6.11319 18.1467 6.13331 17.958C6.15341 17.7693 6.19918 17.5891 6.23497 17.5577C6.36371 17.4445 6.68749 16.5111 6.63017 16.4183C6.59792 16.3662 6.636 16.2988 6.71474 16.2685C6.85563 16.2145 7.33092 15.0659 7.28171 14.8984C7.26783 14.8512 7.30665 14.8126 7.36793 14.8126C7.51154 14.8126 7.842 14.1781 7.74757 14.0837C7.70814 14.0442 7.73153 14.012 7.79951 14.012C7.96535 14.012 8.63416 12.9138 8.53532 12.8038C8.49248 12.7561 8.5192 12.7526 8.59469 12.7959C8.74671 12.8831 9.01182 12.4884 8.88584 12.3625C8.84278 12.3194 8.8867 12.3146 8.98386 12.3518C9.16178 12.4201 9.50243 11.9089 9.4401 11.6672C9.42389 11.6043 9.44313 11.5851 9.48246 11.6247C9.52198 11.6642 9.70642 11.5444 9.89232 11.3585C10.2398 11.0111 10.3315 10.8477 10.0983 10.9918C10.0146 11.0436 9.99735 11.0231 10.0513 10.9358C10.1174 10.8288 10.1736 10.8292 10.3041 10.9376C10.4097 11.0252 10.459 11.0307 10.4369 10.9525C10.4177 10.8841 10.6078 10.6078 10.8594 10.3386C11.111 10.0693 11.2446 9.8929 11.1563 9.94654C11.0462 10.0134 11.0217 10.0019 11.0784 9.91014C11.1239 9.83649 11.198 9.79898 11.2429 9.82678C11.2879 9.85457 11.5769 9.65232 11.885 9.37731C12.1932 9.1023 12.4887 8.90407 12.5416 8.9368C12.5946 8.96952 12.6306 8.95388 12.6215 8.90204C12.5804 8.66515 12.6455 8.52181 12.7943 8.52181C12.8834 8.52181 13.0674 8.38027 13.2031 8.20728C13.3388 8.03428 13.4147 7.96122 13.3718 8.04492C13.3288 8.12861 13.4751 8.07816 13.6969 7.93277C13.9186 7.7874 14.0704 7.61597 14.0341 7.55184C13.9978 7.4877 14.0065 7.46964 14.0534 7.51168C14.1003 7.55374 14.4389 7.4122 14.8058 7.19714C15.1728 6.98208 15.5207 6.80613 15.5789 6.80613C15.6372 6.80613 15.8344 6.67589 16.0172 6.5167C16.2047 6.35344 16.4396 6.2498 16.5562 6.27895C16.7333 6.32323 16.7415 6.30419 16.6134 6.1461C16.5094 6.01769 16.5064 5.98706 16.6035 6.04539C16.6803 6.09149 16.9119 6.03704 17.1182 5.9244C17.3245 5.81176 17.622 5.69099 17.7792 5.65602C17.9365 5.62105 18.051 5.52714 18.0338 5.44733C18.0165 5.36751 18.047 5.32985 18.1017 5.36362C18.2512 5.45603 19.2845 5.0339 19.1827 4.92198C19.1343 4.86866 19.1525 4.85807 19.2232 4.89847C19.3725 4.98368 20.5701 4.60247 20.4694 4.50178C20.4323 4.46473 20.5264 4.4582 20.6785 4.48726C20.8306 4.51631 20.9898 4.48379 21.0324 4.41496C21.0749 4.34613 21.2353 4.28982 21.3889 4.28982C21.5424 4.28982 21.6681 4.2353 21.6681 4.16868C21.6681 4.10206 21.7169 4.07773 21.7766 4.11462C21.8904 4.18496 22.9419 3.95849 23.0406 3.84236C23.0721 3.8054 23.2522 3.76881 23.4409 3.7611C23.6297 3.75341 24.6333 3.64707 25.6713 3.52482C26.7093 3.40257 28.0905 3.3117 28.7407 3.32287C29.4353 3.3348 29.8598 3.30259 29.7701 3.24477C29.6816 3.18779 29.7859 3.1824 30.0177 3.23197C30.2378 3.27906 30.714 3.3176 31.0757 3.3176C31.4375 3.3176 31.7334 3.34976 31.7334 3.38908C31.7334 3.42838 31.8491 3.46197 31.9907 3.46368C32.1322 3.46541 33.0201 3.60838 33.9637 3.78142C34.9073 3.95446 35.7952 4.10104 35.9367 4.10714C36.0783 4.11324 36.1941 4.16235 36.1941 4.21626C36.1941 4.27017 36.2713 4.28466 36.3656 4.24847C36.46 4.21224 36.5372 4.22733 36.5372 4.28201C36.5372 4.36965 37.5509 4.68259 37.8525 4.68808C37.9155 4.68938 37.9927 4.71695 38.0241 4.74967C38.1581 4.88916 38.7362 5.08799 38.8333 5.02799C38.8915 4.99203 38.9391 5.02263 38.9391 5.09596C38.9391 5.16931 39.0163 5.19971 39.1107 5.16349C39.2051 5.12727 39.2823 5.15057 39.2823 5.2152C39.2823 5.27984 39.3337 5.30092 39.3967 5.26205C39.4596 5.22319 39.511 5.27791 39.511 5.38368C39.511 5.54993 39.5373 5.55472 39.7045 5.41904C39.836 5.31238 39.8705 5.30788 39.8122 5.40503C39.735 5.53353 39.9318 5.60799 40.2259 5.56155C40.2731 5.55412 40.3117 5.60253 40.3117 5.66913C40.3117 5.73575 40.3587 5.76117 40.4163 5.72562C40.4738 5.69004 40.5382 5.70888 40.5593 5.76746C40.5803 5.82604 40.6748 5.8907 40.7692 5.91114C40.8635 5.93159 40.967 5.98279 40.999 6.02493C41.0311 6.06708 41.132 6.11854 41.2233 6.13931C41.3146 6.16006 41.4925 6.26841 41.6185 6.38004C41.7446 6.49167 41.9166 6.5566 42.0007 6.52432C42.0848 6.49203 42.1244 6.51282 42.0888 6.57047C42.0264 6.6714 42.4519 6.8753 42.6278 6.82881C42.675 6.81636 42.7136 6.8563 42.7136 6.91759C42.7136 7.03821 43.4022 7.44011 43.5428 7.40156C43.59 7.38863 43.6286 7.42702 43.6286 7.48692C43.6286 7.64954 44.6147 8.29689 44.719 8.20277C44.7686 8.15807 44.7754 8.18046 44.7342 8.25248C44.6654 8.37284 44.8975 8.54174 45.1727 8.5717C45.2356 8.57853 45.2694 8.68592 45.2476 8.81033C45.2259 8.93473 45.2475 8.99781 45.2956 8.95049C45.3436 8.90317 45.486 8.95481 45.612 9.06486C45.7769 9.20908 45.8144 9.21716 45.7458 9.09369C45.6934 8.99933 45.7881 9.04742 45.9562 9.20057C46.1871 9.41099 46.2266 9.50421 46.1176 9.58221C46.0208 9.65151 46.058 9.66688 46.2309 9.62898C46.3725 9.59794 46.4638 9.61234 46.4338 9.66097C46.3542 9.78975 46.7753 10.1393 46.8874 10.0376C46.9396 9.99025 46.9501 10.008 46.9108 10.077C46.8314 10.2164 47.4307 10.8469 47.554 10.7538C47.5969 10.7214 47.6079 10.7275 47.5787 10.7672C47.4971 10.8781 47.7449 11.2812 47.8534 11.2142C47.9537 11.1522 48.1677 11.3569 48.2076 11.5528C48.2489 11.7563 48.5082 12.0681 48.578 11.9983C48.6153 11.961 48.6169 12.0407 48.5819 12.1755C48.5467 12.3102 48.563 12.4121 48.6182 12.402C48.8339 12.3624 49.0046 12.4158 49.0046 12.5228C49.0046 12.5845 49.1823 12.9129 49.3996 13.2525C49.6169 13.5921 49.7627 13.902 49.7237 13.941C49.6846 13.98 49.7117 14.0119 49.7838 14.0119C49.856 14.0119 50.02 14.2178 50.1484 14.4695C50.2767 14.7211 50.4236 14.927 50.4748 14.927C50.5259 14.927 50.5684 14.9913 50.5692 15.0699C50.5701 15.1486 50.6815 15.4546 50.817 15.7499C50.9525 16.0453 51.0634 16.316 51.0634 16.3514C51.0634 16.3869 45.4453 16.4145 38.5788 16.4129C26.974 16.4103 26.0791 16.4236 25.8789 16.6048C25.7604 16.712 25.6894 16.8674 25.7211 16.95C25.7528 17.0326 25.7258 17.1002 25.6612 17.1002C25.5965 17.1002 25.5754 17.1516 25.6143 17.2145C25.6532 17.2774 25.6383 17.3289 25.5812 17.3289C25.4618 17.3289 25.0615 18.1687 25.0615 18.4192C25.0615 18.5115 25.0156 18.5871 24.9594 18.5871C24.9033 18.5871 24.8892 18.6385 24.928 18.7014C24.9669 18.7643 24.9412 18.8158 24.8708 18.8158C24.8005 18.8158 24.7748 18.8673 24.8137 18.9302C24.8525 18.9931 24.8349 19.0446 24.7744 19.0446C24.6717 19.0446 24.3838 19.6475 24.3647 19.9024C24.36 19.9653 24.2839 20.0733 24.1957 20.1424C24.0998 20.2175 24.0724 20.3281 24.1276 20.4174C24.1929 20.523 24.1755 20.5394 24.0684 20.4732C23.9584 20.4052 23.937 20.4317 23.99 20.5699C24.0301 20.6746 24.0226 20.7602 23.9733 20.7602C23.8611 20.7602 23.2314 22.0632 23.2314 22.2952C23.2314 22.3891 23.1798 22.4339 23.1167 22.3949C23.0456 22.351 23.0334 22.406 23.0846 22.5394C23.1301 22.6579 23.1303 22.7179 23.085 22.6728C22.9903 22.5781 22.1226 24.4341 22.2013 24.5633C22.23 24.6105 22.196 24.6491 22.1256 24.6491C22.0553 24.6491 22.0272 24.6968 22.0633 24.7552C22.0994 24.8136 22.0279 24.8934 21.9043 24.9327C21.7753 24.9736 21.7053 25.0705 21.7398 25.1604C21.7728 25.2465 21.7143 25.4474 21.6097 25.607C21.5052 25.7666 21.4577 25.9589 21.5043 26.0343C21.5618 26.1273 21.5403 26.1412 21.4376 26.0777C21.3257 26.0086 21.3064 26.0372 21.364 26.1872C21.4178 26.3274 21.396 26.3726 21.2936 26.3333C21.2077 26.3004 21.136 26.3672 21.1234 26.4921C21.074 26.9815 21.0537 27.051 20.9599 27.051C20.8511 27.051 20.63 27.5684 20.6057 27.8803C20.5971 27.9904 20.5464 28.0804 20.4932 28.0804C20.44 28.0804 20.4282 28.1319 20.4671 28.1948C20.506 28.2577 20.4802 28.3092 20.4099 28.3092C20.3396 28.3092 20.3139 28.3606 20.3527 28.4236C20.3916 28.4865 20.3788 28.5379 20.3244 28.5379C20.2239 28.5379 19.5219 29.9412 19.4674 30.2509C19.451 30.3437 19.3729 30.4894 19.2937 30.5746C19.2145 30.6598 19.1838 30.7848 19.2256 30.8524C19.2673 30.9199 19.2497 30.9432 19.1865 30.9041C19.0749 30.8352 18.7209 31.7024 18.7833 31.892C18.8003 31.9438 18.7669 31.957 18.7091 31.9213C18.5841 31.844 18.4365 32.173 18.529 32.3227C18.5645 32.38 18.5358 32.4268 18.4655 32.4268C18.3952 32.4268 18.3672 32.4746 18.4032 32.5329C18.4393 32.5913 18.3623 32.6729 18.2321 32.7142C18.1019 32.7555 18.0157 32.8493 18.0405 32.9226C18.0652 32.9959 18.0186 33.2166 17.9369 33.4131C17.8552 33.6095 17.8206 33.8025 17.86 33.842C17.8995 33.8815 17.8631 33.9137 17.7793 33.9137C17.6954 33.9137 17.6568 33.9437 17.6935 33.9804C17.7302 34.0171 17.6575 34.1498 17.5321 34.2752C17.4067 34.4006 17.3322 34.5765 17.3665 34.666C17.4009 34.7555 17.389 34.8287 17.3402 34.8287C17.2381 34.8287 16.8261 35.7192 16.8261 35.9398C16.8261 36.0207 16.7802 36.0869 16.724 36.0869C16.6679 36.0869 16.6538 36.1384 16.6927 36.2013C16.7315 36.2642 16.7176 36.3156 16.6618 36.3156C16.5413 36.3156 16.0254 37.3812 16.0254 37.6299C16.0254 37.7249 15.9795 37.8025 15.9234 37.8025C15.8672 37.8025 15.8498 37.8486 15.8846 37.9049C15.9427 37.9989 15.712 38.1506 15.4345 38.201C15.3716 38.2124 15.2282 38.1256 15.1158 38.008L15.1158 38.0079ZM15.6633 37.5737C15.7021 37.5108 15.6537 37.4593 15.5557 37.4593C15.4576 37.4593 15.3773 37.5108 15.3773 37.5737C15.3773 37.6366 15.4258 37.6881 15.485 37.6881C15.5442 37.6881 15.6244 37.6366 15.6633 37.5737ZM8.85781 31.2762C8.85781 31.217 8.80634 31.1685 8.74343 31.1685C8.68052 31.1685 8.62905 31.2488 8.62905 31.3468C8.62905 31.4449 8.68052 31.4934 8.74343 31.4545C8.80634 31.4156 8.85781 31.3353 8.85781 31.2762ZM22.3544 23.1621C22.3544 23.0992 22.3029 23.0477 22.24 23.0477C22.1771 23.0477 22.1256 23.0992 22.1256 23.1621C22.1256 23.225 22.1771 23.2765 22.24 23.2765C22.3029 23.2765 22.3544 23.225 22.3544 23.1621ZM22.5469 21.9969C22.5104 21.9056 22.4833 21.9327 22.4778 22.066C22.4728 22.1865 22.4999 22.2541 22.5379 22.2161C22.5759 22.1781 22.5799 22.0794 22.5469 21.9969H22.5469ZM6.30525 19.3662C6.26872 19.2749 6.24164 19.302 6.23615 19.4353C6.23118 19.5558 6.2582 19.6234 6.29622 19.5854C6.33422 19.5474 6.33828 19.4487 6.30525 19.3662V19.3662ZM24.4913 18.6799C24.4548 18.5887 24.4277 18.6158 24.4222 18.749C24.4172 18.8696 24.4443 18.9371 24.4823 18.8991C24.5203 18.8611 24.5244 18.7625 24.4913 18.6799H24.4913ZM8.62905 14.0758C8.62905 14.048 8.57759 13.9935 8.51468 13.9547C8.45177 13.9158 8.4003 13.9385 8.4003 14.0051C8.4003 14.0717 8.45177 14.1262 8.51468 14.1262C8.57759 14.1262 8.62905 14.1035 8.62905 14.0758ZM9.84858 12.2676C9.81685 12.189 9.79089 12.2533 9.79089 12.4106C9.79089 12.5678 9.81687 12.6322 9.84858 12.5535C9.88031 12.4749 9.88031 12.3462 9.84858 12.2676V12.2676ZM48.0322 11.8387C48.0711 11.7758 48.0515 11.7243 47.9885 11.7243C47.9256 11.7243 47.8423 11.7758 47.8035 11.8387C47.7646 11.9016 47.7842 11.953 47.8471 11.953C47.9101 11.953 47.9933 11.9016 48.0322 11.8387ZM27.1273 3.64875C27.0893 3.61075 26.9906 3.60668 26.9081 3.63971C26.8168 3.67624 26.8439 3.70333 26.9772 3.70881C27.0977 3.71379 27.1653 3.68677 27.1273 3.64874V3.64875ZM30.3894 3.64209C30.3108 3.61036 30.1821 3.61036 30.1035 3.64209C30.0249 3.67382 30.0892 3.69978 30.2465 3.69978C30.4037 3.69978 30.4681 3.6738 30.3894 3.64209V3.64209ZM30.9613 3.64209C30.8827 3.61036 30.754 3.61036 30.6754 3.64209C30.5967 3.67382 30.6611 3.69978 30.8184 3.69978C30.9756 3.69978 31.04 3.6738 30.9613 3.64209V3.64209ZM32.0455 3.64875C32.0075 3.61075 31.9089 3.60668 31.8263 3.63971C31.7351 3.67624 31.7622 3.70333 31.8954 3.70881C32.016 3.71379 32.0835 3.68677 32.0455 3.64874V3.64875ZM155.462 22.962C157.931 22.9448 161.971 22.9448 164.44 22.962C166.909 22.9792 164.889 22.9933 159.951 22.9933C155.013 22.9933 152.992 22.9792 155.462 22.962V22.962ZM187.545 22.962C189.982 22.9447 193.971 22.9447 196.409 22.962C198.847 22.9792 196.852 22.9933 191.977 22.9933C187.101 22.9933 185.107 22.9792 187.545 22.962ZM126.696 10.9561C126.869 10.9299 127.152 10.9299 127.325 10.9561C127.498 10.9823 127.356 11.0038 127.01 11.0038C126.664 11.0038 126.523 10.9823 126.696 10.9561Z" fill="#3E443E"/>
</g>
<defs>
<filter id="filter0_d_754_3226" x="0.5" y="0.19812" width="210" height="48.5922" filterUnits="userSpaceOnUse" color-interpolation-filters="sRGB">
<feFlood flood-opacity="0" result="BackgroundImageFix"/>
<feColorMatrix in="SourceAlpha" type="matrix" values="0 0 0 0 0 0 0 0 0 0 0 0 0 0 0 0 0 0 127 0" result="hardAlpha"/>
<feOffset dy="2"/>
<feGaussianBlur stdDeviation="2.5"/>
<feColorMatrix type="matrix" values="0 0 0 0 0 0 0 0 0 0 0 0 0 0 0 0 0 0 0.25 0"/>
<feBlend mode="normal" in2="BackgroundImageFix" result="effect1_dropShadow_754_3226"/>
<feBlend mode="normal" in="SourceGraphic" in2="effect1_dropShadow_754_3226" result="shape"/>
</filter>
</defs>
</svg>
