<svg width="607" height="142" viewBox="0 0 607 142" fill="none" xmlns="http://www.w3.org/2000/svg">
<path d="M63.9966 141.287C63.5193 141.202 61.2542 140.832 58.9631 140.464C56.672 140.097 54.7426 139.734 54.6755 139.659C54.5492 139.517 55.2424 137.723 59.9172 126.094C66.6355 109.383 70.131 99.5706 72.0432 92.0544C73.4441 86.5479 73.8002 79.0212 72.8346 75.3256C71.6838 70.9213 68.2438 67.4308 63.1287 65.4775C61.7923 64.9672 60.6554 64.5075 60.6023 64.4561C60.5493 64.4046 60.6625 63.8664 60.854 63.2599L61.2023 62.1572H101.458C128.552 62.1572 141.786 62.2972 141.934 62.5852C142.376 63.4464 142.524 73.7448 142.148 77.4156C141.259 86.0697 137.763 97.9122 134.601 102.978C134.145 103.71 133.771 104.431 133.771 104.581C133.771 104.73 133.029 106.006 132.122 107.415C127.168 115.113 122.466 120.452 116.224 125.466C112.862 128.166 104.576 133.616 103.831 133.616C103.684 133.616 102.9 133.97 102.091 134.403C96.566 137.355 88.1172 139.898 80.312 140.959C76.4323 141.486 66.2536 141.691 63.9966 141.287Z" fill="#d14d4d"/>
<path d="M294.322 134.897C296.22 134.667 295.449 134.586 290.801 134.528C285.872 134.465 284.816 134.345 284.651 133.825C284.541 133.481 284.583 133.199 284.746 133.199C285.125 133.199 285.902 129.522 285.633 128.998C285.521 128.78 285.578 128.602 285.759 128.602C285.941 128.602 286.232 127.709 286.407 126.617C286.581 125.525 286.894 124.672 287.103 124.722C287.317 124.773 287.406 124.462 287.307 124.008C287.147 123.269 287.481 121.521 288.745 116.483C289.005 115.449 289.419 113.568 289.665 112.304C289.912 111.04 290.22 109.818 290.349 109.588C290.479 109.358 290.562 108.667 290.534 108.053C290.506 107.439 290.58 107.008 290.698 107.096C290.817 107.184 291.238 105.618 291.635 103.616C292.031 101.614 292.603 98.9421 292.906 97.6779C294.228 92.1532 294.521 90.543 294.289 90.0908C294.151 89.8227 294.193 89.7214 294.382 89.8625C294.761 90.1439 297.07 79.9092 296.763 79.3115C296.659 79.1095 296.73 78.8812 296.92 78.8041C297.111 78.727 297.512 77.5356 297.812 76.1566C298.112 74.7775 298.832 71.4867 299.413 68.8435C299.994 66.2003 300.674 63.0975 300.925 61.9483C301.176 60.7991 301.711 58.3918 302.114 56.5987C302.517 54.8056 302.755 53.1602 302.643 52.9422C302.531 52.7242 302.58 52.5458 302.753 52.5458C303.037 52.5458 303.521 50.5634 306.168 38.5465C306.624 36.4779 307.171 34.1003 307.385 33.2629C307.599 32.4255 307.652 31.5032 307.503 31.2133C307.334 30.8833 307.373 30.7909 307.609 30.966C307.828 31.1293 308.031 30.8517 308.096 30.2993L308.208 29.3529L333.375 29.4707C347.217 29.5355 360.339 29.4179 362.535 29.2095C364.73 29.0011 366.689 28.9849 366.887 29.1735C367.085 29.3621 370.287 29.5281 374.003 29.5422C381.53 29.571 385.618 30.1833 389.643 31.885C391.057 32.4832 392.403 32.9887 392.634 33.0084C392.864 33.0282 392.955 33.2329 392.837 33.4635C392.707 33.7159 392.859 33.7732 393.217 33.6076C393.546 33.4559 393.725 33.5043 393.616 33.7154C393.508 33.9261 393.72 34.213 394.086 34.3529C395.252 34.7985 399.831 40.5219 399.418 41.0185C399.307 41.1529 399.407 41.2628 399.641 41.2628C399.875 41.2628 399.97 41.4508 399.852 41.6807C399.734 41.9105 399.777 42.0985 399.947 42.0985C400.117 42.0985 400.226 42.5217 400.188 43.0388C400.151 43.5559 400.294 44.2432 400.507 44.5661C401.138 45.5242 400.973 56.4428 400.283 59.4232C399.966 60.7925 399.771 61.9902 399.85 62.0848C399.928 62.1794 399.757 62.5407 399.468 62.8877C399.18 63.2348 399.026 63.7766 399.127 64.0917C399.227 64.4068 399.149 64.6646 398.953 64.6646C398.756 64.6646 398.693 64.8527 398.81 65.0825C398.928 65.3124 398.85 65.5004 398.637 65.5004C398.423 65.5004 398.345 65.6885 398.463 65.9183C398.581 66.1481 398.503 66.3362 398.29 66.3362C398.076 66.3362 397.998 66.5242 398.116 66.7541C398.234 66.9839 398.199 67.172 398.038 67.172C397.785 67.172 396.552 69.3261 396.51 69.8439C396.501 69.9458 395.571 71.2052 394.441 72.6426C393.312 74.0799 392.388 75.4346 392.388 75.653C392.388 75.8713 392.124 75.792 391.801 75.4765C391.457 75.1407 391.317 75.1091 391.462 75.4003C391.706 75.8908 390.468 77.6192 389.873 77.6192C389.706 77.6192 389.683 77.8543 389.82 78.1416C389.957 78.4289 389.945 78.5284 389.793 78.3628C389.641 78.1972 389.084 78.4323 388.556 78.8852C388.027 79.3381 387.413 79.7086 387.191 79.7086C386.97 79.7086 386.291 80.1625 385.683 80.7173C385.075 81.272 383.681 82.0885 382.585 82.5317C381.489 82.9749 380.656 83.4143 380.733 83.5081C380.811 83.6019 380.459 83.697 379.949 83.7196C379.44 83.7422 378.182 83.9772 377.154 84.242C376.125 84.5067 374.702 84.7233 373.99 84.7233C372.681 84.7233 370.866 86.0033 370.866 86.9267C370.866 87.2594 370.988 87.2505 371.283 86.8963C371.94 86.1048 372.193 86.2821 372.949 88.0665C373.338 88.9858 373.819 89.738 374.018 89.738C374.216 89.738 374.29 89.9109 374.181 90.1222C374.073 90.3335 374.231 90.8036 374.533 91.1669C374.834 91.5302 374.988 91.8275 374.874 91.8275C374.76 91.8275 374.909 92.3916 375.205 93.0811C375.501 93.7706 375.896 94.3348 376.082 94.3348C376.268 94.3348 376.402 94.4759 376.379 94.6482C376.239 95.7152 376.466 96.4421 376.854 96.173C377.093 96.0077 377.174 96.0242 377.035 96.2098C376.736 96.6068 378.798 101.439 379.266 101.439C379.442 101.439 379.489 101.627 379.371 101.857C379.253 102.087 379.331 102.275 379.544 102.275C379.758 102.275 379.849 102.438 379.747 102.637C379.513 103.091 381.565 107.707 382 107.707C382.177 107.707 382.283 107.862 382.235 108.051C382.086 108.64 384.155 113.535 384.457 113.31C384.615 113.192 384.641 113.419 384.515 113.814C384.348 114.339 384.41 114.439 384.746 114.189C385.043 113.968 385.123 114.009 384.971 114.305C384.683 114.865 386.966 119.946 387.316 119.525C387.453 119.36 387.452 119.579 387.316 120.012C387.142 120.556 387.189 120.707 387.467 120.5C387.738 120.298 387.795 120.434 387.641 120.918C387.487 121.401 387.543 121.537 387.814 121.336C388.085 121.134 388.142 121.27 387.988 121.754C387.816 122.292 387.882 122.385 388.252 122.126C388.523 121.937 388.634 121.93 388.499 122.11C388.363 122.291 388.517 123.027 388.842 123.744C389.166 124.462 389.437 125.238 389.445 125.467C389.469 126.258 390.009 126.943 390.385 126.663C390.61 126.496 390.662 126.578 390.514 126.866C390.378 127.131 390.458 127.348 390.692 127.348C390.926 127.348 391.02 127.465 390.901 127.608C390.605 127.965 392.314 131.945 392.763 131.945C392.962 131.945 393.029 132.133 392.911 132.363C392.793 132.592 392.828 132.781 392.989 132.781C393.151 132.781 393.283 133.167 393.283 133.64C393.283 134.494 393.2 134.499 380.947 134.369C369.156 134.244 368.528 134.198 366.735 133.316C365.703 132.809 364.702 132.51 364.512 132.652C364.303 132.806 364.275 132.695 364.44 132.373C364.618 132.026 364.559 131.899 364.273 132.014C364.03 132.111 363.266 131.619 362.576 130.92C361.125 129.451 356.742 124.214 356.962 124.214C357.164 124.214 355.856 121.77 355.484 121.451C355.32 121.31 355.197 121.028 355.211 120.824C355.273 119.916 354.817 119 354.439 119.273C354.214 119.436 354.247 119.246 354.513 118.852C354.94 118.218 354.923 118.169 354.369 118.425C353.938 118.624 353.821 118.562 353.993 118.225C354.131 117.956 354.07 117.736 353.856 117.736C353.643 117.736 353.565 117.548 353.683 117.319C353.801 117.089 353.732 116.901 353.53 116.901C353.327 116.901 353.201 116.75 353.249 116.565C353.417 115.915 351.662 111.92 351.319 112.175C351.128 112.317 351.076 112.231 351.202 111.984C351.329 111.737 351.186 111.238 350.884 110.875C350.568 110.495 350.502 110.214 350.728 110.214C350.944 110.214 351.022 110.023 350.902 109.79C350.782 109.556 350.535 109.476 350.352 109.612C350.17 109.748 350.058 109.704 350.105 109.514C350.298 108.725 349.347 106.401 348.952 106.696C348.714 106.873 348.634 106.822 348.761 106.574C349.024 106.061 347.007 101.439 346.52 101.439C346.332 101.439 346.266 101.268 346.373 101.059C346.654 100.512 346.207 99.3096 345.827 99.5918C345.652 99.7224 345.551 99.6706 345.603 99.4765C345.782 98.8136 344.388 95.6105 344.034 95.8734C343.841 96.0176 343.786 95.9335 343.912 95.6867C344.039 95.4399 343.896 94.9407 343.594 94.5774C343.292 94.2141 343.144 93.9169 343.265 93.9169C343.386 93.9169 343.06 92.9767 342.541 91.8275C342.021 90.6783 341.456 89.738 341.284 89.738C341.112 89.738 341.082 89.5214 341.218 89.2567C341.354 88.992 341.177 88.5219 340.825 88.212C340.473 87.9021 340.3 87.6485 340.44 87.6485C340.729 87.6485 338.953 83.8153 338.482 83.4229C338.314 83.2824 338.187 83.0002 338.201 82.7961C338.251 82.0732 337.837 80.9623 337.517 80.9623C337.339 80.9623 337.233 80.82 337.28 80.646C337.416 80.154 334.765 74.2761 334.409 74.2761C334.234 74.2761 334.176 74.009 334.28 73.6827C334.437 73.1906 336.187 73.0811 344.538 73.0413C350.076 73.0149 355.769 72.8159 357.189 72.5991C361.19 71.9886 364.786 70.5987 366.071 69.1666C366.333 68.874 367.012 68.3102 367.579 67.9138C368.146 67.5174 368.567 66.9863 368.514 66.7336C368.462 66.4808 368.558 66.3776 368.728 66.5042C369.147 66.816 370.241 65.3132 369.912 64.8771C369.769 64.6865 369.847 64.6667 370.087 64.833C370.352 65.0161 370.616 64.8362 370.759 64.3776C370.888 63.9608 371.288 63.3653 371.647 63.0541C372.007 62.743 372.217 62.2259 372.115 61.9049C372.013 61.584 372.077 61.3214 372.257 61.3214C373.087 61.3214 374.113 57.3209 374.186 53.7994C374.261 50.1808 373.502 45.6572 372.895 46.1085C372.724 46.2356 372.616 46.1846 372.654 45.9951C372.692 45.8056 372.529 45.1805 372.291 44.6059C371.83 43.4888 368.971 41.4918 368.42 41.9016C368.238 42.037 368.089 41.9487 368.089 41.7053C368.089 41.3998 362.766 41.2627 350.9 41.2627H333.711L333.225 42.6209C332.957 43.3679 331.94 47.646 330.965 52.1279C329.99 56.6098 328.87 61.556 328.477 63.1196C328.083 64.6832 327.861 66.2759 327.983 66.6589C328.105 67.042 328.09 67.2166 327.949 67.0469C327.692 66.7376 326.134 73.1492 325.989 75.1119C325.946 75.6864 325.823 76.2506 325.715 76.3655C325.607 76.4805 325.16 78.1729 324.721 80.1265C324.283 82.0802 323.561 85.183 323.117 87.0217C321.536 93.5703 320.189 100.274 320.379 100.645C320.485 100.852 320.439 101.021 320.276 101.021C320.008 101.021 319.142 104.096 318.983 105.618C318.947 105.963 318.641 107.239 318.303 108.454C317.966 109.669 317.773 110.927 317.876 111.248C317.978 111.569 317.933 111.891 317.775 111.964C317.617 112.036 316.673 115.762 315.677 120.244C314.68 124.726 313.526 129.771 313.111 131.456L312.356 134.52L307.331 134.628C304.568 134.688 299.963 134.838 297.099 134.963C294.236 135.088 292.986 135.058 294.322 134.897L294.322 134.897ZM298.22 134.618C298.105 134.479 297.806 134.464 297.555 134.585C297.278 134.718 297.36 134.817 297.765 134.837C298.131 134.855 298.336 134.757 298.22 134.618V134.618ZM288.824 121.811C288.728 121.524 288.649 121.759 288.649 122.333C288.649 122.908 288.728 123.143 288.824 122.856C288.921 122.569 288.921 122.098 288.824 121.811ZM346.219 93.9169C346.219 93.6871 345.976 93.499 345.678 93.499C345.38 93.499 345.233 93.6871 345.351 93.9169C345.469 94.1468 345.713 94.3348 345.893 94.3348C346.072 94.3348 346.219 94.1468 346.219 93.9169ZM336.737 75.0335C336.626 74.7001 336.543 74.7992 336.527 75.286C336.512 75.7265 336.594 75.9733 336.709 75.8345C336.825 75.6956 336.837 75.3352 336.737 75.0335ZM397.825 63.7243C397.729 63.437 397.65 63.6721 397.65 64.2467C397.65 64.8213 397.729 65.0564 397.825 64.7691C397.922 64.4818 397.922 64.0116 397.825 63.7243ZM377.201 32.1847C376.581 32.092 375.565 32.092 374.945 32.1847C374.324 32.2775 374.832 32.3533 376.073 32.3533C377.314 32.3533 377.822 32.2775 377.201 32.1847ZM351.529 30.9235C350.153 30.8443 347.81 30.8439 346.322 30.9222C344.834 31.0007 345.959 31.0655 348.823 31.0661C351.687 31.0665 352.904 31.0024 351.529 30.9233V30.9235ZM368.176 30.5052C366.792 30.4259 364.526 30.4259 363.142 30.5052C361.758 30.5845 362.891 30.6494 365.659 30.6494C368.427 30.6494 369.56 30.5845 368.176 30.5052ZM373.736 30.5413C373.501 30.4268 373.033 30.4199 372.695 30.5256C372.357 30.6315 372.55 30.7252 373.122 30.7337C373.695 30.7416 373.971 30.6555 373.736 30.541V30.5413ZM202.129 134.287C202.049 134.196 201.251 134.005 200.355 133.861C199.459 133.717 196.998 133.054 194.887 132.387C192.776 131.72 191.047 131.301 191.044 131.455C191.041 131.61 190.924 131.527 190.784 131.272C190.363 130.506 188.281 129.382 187.861 129.694C187.605 129.885 187.568 129.794 187.755 129.431C187.963 129.026 187.879 128.951 187.443 129.153C187.089 129.316 186.934 129.26 187.06 129.015C187.25 128.643 186.792 128.421 186.102 128.552C185.959 128.58 185.842 128.439 185.842 128.239C185.842 128.04 185.217 127.379 184.454 126.771C183.69 126.163 183.065 125.425 183.065 125.133C183.065 124.84 182.716 124.569 182.289 124.53C181.862 124.492 181.453 124.242 181.379 123.976C181.306 123.71 180.952 123.19 180.593 122.82C180.234 122.45 179.941 121.937 179.941 121.679C179.941 120.984 178.715 119.774 178.382 120.139C178.223 120.312 178.207 120.217 178.345 119.928C178.492 119.621 178.371 119.298 178.056 119.153C177.758 119.015 177.598 118.741 177.699 118.544C177.8 118.347 177.578 117.818 177.205 117.369C176.832 116.92 176.618 116.443 176.73 116.309C176.841 116.175 176.724 116.065 176.469 116.065C176.215 116.065 176.098 115.955 176.21 115.821C176.5 115.471 175.773 113.14 175.374 113.14C175.19 113.14 175.126 112.972 175.232 112.767C175.337 112.561 175.212 111.668 174.954 110.782C174.696 109.895 174.375 108.277 174.241 107.185C174.107 106.093 173.873 105.2 173.722 105.2C173.57 105.2 173.479 101.58 173.519 97.1556C173.578 90.7049 173.747 88.2005 174.374 84.5144C174.803 81.9862 175.177 79.5415 175.205 79.0818C175.232 78.6222 175.344 78.152 175.452 78.0371C175.733 77.7411 177.926 70.0328 177.97 69.1876C177.99 68.8023 178.156 68.5981 178.339 68.7338C178.527 68.8742 178.575 68.6811 178.449 68.2852C178.327 67.9028 178.349 67.5899 178.499 67.5899C178.933 67.5899 179.976 64.6534 179.719 64.1535C179.589 63.8996 179.646 63.8186 179.849 63.9696C180.203 64.2326 181.445 61.617 181.445 60.6086C181.445 60.3314 181.564 60.1931 181.709 60.3012C181.985 60.5061 182.566 58.8622 182.431 58.2607C182.388 58.0713 182.514 58.0354 182.709 58.181C182.905 58.3266 183.065 58.2465 183.065 58.0031C183.065 57.7597 183.069 57.471 183.074 57.3616C183.079 57.2521 183.436 56.7041 183.867 56.1438C184.299 55.5835 184.88 54.6018 185.16 53.9623C185.44 53.3228 186.017 52.3427 186.443 51.7843C186.869 51.226 187.131 50.6001 187.025 50.3935C186.919 50.1869 186.961 50.0695 187.118 50.1326C187.275 50.1958 187.453 50.1184 187.514 49.9611C187.574 49.8036 188.628 48.4647 189.857 46.9856C191.085 45.5065 192.091 44.0839 192.091 43.8243C192.091 43.5647 192.261 43.3523 192.47 43.3523C192.96 43.3523 194.375 42.0139 194.457 41.4718C194.492 41.2419 194.67 41.0539 194.853 41.0539C195.035 41.0539 195.438 40.6778 195.746 40.2181C196.055 39.7584 196.225 39.586 196.124 39.835C196.022 40.084 196.152 40.2877 196.412 40.2877C196.672 40.2877 196.812 40.0617 196.724 39.7855C196.507 39.1042 198.068 38.6484 198.408 39.2935C198.56 39.5821 198.678 39.6113 198.681 39.3615C198.684 39.1201 198.491 38.6836 198.252 38.3913C198.014 38.0991 197.975 37.9107 198.165 37.9727C198.775 38.1705 200.093 37.4567 199.88 37.0435C199.768 36.8245 199.805 36.6947 199.962 36.7551C200.42 36.9306 202.505 35.7678 202.505 35.337C202.505 35.1215 202.651 35.0538 202.829 35.1867C203.111 35.3961 206.189 33.9026 206.67 33.323C206.766 33.2081 207.204 33.0674 207.645 33.0102C208.176 32.9414 208.363 33.069 208.199 33.3882C208.045 33.6889 208.104 33.7564 208.358 33.5677C208.582 33.4013 208.676 33.0939 208.569 32.8843C208.461 32.6748 209.003 32.3823 209.772 32.2342C210.6 32.0747 211.08 31.7895 210.95 31.5347C210.815 31.2726 210.901 31.2328 211.17 31.433C211.622 31.7694 215.347 30.8808 215.351 30.4356C215.352 30.2999 216.114 30.171 217.043 30.149C217.973 30.1271 219.008 29.9826 219.343 29.8279C220.014 29.5179 291.05 29.453 291.306 29.7622C291.394 29.868 290.971 31.7538 290.365 33.9527C289.759 36.1517 289.373 38.1789 289.506 38.4577C289.641 38.742 289.612 38.8158 289.439 38.6257C289.267 38.4369 288.897 39.1771 288.602 40.2973L288.074 42.3077L259.956 42.4047C242.352 42.4655 231.189 42.6627 230.102 42.9321C227.52 43.5723 224.032 45.1142 224.242 45.5228C224.343 45.7195 224.297 45.8386 224.14 45.7873C223.633 45.6225 222.291 46.3204 222.291 46.7484C222.291 46.9763 222.155 47.0611 221.988 46.9368C221.62 46.663 218.82 49.0375 218.82 49.6234C218.82 49.8518 218.7 49.9917 218.553 49.9342C218.162 49.7813 216.39 51.5423 216.39 52.0838C216.39 52.338 216.213 52.546 215.997 52.546C215.22 52.546 212.092 57.6352 212.499 58.2389C212.634 58.4405 212.598 58.4595 212.418 58.281C212.021 57.8872 209.33 62.8441 209.627 63.4227C209.742 63.6462 209.685 63.829 209.502 63.829C209.074 63.829 208.388 66.1649 208.695 66.5768C208.822 66.7481 208.756 66.7711 208.547 66.628C208.329 66.4782 208.01 66.9377 207.797 67.7101C207.594 68.4485 206.785 71.2152 206 73.8584C203.127 83.5327 202.058 90.4334 202.049 99.3497C202.041 106.557 202.259 108.029 203.902 111.907C204.287 112.815 204.52 113.558 204.421 113.558C204.322 113.558 204.592 113.981 205.021 114.498C205.451 115.015 205.931 115.387 206.089 115.324C206.246 115.26 206.29 115.374 206.186 115.576C205.927 116.081 207.519 117.822 207.88 117.427C208.04 117.253 208.063 117.336 207.931 117.611C207.794 117.899 207.993 118.306 208.396 118.566C208.783 118.816 209.1 118.883 209.1 118.716C209.1 118.549 209.311 118.76 209.568 119.183C209.826 119.607 210.216 119.82 210.436 119.657C210.656 119.493 210.836 119.512 210.836 119.7C210.836 120.224 212.529 120.98 214.805 121.471C217.615 122.078 241.384 122.077 241.384 121.47C241.384 121.209 241.682 121.138 242.101 121.298C243.133 121.692 245.33 119.807 246.363 117.642C247.314 115.646 248.455 111.221 248.164 110.654C248.06 110.452 248.109 110.223 248.273 110.146C248.715 109.938 250.497 103.201 250.241 102.703C250.12 102.468 250.162 102.275 250.334 102.275C250.741 102.275 251.547 99.0388 251.273 98.5053C251.157 98.2802 251.208 98.096 251.385 98.096C251.562 98.096 251.976 96.9207 252.304 95.4842C252.633 94.0477 253.292 91.497 253.767 89.8159C254.243 88.1349 254.546 86.4895 254.441 86.1594C254.28 85.6547 252.414 85.5583 242.697 85.5529C236.342 85.5498 231.315 85.4084 231.524 85.2395C231.734 85.0706 232.644 82.3021 233.547 79.0872C234.449 75.8723 235.371 73.1014 235.596 72.9297C236.066 72.5698 283.171 72.4837 283.469 72.8422C283.578 72.9728 283.299 74.8063 282.849 76.9166C281.781 81.9306 279.194 94.3404 277.302 103.529C276.473 107.551 275.484 112.152 275.104 113.753C274.725 115.354 274.489 116.811 274.582 116.991C274.674 117.172 274.575 117.319 274.362 117.319C274.149 117.319 274.062 117.491 274.17 117.701C274.278 117.911 274.236 118.146 274.076 118.224C273.916 118.301 273.252 119.579 272.599 121.065C271.946 122.551 270.913 124.421 270.305 125.222C269.696 126.022 269.278 126.833 269.376 127.023C269.474 127.213 269.422 127.317 269.261 127.254C268.842 127.09 267.052 128.856 267.315 129.173C267.436 129.319 267.282 129.438 266.974 129.438C266.665 129.438 266.253 129.767 266.059 130.169C265.864 130.571 265.7 130.755 265.694 130.576C265.678 130.088 263.601 131.482 263.601 131.981C263.601 132.218 263.463 132.31 263.294 132.184C263.126 132.059 262.11 132.32 261.037 132.765C257.305 134.31 254.527 134.452 228.052 134.452C213.874 134.452 202.208 134.378 202.129 134.287L202.129 134.287ZM273.211 116.405C273.1 116.071 273.017 116.17 273.001 116.657C272.986 117.098 273.068 117.344 273.183 117.206C273.299 117.067 273.311 116.706 273.211 116.405ZM174.617 101.752C174.52 101.465 174.441 101.7 174.441 102.275C174.441 102.849 174.52 103.084 174.617 102.797C174.713 102.51 174.713 102.04 174.617 101.752ZM201.708 100.081C201.626 99.5637 201.558 99.9868 201.558 101.021C201.558 102.055 201.626 102.478 201.708 101.961C201.791 101.444 201.791 100.598 201.708 100.081ZM277.587 94.3348C277.687 93.8751 277.627 93.499 277.454 93.499C277.281 93.499 277.139 93.8751 277.139 94.3348C277.139 94.7945 277.199 95.1706 277.272 95.1706C277.345 95.1706 277.487 94.7945 277.587 94.3348ZM174.734 92.6632C174.734 92.4334 174.665 92.2454 174.581 92.2454C174.496 92.2454 174.331 92.4334 174.213 92.6632C174.095 92.8931 174.164 93.0811 174.366 93.0811C174.568 93.0811 174.734 92.8931 174.734 92.6632ZM180.982 68.4256C180.982 68.1958 180.826 68.0077 180.635 68.0077C180.444 68.0077 180.288 68.1958 180.288 68.4256C180.288 68.6554 180.444 68.8435 180.635 68.8435C180.826 68.8435 180.982 68.6554 180.982 68.4256ZM213.613 52.9636C213.613 52.7338 213.544 52.5458 213.46 52.5458C213.376 52.5458 213.21 52.7338 213.092 52.9636C212.974 53.1935 213.043 53.3816 213.245 53.3816C213.448 53.3816 213.613 53.1935 213.613 52.9636ZM272.887 41.3673C265.488 41.3043 253.382 41.3043 245.984 41.3673C238.585 41.4304 244.638 41.4819 259.435 41.4819C274.232 41.4819 280.285 41.4304 272.887 41.3673ZM205.455 36.248C205.573 36.0182 205.417 35.8302 205.108 35.8302C204.799 35.8302 204.643 36.0182 204.761 36.248C204.879 36.4779 205.035 36.6659 205.108 36.6659C205.181 36.6659 205.337 36.4779 205.455 36.248ZM206.323 35.228C206.323 35.1266 206.167 34.9275 205.976 34.7854C205.785 34.6434 205.629 34.7263 205.629 34.9697C205.629 35.2131 205.785 35.4123 205.976 35.4123C206.167 35.4123 206.323 35.3293 206.323 35.228ZM290.33 31.6512C290.33 31.4214 290.174 31.2333 289.983 31.2333C289.792 31.2333 289.636 31.4214 289.636 31.6512C289.636 31.8811 289.792 32.0691 289.983 32.0691C290.174 32.0691 290.33 31.8811 290.33 31.6512ZM218.82 31.2334C218.82 31.0035 218.655 30.8155 218.452 30.8155C218.25 30.8155 218.181 31.0035 218.299 31.2334C218.417 31.4632 218.583 31.6513 218.667 31.6513C218.751 31.6513 218.82 31.4632 218.82 31.2334ZM225.589 31.0271C225.78 30.947 225.194 30.8666 224.288 30.8485C223.381 30.8303 222.639 30.9658 222.639 31.1494C222.639 31.4561 224.778 31.3674 225.589 31.0272V31.0271ZM220.462 30.563C220.346 30.4242 220.047 30.4093 219.796 30.53C219.52 30.6634 219.602 30.7624 220.006 30.7824C220.372 30.8006 220.577 30.7017 220.462 30.563V30.563ZM429.706 133.795C428.751 133.474 427.775 133.297 427.536 133.401C427.297 133.505 427.102 133.426 427.102 133.226C427.102 132.756 425.035 131.884 424.632 132.184C424.463 132.309 424.325 132.251 424.325 132.053C424.325 131.691 421.3 129.689 420.711 129.662C420.537 129.654 419.939 129.134 419.382 128.508C418.825 127.882 418.257 127.412 418.118 127.464C417.98 127.515 417.328 126.806 416.67 125.887C416.012 124.968 415.143 123.893 414.739 123.498C414.335 123.103 413.319 121.551 412.482 120.051C411.645 118.551 410.834 117.322 410.679 117.321C410.525 117.32 410.495 117.131 410.613 116.901C410.731 116.671 410.653 116.483 410.44 116.483C410.226 116.483 410.163 116.266 410.299 116.002C410.434 115.737 410.326 115.314 410.059 115.062C409.791 114.809 409.543 114.32 409.507 113.976C409.404 112.971 408.493 110.19 408.331 110.385C408.25 110.483 408.153 110.156 408.116 109.658C408.078 109.16 407.808 107.342 407.515 105.618C406.027 96.8632 405.809 89.086 406.784 79.4998C407.705 70.4405 410.009 60.454 411.77 57.8877C412.041 57.493 412.179 56.7878 412.078 56.3206C411.976 55.8534 412.032 55.4711 412.202 55.4711C412.372 55.4711 412.887 54.5778 413.347 53.4861C413.807 52.3943 414.512 51.1429 414.915 50.705C415.317 50.2672 415.647 49.679 415.647 49.3981C415.647 49.1171 415.885 48.6493 416.176 48.3586C416.467 48.0678 416.628 47.7374 416.534 47.6243C416.44 47.5112 416.908 46.8969 417.575 46.2592C418.355 45.5132 418.629 45.0236 418.345 44.8859C418.052 44.7439 418.039 44.6608 418.307 44.6389C418.529 44.6208 419.241 43.9947 419.887 43.2478C421.829 41.0052 423.916 39.0511 426.076 37.4521C427.2 36.6203 428.007 35.791 427.871 35.6091C427.734 35.4272 427.797 35.3978 428.01 35.5438C428.368 35.79 431.224 34.39 431.615 33.7762C431.71 33.6265 432.023 33.5217 432.309 33.5435C432.596 33.5653 432.986 33.4554 433.177 33.2993C433.767 32.8169 436.87 31.7365 439.599 31.0634C441.031 30.7102 442.749 30.2837 443.418 30.1157C444.086 29.9476 458.758 29.7494 476.022 29.6752C499.706 29.5735 507.503 29.661 507.785 30.0303C508.061 30.3923 508.031 30.4327 507.67 30.1846C507.296 29.9276 507.227 30.0597 507.377 30.7485C507.536 31.4833 507.371 31.7178 506.477 32.0298C505.874 32.2398 505.655 32.4286 505.989 32.4494C506.784 32.4987 506.759 32.9237 505.732 36.8216C505.256 38.6254 504.929 40.2216 505.004 40.3686C505.08 40.5156 494.417 40.6359 481.309 40.6359C458.891 40.6359 457.348 40.683 455.318 41.4293C454.085 41.8824 453.253 42.4029 453.376 42.643C453.495 42.8743 453.437 42.9484 453.248 42.8077C452.742 42.4311 450.867 43.1616 450.964 43.698C451.009 43.9509 450.815 44.0511 450.533 43.9207C450.242 43.7864 449.926 43.9734 449.806 44.3512C449.689 44.7185 449.473 44.9298 449.327 44.8209C448.659 44.324 441.999 50.8372 441.984 52.002C441.98 52.1862 441.753 52.4895 441.476 52.676C441.199 52.8625 441.078 53.2206 441.207 53.4718C441.344 53.7383 441.282 53.8098 441.059 53.6434C440.639 53.3314 439.835 54.7796 440.19 55.2071C440.31 55.3523 440.23 55.471 440.011 55.471C439.52 55.471 437.079 61.6434 437.356 62.1839C437.467 62.3991 437.412 62.5752 437.235 62.5752C436.875 62.5752 436.009 66.1099 435.46 69.821C435.167 71.7975 435.191 72.373 435.588 72.8507C436.002 73.3492 440.727 73.4403 466.167 73.4403C494.686 73.4403 496.244 73.4785 496.01 74.1716C495.875 74.5739 495.611 75.4671 495.424 76.1566C495.237 76.8461 494.933 77.7897 494.75 78.2535C494.566 78.7172 494.389 79.5164 494.357 80.0295C494.325 80.5426 494.159 80.9624 493.988 80.9624C493.818 80.9624 493.768 81.2444 493.878 81.5892C493.988 81.9339 493.943 82.216 493.779 82.216C493.615 82.216 493.382 82.6861 493.263 83.2607L493.045 84.3055H463.601H434.156L433.753 85.3699C433.309 86.543 433.185 95.7612 433.617 95.4394C433.764 95.3302 433.824 95.9992 433.751 96.926C433.604 98.7792 435.022 106.551 435.449 106.233C435.596 106.124 435.634 106.409 435.535 106.866C435.421 107.393 435.559 107.792 435.913 107.955C436.22 108.097 436.385 108.381 436.279 108.586C436.016 109.099 437.682 112.384 438.007 111.992C438.151 111.819 438.238 111.865 438.202 112.095C438.048 113.063 438.753 114.303 440.524 116.183C441.56 117.281 442.581 118.052 442.793 117.894C443.026 117.721 443.08 117.798 442.93 118.09C442.711 118.517 442.925 118.652 443.639 118.537C443.761 118.517 443.958 118.69 444.076 118.921C444.195 119.152 444.524 119.403 444.808 119.479C445.092 119.555 445.481 119.831 445.673 120.092C445.864 120.353 447.052 120.97 448.312 121.463C450.55 122.339 451.068 122.359 470.814 122.34C489.972 122.322 491.016 122.359 490.843 123.058C490.742 123.464 490.336 125.489 489.94 127.557C489.544 129.626 489.062 132.023 488.869 132.885L488.517 134.452L459.979 134.415C436.698 134.384 431.122 134.27 429.706 133.795H429.706ZM492.941 79.6042C492.845 79.3169 492.766 79.5519 492.766 80.1265C492.766 80.7011 492.845 80.9362 492.941 80.6489C493.037 80.3616 493.037 79.8915 492.941 79.6042ZM449.225 30.563C449.11 30.4242 448.81 30.4093 448.56 30.53C448.283 30.6634 448.365 30.7624 448.769 30.7824C449.135 30.8006 449.34 30.7017 449.225 30.563V30.563ZM491.609 30.5022C484.034 30.4393 471.537 30.4393 463.838 30.5021C456.139 30.5648 462.337 30.6163 477.611 30.6163C492.885 30.6164 499.184 30.565 491.609 30.5023V30.5022ZM529.507 134.015C528.839 133.82 527.199 133.159 525.863 132.546C524.526 131.933 523.159 131.413 522.825 131.39C522.491 131.367 522.218 131.219 522.218 131.062C522.218 130.584 519.53 129.056 519.226 129.361C519.07 129.518 519.14 129.334 519.382 128.952C519.679 128.483 519.703 128.171 519.457 127.987C519.257 127.839 519.093 127.925 519.093 128.18C519.093 128.436 518.548 128.144 517.882 127.532C517.215 126.92 516.748 126.269 516.842 126.085C516.937 125.901 516.74 125.799 516.405 125.858C516.044 125.922 515.546 125.473 515.183 124.756C514.846 124.09 514.412 123.663 514.22 123.806C514.027 123.95 513.912 123.817 513.965 123.514C514.017 123.209 513.853 123.012 513.6 123.075C513.347 123.138 513.231 123.014 513.342 122.798C513.452 122.583 513.112 122 512.586 121.503C512.06 121.006 511.855 120.741 512.129 120.913C512.404 121.085 512.091 120.3 511.435 119.168C510.779 118.036 510.123 117.047 509.979 116.97C509.835 116.893 509.805 116.657 509.913 116.447C510.021 116.237 509.934 116.065 509.721 116.065C509.507 116.065 509.426 115.883 509.54 115.662C509.654 115.44 509.451 114.546 509.089 113.677C508.727 112.807 508.328 111.578 508.201 110.946C508.075 110.314 507.809 109.797 507.611 109.797C507.412 109.797 507.334 109.633 507.437 109.433C507.539 109.233 507.405 108.058 507.138 106.821C505.987 101.491 505.068 87.4464 505.739 85.4352C505.876 85.0223 505.908 83.8216 505.809 82.767C505.699 81.5874 505.747 81.0722 505.934 81.4283C506.135 81.8103 506.241 81.3678 506.245 80.1265C506.262 74.5118 509.287 61.5173 511.995 55.4251C512.262 54.8253 512.394 54.2313 512.289 54.1051C512.184 53.9789 512.407 53.758 512.783 53.6141C513.256 53.4335 513.413 53.098 513.29 52.5312C513.191 52.0769 513.284 51.7099 513.499 51.7099C513.712 51.7099 513.886 51.5316 513.886 51.3136C513.886 51.0956 514.277 50.4099 514.754 49.79C515.232 49.17 515.622 48.4282 515.622 48.1416C515.622 47.855 515.866 47.5076 516.165 47.3697C516.463 47.2319 516.608 46.925 516.486 46.6879C516.364 46.4507 516.447 46.3083 516.67 46.3715C516.893 46.4347 517.256 46.1131 517.477 45.6569C517.698 45.2007 518.158 44.5736 518.5 44.2634C518.842 43.9531 519.388 43.3684 519.715 42.9641C520.041 42.5598 521.195 41.3707 522.279 40.3218C523.362 39.2728 524.143 38.2875 524.014 38.1322C523.885 37.977 523.936 37.9087 524.127 37.9806C524.564 38.1451 526.73 36.6078 526.73 36.1333C526.73 35.9394 526.887 35.897 527.078 36.0392C527.269 36.1811 527.425 36.0982 527.425 35.8549C527.425 35.6115 527.542 35.4532 527.685 35.5033C528.127 35.6576 530.202 34.6408 530.202 34.2699C530.202 33.9303 530.953 33.7589 532.531 33.7385C532.952 33.7337 533.421 33.4834 533.572 33.1837C533.948 32.4392 538.649 30.9359 542.957 30.1832C545.889 29.6708 551.818 29.5618 576.756 29.5618H607L606.767 30.711C606.639 31.3431 606.503 32.2363 606.466 32.696C606.429 33.1557 606.191 33.7949 605.938 34.1165C605.684 34.438 605.552 35.0492 605.645 35.4746C605.737 35.9 605.694 36.2481 605.549 36.2481C605.403 36.2481 605.048 37.1413 604.758 38.2331L604.232 40.218L580.321 40.427C558.062 40.6215 556.291 40.6899 554.675 41.4175C551.058 43.0461 548.272 44.7226 548.487 45.1408C548.611 45.3835 548.538 45.445 548.319 45.282C548.106 45.1232 547.626 45.3605 547.253 45.8095C546.88 46.2584 546.488 46.5204 546.381 46.3917C546.274 46.263 546.088 46.4657 545.968 46.8421C545.848 47.2184 545.624 47.4325 545.47 47.3178C545.201 47.118 540.982 52.1148 541.055 52.5458C541.075 52.6608 540.674 53.2955 540.166 53.9565C539.657 54.6175 539.325 55.3227 539.428 55.5236C539.531 55.7245 539.441 55.8889 539.227 55.8889C539.014 55.8889 538.936 56.077 539.054 56.3068C539.172 56.5366 539.095 56.7247 538.884 56.7247C538.415 56.7247 537.476 59.2822 537.75 59.8148C537.858 60.025 537.797 60.0863 537.616 59.951C537.434 59.8158 537.058 59.8778 536.781 60.089C536.412 60.37 536.397 60.4746 536.726 60.4793C537.237 60.4872 537.157 61.7095 536.598 62.4275C535.931 63.2833 534.549 71.7776 534.952 72.5456C535.28 73.1715 537.929 73.2399 565.284 73.329C592.751 73.4184 595.283 73.4844 595.577 74.1176C595.818 74.6348 595.786 74.7252 595.453 74.477C595.122 74.2312 595.06 74.3892 595.212 75.0879C595.324 75.6062 595.319 75.9129 595.2 75.7694C594.901 75.4096 593.35 80.6227 593.555 81.2975C593.646 81.5967 593.565 81.7267 593.377 81.5862C593.188 81.4458 593.034 81.7047 593.034 82.1615C593.034 82.6183 592.788 83.2876 592.488 83.6488C592.001 84.2353 588.838 84.3055 562.878 84.3055C540.734 84.3055 533.713 84.4249 533.396 84.8069C532.781 85.5475 532.862 95.8104 533.519 100.331C534.108 104.386 535.264 108.543 535.802 108.543C535.99 108.543 536.056 108.716 535.947 108.927C535.839 109.139 535.997 109.609 536.299 109.972C536.6 110.335 536.719 110.638 536.562 110.645C536.405 110.652 536.554 110.852 536.892 111.089C537.23 111.326 537.415 111.698 537.304 111.915C537.192 112.132 537.344 112.422 537.642 112.56C537.939 112.697 538.084 113.001 537.964 113.234C537.845 113.467 538.314 114.284 539.008 115.049C539.701 115.814 540.269 116.314 540.269 116.16C540.269 116.005 540.512 116.297 540.809 116.808C541.107 117.319 541.575 117.737 541.851 117.737C542.126 117.737 542.352 117.922 542.352 118.149C542.352 118.709 546.461 121.171 546.878 120.861C547.062 120.724 547.212 120.789 547.212 121.006C547.212 122.126 550.818 122.334 570.277 122.334C586.826 122.334 590.257 122.431 590.257 122.898C590.257 123.209 589.859 125.4 589.372 127.767C588.885 130.135 588.571 132.335 588.674 132.657C588.776 132.979 588.706 133.127 588.517 132.987C588.328 132.846 588.174 133.119 588.174 133.592V134.452L559.448 134.41C543.649 134.387 530.176 134.209 529.508 134.015L529.507 134.015ZM534.02 109.195C534.02 109.093 533.864 108.894 533.673 108.752C533.482 108.61 533.326 108.693 533.326 108.936C533.326 109.18 533.482 109.379 533.673 109.379C533.864 109.379 534.02 109.296 534.02 109.195ZM507.868 101.752C507.771 101.465 507.693 101.7 507.693 102.275C507.693 102.849 507.772 103.084 507.868 102.797C507.964 102.51 507.964 102.04 507.868 101.752ZM507.883 78.7732C507.8 78.2534 507.729 78.5803 507.725 79.4997C507.721 80.419 507.789 80.8443 507.876 80.4448C507.963 80.0452 507.966 79.293 507.883 78.7732H507.883ZM537.318 57.1425C537.436 56.9127 537.367 56.7246 537.165 56.7246C536.963 56.7246 536.797 56.9127 536.797 57.1425C536.797 57.3724 536.866 57.5604 536.95 57.5604C537.035 57.5604 537.2 57.3724 537.318 57.1425ZM532.285 34.9943C532.285 34.7645 532.216 34.5764 532.131 34.5764C532.047 34.5764 531.882 34.7645 531.764 34.9943C531.646 35.2242 531.715 35.4122 531.917 35.4122C532.119 35.4122 532.285 35.2242 532.285 34.9943ZM592.079 30.5021C584.203 30.4396 571.316 30.4396 563.44 30.5021C555.564 30.5647 562.008 30.616 577.76 30.616C593.511 30.616 599.955 30.5647 592.079 30.5021ZM29.184 127.681C28.8429 127.251 28.3892 127.03 28.1758 127.188C27.9623 127.347 27.8735 127.307 27.9784 127.099C28.215 126.631 27.577 125.926 26.7675 125.763C26.4337 125.695 25.7685 125.168 25.2892 124.591C24.8099 124.014 24.2707 123.651 24.0909 123.785C23.9112 123.919 23.5874 123.631 23.3714 123.145C23.1555 122.659 22.8947 122.363 22.792 122.487C22.5518 122.776 21.8477 121.918 21.5511 120.975C21.4247 120.573 21.1136 120.244 20.86 120.244C20.6063 120.244 19.795 119.5 19.057 118.59C18.319 117.68 17.5453 117.058 17.3376 117.207C17.13 117.357 17.1775 117.157 17.4431 116.763C17.8557 116.15 17.8557 116.076 17.4431 116.254C16.815 116.524 14.6729 114.173 14.6084 113.143C14.5679 112.494 14.4631 112.44 14.0438 112.848C13.6686 113.213 13.5951 113.216 13.7725 112.86C13.9121 112.58 13.624 112 13.0981 111.502C12.5932 111.024 12.2904 110.633 12.4253 110.633C12.5601 110.633 12.425 110.337 12.125 109.976C11.8249 109.615 11.5795 109.075 11.5795 108.776C11.5795 108.478 11.0445 107.792 10.3907 107.253C9.73686 106.713 9.27745 106.125 9.36976 105.945C9.46213 105.765 9.37238 105.618 9.16999 105.618C8.96779 105.618 8.82717 105.477 8.85748 105.305C8.97464 104.638 8.3642 103.547 8.01809 103.805C7.81768 103.954 7.74273 103.902 7.85155 103.69C8.07321 103.259 6.5847 100.069 6.31377 100.396C6.21878 100.51 6.14098 100.325 6.14098 99.9838C6.14098 99.1656 4.90598 96.4246 4.5373 96.4246C4.37852 96.4246 4.33793 96.2507 4.44703 96.038C4.675 95.594 3.95808 93.4994 3.57812 93.4994C3.43906 93.4994 3.34174 93.2643 3.36186 92.977C3.38194 92.6897 2.9089 90.5742 2.31053 88.2758C1.71216 85.9774 1.04115 82.7805 0.819379 81.1716C0.59761 79.5627 0.338844 77.9643 0.244353 77.6196C0.0268865 76.826 -0.104416 64.6684 0.107237 64.9234C0.315664 65.1744 1.50136 56.6236 1.30984 56.2506C1.22797 56.0911 1.30722 55.8976 1.48604 55.8205C1.6648 55.7434 1.86103 55.1162 1.92211 54.4267C1.98311 53.7371 2.12202 53.0789 2.23063 52.964C2.62137 52.5506 3.60402 49.1402 3.43005 48.8014C3.33218 48.6108 3.44776 48.3645 3.68674 48.2541C4.11433 48.0565 5.55684 43.86 5.40748 43.2481C5.36536 43.0757 5.48317 42.9347 5.66918 42.9347C6.10502 42.9347 7.10796 40.6163 6.82137 40.2714C6.70172 40.1273 6.77271 40.0094 6.97901 40.0094C7.48232 40.0094 9.51216 35.9972 9.21221 35.5953C9.08219 35.4211 9.16327 35.4081 9.39239 35.5662C9.85377 35.8849 10.6584 34.4431 10.276 33.9828C10.1453 33.8255 10.2786 33.8081 10.5735 33.944C11.1135 34.1934 12.1474 32.3257 11.9582 31.4426C11.909 31.2127 11.9674 31.1428 12.0868 31.2872C12.2067 31.4315 12.7665 30.994 13.3307 30.3148C14.3852 29.0454 14.6637 28.4484 13.9557 28.9751C13.7017 29.1641 13.6494 29.0893 13.8131 28.7705C14.0138 28.3795 14.1844 28.3809 14.5806 28.7768C14.901 29.0969 15.0505 29.1172 14.9836 28.8313C14.9251 28.5814 15.5021 27.572 16.2658 26.5883C17.0295 25.6045 17.4349 24.96 17.1668 25.156C16.8327 25.4001 16.7583 25.3583 16.9304 25.023C17.0685 24.7539 17.2933 24.6169 17.4298 24.7184C17.5663 24.82 18.4433 24.081 19.3786 23.0763C20.3138 22.0715 21.2106 21.3472 21.3713 21.4668C21.5321 21.5864 21.6412 21.5292 21.6139 21.3398C21.489 20.4743 21.6866 19.9506 22.1381 19.9506C22.4086 19.9506 22.9669 19.4335 23.3789 18.8014C23.7908 18.1694 24.0212 17.9024 23.8908 18.2082C23.7604 18.514 24.2044 18.3297 24.8775 17.7985C25.5506 17.2674 26.0112 16.641 25.901 16.4067C25.7909 16.1724 25.8172 16.1064 25.9595 16.26C26.1019 16.4137 27.1295 15.8965 28.2432 15.1108C29.3568 14.3251 30.4127 13.6822 30.5896 13.6822C30.7664 13.6822 31.3649 13.2064 31.9197 12.6248C32.4886 12.0283 33.2018 11.6496 33.5556 11.7561C34.0932 11.9179 34.118 11.8483 33.7292 11.2707C33.4134 10.8016 33.4043 10.6897 33.6992 10.9028C33.9322 11.0712 34.6352 10.8723 35.2613 10.4607C35.8874 10.0492 36.7902 9.60793 37.2675 9.48017C37.7448 9.35239 38.0924 9.0093 38.04 8.71769C37.9875 8.42608 38.0802 8.28848 38.2461 8.41188C38.6999 8.74948 41.8359 7.20718 41.5271 6.7983C41.38 6.60348 41.4353 6.5648 41.65 6.71239C42.1032 7.02372 45.7377 5.63093 45.4321 5.26305C45.3196 5.12769 45.6052 5.10381 46.0668 5.20998C46.5283 5.31612 47.0116 5.19734 47.1407 4.94584C47.2698 4.69435 47.7567 4.48861 48.2228 4.48861C48.6888 4.48861 49.0701 4.28944 49.0701 4.04604C49.0701 3.80263 49.2183 3.71376 49.3995 3.84851C49.7449 4.10552 52.936 3.27808 53.2358 2.85378C53.3313 2.71874 53.878 2.58506 54.4508 2.55691C55.0235 2.5288 58.0697 2.14029 61.2199 1.69365C64.3702 1.24698 68.5622 0.914968 70.5355 0.955796C72.6437 0.999388 73.9321 0.881706 73.6597 0.670426C73.3913 0.462241 73.7076 0.442558 74.4111 0.623671C75.0794 0.795734 76.5244 0.936516 77.6223 0.936516C78.7202 0.936516 79.6184 1.05402 79.6183 1.19769C79.6182 1.34126 79.9696 1.46401 80.3992 1.47026C80.8288 1.47658 83.5235 1.99891 86.3873 2.63114C89.2512 3.26337 91.9459 3.79889 92.3755 3.82121C92.805 3.84348 93.1565 4.0229 93.1565 4.21987C93.1565 4.41684 93.3908 4.46977 93.6772 4.33755C93.9636 4.2052 94.1979 4.26031 94.1979 4.4601C94.1979 4.78029 97.2745 5.92367 98.19 5.94371C98.3809 5.94845 98.6152 6.0492 98.7107 6.16873C99.1175 6.67838 100.872 7.40482 101.167 7.18562C101.343 7.05421 101.488 7.16603 101.488 7.43394C101.488 7.70194 101.722 7.81299 102.008 7.68068C102.295 7.54833 102.529 7.63345 102.529 7.86958C102.529 8.10577 102.685 8.1828 102.876 8.04076C103.067 7.89877 103.223 8.09872 103.223 8.48514C103.223 9.09256 103.303 9.11007 103.811 8.61435C104.21 8.22464 104.315 8.20823 104.137 8.56316C103.903 9.03264 104.5 9.30468 105.393 9.13503C105.536 9.10786 105.653 9.28475 105.653 9.52808C105.653 9.77149 105.796 9.86436 105.971 9.73445C106.146 9.60446 106.341 9.6733 106.405 9.88732C106.469 10.1013 106.756 10.3376 107.042 10.4123C107.328 10.487 107.642 10.6741 107.74 10.828C107.837 10.982 108.143 11.17 108.42 11.2459C108.697 11.3217 109.237 11.7176 109.62 12.1255C110.002 12.5333 110.524 12.7705 110.78 12.6526C111.035 12.5346 111.155 12.6106 111.047 12.8212C110.858 13.19 112.149 13.9349 112.683 13.7651C112.826 13.7196 112.943 13.8655 112.943 14.0894C112.943 14.5302 115.033 15.9985 115.46 15.8577C115.603 15.8104 115.72 15.9507 115.72 16.1696C115.72 16.7637 118.713 19.1289 119.03 18.785C119.18 18.6217 119.201 18.7034 119.076 18.9666C118.867 19.4063 119.571 20.0234 120.407 20.1329C120.598 20.1578 120.7 20.5502 120.634 21.0047C120.568 21.4593 120.634 21.6897 120.78 21.5168C120.925 21.3439 121.358 21.5326 121.74 21.9347C122.24 22.4616 122.354 22.4912 122.146 22.04C121.987 21.6953 122.274 21.871 122.784 22.4305C123.485 23.1993 123.605 23.5399 123.274 23.8249C122.981 24.0781 123.094 24.1342 123.618 23.9958C124.048 23.8824 124.325 23.935 124.234 24.1127C123.992 24.5832 125.27 25.8603 125.611 25.4886C125.769 25.3157 125.801 25.3806 125.682 25.6326C125.441 26.1419 127.26 28.4456 127.634 28.1053C127.764 27.9872 127.798 28.0093 127.709 28.1544C127.461 28.5596 128.213 30.0325 128.543 29.7873C128.847 29.561 129.496 30.3088 129.617 31.0247C129.743 31.7681 130.53 32.9072 130.742 32.6523C130.855 32.5161 130.86 32.8074 130.754 33.2996C130.647 33.7918 130.696 34.1642 130.864 34.1272C131.518 33.9827 132.036 34.1778 132.036 34.5687C132.036 34.794 132.576 35.9938 133.235 37.2347C133.895 38.4756 134.337 39.6075 134.219 39.7501C134.1 39.8927 134.183 40.0094 134.401 40.0094C134.62 40.0094 135.118 40.7616 135.508 41.6809C135.897 42.6003 136.343 43.3525 136.498 43.3525C136.654 43.3525 136.783 43.5875 136.785 43.8749C136.788 44.1622 137.126 45.2801 137.537 46.3593C137.948 47.4384 138.285 48.4273 138.285 48.5568C138.285 48.6863 121.234 48.7874 100.394 48.7814C65.1737 48.7719 62.4575 48.8207 61.8498 49.4827C61.4902 49.8744 61.2748 50.4419 61.371 50.7437C61.4671 51.0455 61.3854 51.2924 61.1891 51.2924C60.9929 51.2924 60.929 51.4804 61.047 51.7103C61.1649 51.9401 61.1198 52.1282 60.9466 52.1282C60.5841 52.1282 59.3691 55.1965 59.3691 56.1119C59.3691 56.4491 59.2297 56.725 59.0593 56.725C58.889 56.725 58.8461 56.913 58.9641 57.1429C59.082 57.3727 59.004 57.5608 58.7905 57.5608C58.5771 57.5608 58.499 57.7488 58.617 57.9786C58.7349 58.2085 58.6814 58.3965 58.4978 58.3965C58.1862 58.3965 57.3123 60.5992 57.2544 61.5307C57.2401 61.7606 57.0093 62.1551 56.7415 62.4076C56.4504 62.6819 56.3672 63.0861 56.5347 63.4124C56.7328 63.7982 56.6802 63.8579 56.3552 63.6162C56.0214 63.3678 55.9562 63.4645 56.1171 63.9695C56.239 64.352 56.2162 64.6649 56.0663 64.6649C55.7261 64.6649 53.8149 69.4254 53.8149 70.273C53.8149 70.6159 53.6581 70.7799 53.4666 70.6374C53.2509 70.4769 53.2138 70.678 53.3692 71.1654C53.5072 71.5983 53.5081 71.8176 53.3706 71.6527C53.083 71.3065 50.4497 78.0877 50.6884 78.5597C50.7755 78.7321 50.6722 78.8732 50.4587 78.8732C50.2452 78.8732 50.1602 79.0477 50.2697 79.261C50.3792 79.4743 50.1621 79.766 49.7872 79.9092C49.3956 80.0588 49.1831 80.4129 49.2878 80.7413C49.388 81.0557 49.2104 81.79 48.893 82.3731C48.5757 82.9562 48.4317 83.6586 48.5732 83.934C48.7476 84.2738 48.6824 84.3249 48.3705 84.0928C48.0309 83.8401 47.9726 83.9447 48.1473 84.4927C48.3106 85.005 48.2443 85.1702 47.9335 85.0266C47.6728 84.9062 47.4554 85.1506 47.4171 85.6069C47.2672 87.3948 47.2054 87.6489 46.9209 87.6489C46.5905 87.6489 45.9197 89.5392 45.8457 90.6786C45.8196 91.0808 45.666 91.4099 45.5044 91.4099C45.3428 91.4099 45.3072 91.5979 45.4252 91.8278C45.5431 92.0576 45.465 92.2457 45.2516 92.2457C45.0381 92.2457 44.96 92.4337 45.078 92.6635C45.196 92.8934 45.1573 93.0814 44.992 93.0814C44.687 93.0814 42.5563 98.2083 42.391 99.3398C42.3414 99.6791 42.1042 100.211 41.8638 100.523C41.6234 100.834 41.5303 101.291 41.6571 101.538C41.7838 101.784 41.7304 101.869 41.5385 101.727C41.1998 101.475 40.1255 104.643 40.3148 105.336C40.3665 105.525 40.2652 105.573 40.0895 105.443C39.7101 105.16 39.2624 106.363 39.5432 106.91C39.6506 107.119 39.5638 107.29 39.3504 107.29C39.1369 107.29 39.0518 107.464 39.1613 107.678C39.2709 107.891 39.0371 108.189 38.642 108.34C38.2469 108.491 37.9851 108.833 38.0603 109.101C38.1355 109.369 37.994 110.175 37.746 110.893C37.498 111.611 37.393 112.316 37.5127 112.46C37.6324 112.605 37.5219 112.722 37.2675 112.722C37.013 112.722 36.8958 112.832 37.0072 112.966C37.1186 113.1 36.8982 113.585 36.5175 114.043C36.1368 114.501 35.9106 115.144 36.0148 115.471C36.1191 115.798 36.083 116.065 35.9349 116.065C35.6252 116.065 34.3747 119.319 34.3747 120.125C34.3747 120.42 34.2353 120.662 34.065 120.662C33.8946 120.662 33.8517 120.85 33.9697 121.08C34.0877 121.31 34.0456 121.498 33.8759 121.498C33.5104 121.498 31.9447 125.391 31.9447 126.3C31.9447 126.647 31.8053 126.931 31.6349 126.931C31.4646 126.931 31.4116 127.099 31.5172 127.305C31.6935 127.648 30.9935 128.202 30.1512 128.386C29.9603 128.428 29.525 128.111 29.1839 127.681L29.184 127.681ZM30.8456 126.094C30.9635 125.865 30.8166 125.677 30.5189 125.677C30.2213 125.677 29.9778 125.865 29.9778 126.094C29.9778 126.324 30.1247 126.512 30.3044 126.512C30.4841 126.512 30.7276 126.324 30.8456 126.094ZM10.191 103.086C10.191 102.87 10.0347 102.693 9.84381 102.693C9.65289 102.693 9.49667 102.986 9.49667 103.344C9.49667 103.702 9.65289 103.879 9.84381 103.737C10.0347 103.595 10.191 103.302 10.191 103.086ZM51.1531 73.4402C51.1531 73.2104 50.9969 73.0223 50.806 73.0223C50.615 73.0223 50.4588 73.2104 50.4588 73.4402C50.4588 73.6701 50.615 73.8581 50.806 73.8581C50.9969 73.8581 51.1531 73.6701 51.1531 73.4402ZM51.7374 69.183C51.6265 68.8496 51.5443 68.9486 51.5276 69.4355C51.5125 69.876 51.5947 70.1228 51.7099 69.9839C51.8253 69.8451 51.8376 69.4846 51.7374 69.183H51.7374ZM2.44394 59.5715C2.33308 59.2381 2.25086 59.3372 2.23421 59.824C2.21913 60.2645 2.30113 60.5113 2.41653 60.3725C2.53186 60.2337 2.54418 59.8732 2.44394 59.5715ZM57.6387 57.0642C57.5278 56.7308 57.4456 56.8298 57.4289 57.3167C57.4138 57.7572 57.4959 58.004 57.6113 57.8651C57.7266 57.7263 57.7389 57.3658 57.6387 57.0642H57.6387ZM9.49667 40.2426C9.49667 40.1412 9.34047 39.9421 9.14955 39.8001C8.95862 39.6581 8.80241 39.741 8.80241 39.9843C8.80241 40.2278 8.95862 40.4269 9.14955 40.4269C9.34047 40.4269 9.49667 40.344 9.49667 40.2426ZM13.1979 33.6362C13.1016 33.3489 13.0228 33.5839 13.0228 34.1585C13.0228 34.7332 13.1017 34.9682 13.1979 34.6809C13.2942 34.3936 13.2942 33.9235 13.1979 33.6362ZM129.085 32.0691C129.203 31.8393 129.144 31.6512 128.953 31.6512C128.762 31.6512 128.509 31.8393 128.391 32.0691C128.273 32.2989 128.333 32.487 128.524 32.487C128.715 32.487 128.967 32.2989 129.085 32.0691ZM65.6388 2.14642C65.5235 2.00758 65.224 1.99273 64.9734 2.1134C64.6965 2.24686 64.7788 2.34583 65.1832 2.36587C65.5491 2.38404 65.7542 2.28532 65.6388 2.14639V2.14642ZM75.5394 2.12207C75.3008 2.00614 74.9102 2.00614 74.6716 2.12207C74.4329 2.238 74.6282 2.33288 75.1055 2.33288C75.5828 2.33288 75.7781 2.23794 75.5394 2.12207ZM77.2751 2.12207C77.0364 2.00614 76.6459 2.00614 76.4073 2.12207C76.1686 2.238 76.3639 2.33288 76.8412 2.33288C77.3185 2.33288 77.5138 2.23794 77.2751 2.12207ZM80.5657 2.14642C80.4504 2.00758 80.1509 1.99273 79.9003 2.1134C79.6234 2.24686 79.7057 2.34583 80.1101 2.36587C80.476 2.38404 80.681 2.28532 80.5657 2.14639V2.14642ZM455.133 72.7091C462.627 72.6462 474.89 72.6462 482.384 72.7091C489.877 72.7719 483.746 72.8234 468.759 72.8234C453.771 72.8234 447.64 72.7719 455.133 72.7091ZM552.505 72.7091C559.904 72.6461 572.01 72.6461 579.408 72.7091C586.807 72.7721 580.754 72.8236 565.957 72.8236C551.16 72.8236 545.107 72.7721 552.505 72.7091ZM367.829 28.8446C368.354 28.7489 369.213 28.7489 369.738 28.8446C370.263 28.9403 369.833 29.0187 368.783 29.0187C367.733 29.0187 367.304 28.9403 367.829 28.8446Z" fill="#3E443E"/>
</svg>
