<svg width="151" height="65" viewBox="0 0 151 65" fill="none" xmlns="http://www.w3.org/2000/svg">
<g filter="url(#filter0_d_754_3222)">
<path d="M5.92714 57.9063C5.85767 57.7764 5.86662 46.5094 5.93626 46.4146C5.98582 46.3472 6.37377 46.3423 11.72 46.3424C14.8718 46.3424 17.4681 46.3534 17.4895 46.3666C17.5128 46.381 17.5284 48.713 17.5284 52.1638C17.5284 57.3889 17.522 57.9393 17.4612 57.9627C17.4242 57.9768 14.8238 57.9885 11.6825 57.9885C6.07933 57.9885 5.9703 57.9869 5.92713 57.9063H5.92714ZM34.5926 55.3461C33.5076 55.215 32.4468 54.4161 32.0346 53.4196C31.8055 52.8656 31.7875 52.7684 31.7875 52.0808C31.7875 51.4977 31.7992 51.3879 31.8891 51.1245C32.2593 50.0397 32.9697 49.3226 34.0613 48.9318C34.3058 48.8443 34.4159 48.8327 35.0176 48.8312C35.8455 48.8291 36.0735 48.8883 36.8403 49.3044C37.0498 49.418 37.6157 49.9894 37.802 50.2754C38.7184 51.6819 38.4465 53.5048 37.1548 54.6148C36.472 55.2014 35.5571 55.4626 34.5926 55.3461V55.3461ZM58.8833 55.3428C58.2389 55.2588 57.5522 54.9166 57.0725 54.4405C56.5648 53.9368 56.257 53.3695 56.1381 52.7184C55.8339 51.0529 56.7219 49.5293 58.3349 48.949C58.6239 48.845 58.7026 48.836 59.3495 48.8329C60.0108 48.8297 60.0704 48.8363 60.3961 48.9481C61.4429 49.3076 62.2078 50.1068 62.542 51.1901C62.6821 51.6443 62.6832 52.5141 62.5442 52.9645C62.0349 54.6143 60.5743 55.5632 58.8833 55.3428H58.8833ZM83.1288 55.3254C81.5822 55.0811 80.3865 53.6746 80.3885 52.1021C80.3904 50.6527 81.2971 49.4109 82.7038 48.9312C82.9685 48.841 83.0762 48.8298 83.6813 48.8296C84.3133 48.8296 84.3854 48.8378 84.7032 48.947C85.086 49.0785 85.5863 49.36 85.8612 49.5986C86.2849 49.9662 86.6635 50.5583 86.8508 51.1458C86.9386 51.4213 86.9524 51.5483 86.9524 52.0808C86.9524 52.6134 86.9386 52.7404 86.8508 53.0159C86.3285 54.6548 84.8178 55.5922 83.1288 55.3254V55.3254ZM107.451 55.3287C106.201 55.131 105.189 54.2052 104.815 52.9163C104.69 52.4873 104.69 51.6734 104.814 51.252C105.155 50.0954 105.933 49.2872 107.053 48.9266C107.314 48.8425 107.443 48.8295 108.013 48.8298C108.584 48.8303 108.712 48.8431 108.969 48.9271C110.898 49.5576 111.83 51.6556 110.987 53.4707C110.803 53.8671 110.681 54.0464 110.375 54.3683C109.622 55.1591 108.568 55.5053 107.451 55.3287H107.451ZM131.778 55.3287C131.126 55.2348 130.57 54.9517 130.035 54.4421C129.722 54.1442 129.568 53.9337 129.373 53.5351C129.098 52.9747 129.072 52.8498 129.072 52.0808C129.072 51.3326 129.103 51.181 129.362 50.6441C129.744 49.8515 130.43 49.2601 131.346 48.9317C131.591 48.8441 131.7 48.8326 132.303 48.8311C132.86 48.8298 133.028 48.8442 133.238 48.9113C134.554 49.3335 135.424 50.3703 135.595 51.7206C135.716 52.674 135.347 53.7255 134.654 54.4059C134.329 54.725 134.241 54.7929 133.935 54.9652C133.304 55.32 132.573 55.4432 131.778 55.3287V55.3287ZM53.8685 38.5623C52.6224 38.4804 51.4172 38.2804 50.403 37.9873C49.8841 37.8373 49.6463 37.762 49.553 37.7181C49.5062 37.6962 49.3054 37.6095 49.1067 37.5255C48.2485 37.1628 47.5807 36.697 46.8725 35.9675C45.1137 34.1553 44.2911 31.7462 44.6395 29.4278C44.9107 27.624 45.7463 26.1365 47.1965 24.8758C48.9472 23.3541 51.9696 22.2805 55.5031 21.9254C55.6434 21.9113 55.8155 21.8924 55.8856 21.8834C56.2085 21.8419 56.9502 21.7798 57.3944 21.757C57.6632 21.7432 57.9692 21.7239 58.0744 21.7142C58.1796 21.7044 58.4856 21.6856 58.7544 21.6723C60.1973 21.6012 60.1827 21.6024 61.007 21.4984C61.6107 21.4223 62.2572 21.2932 62.622 21.1759C63.3263 20.9494 63.8867 20.5176 64.1304 20.0138C64.2374 19.7925 64.2535 19.711 64.2522 19.3975C64.251 19.0888 64.2331 18.9996 64.1291 18.7844C63.896 18.3015 63.3986 17.9271 62.8319 17.8078C62.5105 17.7402 61.228 17.7128 59.6682 17.7402C58.6039 17.7589 57.3899 17.9407 56.7781 18.173C55.9465 18.4888 55.4359 18.9817 55.3659 19.5364C55.3227 19.8786 55.8153 19.8489 50.2374 19.8462C47.4922 19.8448 45.2323 19.8299 45.2153 19.8129C45.1366 19.7342 45.5658 18.5343 45.9491 17.7612C46.6081 16.4323 47.6612 15.2306 48.9842 14.298C51.3153 12.6548 54.7002 11.666 58.6907 11.4628C59.802 11.4061 63.78 11.4425 63.8924 11.5103C63.9066 11.5189 64.1096 11.5381 64.3433 11.5529C65.0688 11.599 65.9357 11.7101 66.7021 11.8553C68.6927 12.2323 70.092 12.8072 71.2285 13.715C71.5683 13.9864 72.1586 14.6149 72.3953 14.9573C72.9898 15.8172 73.4439 16.9816 73.6463 18.165C73.8122 19.1352 73.8127 19.1532 73.8426 26.7289C73.8621 31.6532 73.8872 34.2385 73.9167 34.3794C74.1406 35.4453 74.5737 36.1496 75.4596 36.8886C75.6456 37.0437 75.7869 37.188 75.7738 37.2092C75.7596 37.2322 73.6398 37.248 70.5738 37.248C64.6654 37.248 65.2976 37.2982 65.2212 36.8229C65.1111 36.1383 64.959 35.5252 64.8861 35.4718C64.8201 35.4235 64.7891 35.4425 64.628 35.6295C64.0745 36.2719 62.9497 36.9878 61.772 37.4472C60.8504 37.8068 59.6007 38.1433 58.5419 38.317C58.3666 38.3458 58.2136 38.3718 58.2019 38.3748C58.1902 38.3778 58.0468 38.3944 57.8832 38.4117C57.7195 38.429 57.5283 38.4503 57.4582 38.459C57.388 38.4677 57.1968 38.4871 57.0331 38.5022C56.8695 38.5172 56.6878 38.5378 56.6294 38.5479C56.4251 38.5832 54.3513 38.5941 53.8685 38.5623V38.5623ZM58.8394 32.784C60.9964 32.5692 62.9173 31.3963 63.7791 29.7678C64.1413 29.0833 64.2658 28.5835 64.3235 27.5822C64.3478 27.1597 64.3559 26.7433 64.3416 26.657C64.3 26.4076 64.2548 26.3913 63.7579 26.4455C63.5189 26.4716 63.2086 26.5038 63.0683 26.5171C62.7864 26.5438 62.4695 26.5823 62.3592 26.6032C62.3198 26.6106 62.1095 26.6291 61.8917 26.6443C61.6739 26.6595 61.4671 26.6792 61.432 26.6882C61.3604 26.7066 60.778 26.7767 60.3907 26.8135C60.1572 26.8357 59.9781 26.8606 59.7532 26.902C59.7065 26.9106 59.4674 26.9471 59.222 26.9831C57.7791 27.1947 56.7172 27.4784 55.8856 27.8744C55.1258 28.2362 54.6846 28.6288 54.4264 29.1728C54.3225 29.3917 54.3155 29.4455 54.3163 30.0228C54.3171 30.5624 54.3297 30.6734 54.4174 30.9153C54.6605 31.5856 55.1207 32.08 55.8171 32.4189C56.2799 32.6441 56.6946 32.7524 57.3117 32.809C57.4857 32.825 57.6321 32.8413 57.6368 32.8452C57.661 32.8649 58.4099 32.8268 58.8394 32.784V32.784ZM106.142 38.5524C106.131 38.5422 105.892 38.5224 105.612 38.5084C105.331 38.4944 105.016 38.4733 104.911 38.4615C104.805 38.4497 104.595 38.4303 104.443 38.4183C103.772 38.3656 102.798 38.2078 101.808 37.9914C97.8892 37.1346 94.8261 35.1572 93.0496 32.3375C91.7122 30.2146 91.0651 27.5359 91.1557 24.4976C91.2383 21.7272 91.9536 19.3895 93.3392 17.3609C94.1361 16.1944 95.4963 14.8961 96.7272 14.1274C98.1825 13.2185 99.8141 12.5252 101.425 12.131C101.624 12.0824 101.854 12.025 101.936 12.0035C102.431 11.8729 103.783 11.6437 104.443 11.5784C104.689 11.5541 104.995 11.5228 105.123 11.5087C106.022 11.4107 108.924 11.3979 109.692 11.4887C109.902 11.5136 110.199 11.5453 110.351 11.5591C110.954 11.614 112.205 11.8392 112.943 12.0259C116.071 12.8171 118.477 14.2776 120.194 16.4279C121.421 17.965 122.237 19.7887 122.674 21.9737C122.903 23.1161 122.946 23.6552 122.949 25.3971C122.951 26.3009 122.936 27.0564 122.917 27.0759C122.897 27.0955 118.02 27.1118 112.079 27.1122C106.138 27.1126 101.253 27.128 101.224 27.1465C101.058 27.2513 101.285 28.4049 101.619 29.1598C101.914 29.8268 102.599 30.632 103.27 31.0997C104.009 31.6148 105.056 32.0223 105.956 32.1455C106.144 32.1713 106.345 32.2027 106.401 32.2154C106.458 32.228 106.782 32.2443 107.121 32.2515C108.913 32.2897 110.7 31.6863 111.698 30.7057C111.95 30.4588 112.347 29.9476 112.349 29.8686C112.35 29.8482 112.384 29.7882 112.424 29.7352L112.498 29.6389L117.555 29.6385L122.612 29.638L122.625 29.7384C122.643 29.8766 122.296 30.7469 121.989 31.3357C121.097 33.0455 119.793 34.4334 117.927 35.6579C117.734 35.7843 117.565 35.8877 117.551 35.8877C117.537 35.8877 117.475 35.9237 117.412 35.9677C117.216 36.1069 115.837 36.8227 115.766 36.8227C115.751 36.8227 115.68 36.8506 115.606 36.8847C114.557 37.3699 112.695 37.9304 111.307 38.1784C110.377 38.3447 109.883 38.4119 109.224 38.4617C109.014 38.4777 108.804 38.4997 108.757 38.5107C108.645 38.537 106.169 38.5763 106.142 38.5522V38.5524ZM112.791 21.5258C112.877 21.4543 112.859 21.2726 112.722 20.8425C112.365 19.7149 111.576 18.8305 110.414 18.258C109.761 17.9359 108.885 17.6826 108.098 17.5882C107.8 17.5524 106.574 17.5533 106.269 17.5896C105.389 17.6943 104.494 17.9468 103.84 18.2745C102.607 18.8923 101.775 19.7786 101.382 20.8912C101.245 21.282 101.223 21.5001 101.317 21.5526C101.35 21.5715 103.929 21.5867 107.048 21.5865C111.882 21.5862 112.729 21.5772 112.791 21.5258V21.5258ZM125.521 37.4938C125.44 37.4636 125.439 37.3138 125.439 24.6928C125.439 16.9777 125.454 11.9128 125.478 11.8982C125.539 11.8604 134.843 11.8699 134.881 11.9078C134.9 11.9264 134.92 12.5335 134.926 13.257C134.936 14.4306 134.945 14.5739 135.006 14.5858C135.048 14.5938 135.241 14.4288 135.495 14.1685C136.42 13.2203 137.337 12.6306 138.571 12.1915C139.343 11.9169 140.581 11.6603 141.44 11.5965C141.627 11.5827 141.838 11.5634 141.908 11.5538C142.405 11.4855 145.415 11.437 145.475 11.4963C145.489 11.5102 145.5 13.2494 145.5 15.3611C145.5 19.1771 145.495 19.3251 145.369 19.2474C145.354 19.238 145.124 19.2011 144.857 19.1652C144.591 19.1293 144.248 19.0827 144.097 19.0615C143.415 18.9664 142.501 18.9084 141.738 18.9117C139.81 18.9202 138.316 19.3197 137.254 20.1108C136.174 20.9149 135.571 22.0154 135.315 23.6476C135.244 24.1002 135.237 24.6288 135.225 30.7878C135.218 34.4461 135.207 37.4583 135.199 37.4817C135.183 37.5312 125.655 37.5432 125.521 37.4938V37.4938ZM5.54101 37.4413C5.48723 37.3875 5.48588 3.34625 5.53972 3.31302C5.59071 3.2815 15.8235 3.28153 15.8745 3.31304C15.8978 3.32747 15.9135 5.76471 15.9135 9.38953C15.9135 15.3299 15.9149 15.4427 15.9957 15.4859C16.0514 15.5158 18.4632 15.5299 23.4941 15.5299C30.1794 15.5299 30.9168 15.5233 30.977 15.4631C31.0371 15.403 31.0438 14.7912 31.0438 9.36286C31.0438 3.43065 31.0453 3.32886 31.1263 3.29887C31.1716 3.28209 33.5097 3.27793 36.322 3.28962L41.4353 3.31087L41.446 20.3516C41.4519 29.724 41.4411 37.4079 41.4221 37.4269C41.3836 37.4654 31.1452 37.4756 31.0831 37.4372C31.0593 37.4225 31.0438 34.7777 31.0438 30.7452C31.0438 24.2858 31.0414 24.0757 30.9645 24.0219C30.9 23.9767 29.5046 23.9668 23.4513 23.9687C19.3626 23.9699 15.994 23.9854 15.9654 24.003C15.9248 24.0281 15.9135 25.5013 15.9135 30.7305C15.9135 37.0717 15.9095 37.4269 15.8391 37.4445C15.6808 37.4841 5.5807 37.481 5.54108 37.4413L5.54101 37.4413ZM79.0326 37.1904C78.9974 37.148 78.9876 33.8126 78.9955 24.5357L79.0062 11.9386L83.783 11.9278C87.2776 11.9199 88.5753 11.9298 88.6175 11.9648C88.6658 12.005 88.6752 14.0414 88.6752 24.5481C88.6752 33.1078 88.6612 37.1096 88.6312 37.1657C88.5881 37.2463 88.4898 37.248 83.8338 37.248C79.8873 37.248 79.0722 37.2382 79.0326 37.1904V37.1904ZM78.8893 9.78887C78.8195 9.7482 78.8149 9.54219 78.8149 6.41653C78.8149 3.66452 78.8249 3.07922 78.8726 3.03963C78.9149 3.00459 80.2458 2.99465 83.8346 3.00255L88.7389 3.01336L88.7506 6.32845C88.7571 8.15174 88.7519 9.68656 88.7392 9.73915L88.7161 9.83478L83.8399 9.8335C80.6069 9.83269 78.9386 9.81761 78.8893 9.78888L78.8893 9.78887Z" fill="#3E443E"/>
</g>
<defs>
<filter id="filter0_d_754_3222" x="0.5" y="0" width="150" height="64.9884" filterUnits="userSpaceOnUse" color-interpolation-filters="sRGB">
<feFlood flood-opacity="0" result="BackgroundImageFix"/>
<feColorMatrix in="SourceAlpha" type="matrix" values="0 0 0 0 0 0 0 0 0 0 0 0 0 0 0 0 0 0 127 0" result="hardAlpha"/>
<feOffset dy="2"/>
<feGaussianBlur stdDeviation="2.5"/>
<feColorMatrix type="matrix" values="0 0 0 0 0 0 0 0 0 0 0 0 0 0 0 0 0 0 0.25 0"/>
<feBlend mode="normal" in2="BackgroundImageFix" result="effect1_dropShadow_754_3222"/>
<feBlend mode="normal" in="SourceGraphic" in2="effect1_dropShadow_754_3222" result="shape"/>
</filter>
</defs>
</svg>
