<svg width="468" height="200" viewBox="0 0 468 200" fill="none" xmlns="http://www.w3.org/2000/svg">
<path d="M1.42786 199.701C1.19563 199.229 1.22555 158.249 1.45836 157.904C1.62403 157.659 2.9209 157.642 20.7925 157.642C31.3285 157.642 40.0075 157.682 40.0791 157.73C40.1569 157.782 40.2093 166.264 40.2093 178.815C40.2093 197.819 40.188 199.821 39.9846 199.906C39.861 199.958 31.1682 200 20.6674 200C1.93663 200 1.57213 199.994 1.42784 199.701H1.42786ZM97.2524 190.389C93.6255 189.913 90.0795 187.007 88.7015 183.382C87.9354 181.367 87.8755 181.014 87.8755 178.513C87.8755 176.392 87.9144 175.993 88.2149 175.035C89.4526 171.089 91.8273 168.481 95.4765 167.06C96.2936 166.742 96.6617 166.699 98.6731 166.694C101.441 166.686 102.203 166.902 104.766 168.415C105.466 168.828 107.358 170.906 107.981 171.947C111.044 177.062 110.135 183.693 105.817 187.729C103.535 189.863 100.477 190.813 97.2524 190.389ZM178.453 190.377C176.299 190.072 174.003 188.827 172.399 187.096C170.702 185.264 169.673 183.2 169.276 180.832C168.259 174.775 171.227 169.233 176.62 167.122C177.586 166.744 177.849 166.711 180.011 166.7C182.222 166.689 182.421 166.712 183.51 167.119C187.009 168.427 189.566 171.333 190.683 175.274C191.152 176.925 191.155 180.089 190.69 181.727C188.988 187.728 184.105 191.179 178.453 190.377H178.453ZM259.502 190.314C254.332 189.426 250.335 184.31 250.342 178.591C250.348 173.319 253.379 168.802 258.081 167.058C258.966 166.729 259.326 166.689 261.349 166.688C263.462 166.688 263.703 166.718 264.765 167.115C266.045 167.593 267.717 168.617 268.636 169.485C270.052 170.822 271.318 172.976 271.944 175.112C272.237 176.114 272.284 176.576 272.284 178.513C272.284 180.45 272.237 180.912 271.944 181.914C270.198 187.875 265.148 191.285 259.502 190.314ZM340.809 190.326C336.629 189.607 333.247 186.24 331.995 181.552C331.578 179.992 331.577 177.032 331.992 175.499C333.133 171.292 335.734 168.352 339.476 167.041C340.349 166.735 340.78 166.688 342.687 166.689C344.594 166.691 345.022 166.737 345.881 167.043C352.33 169.336 355.446 176.966 352.629 183.568C352.014 185.01 351.605 185.662 350.581 186.833C348.065 189.709 344.543 190.968 340.809 190.326H340.809ZM422.128 190.326C419.951 189.985 418.091 188.955 416.301 187.101C415.256 186.018 414.742 185.252 414.089 183.803C413.171 181.764 413.085 181.31 413.085 178.513C413.085 175.792 413.187 175.24 414.053 173.288C415.331 170.405 417.622 168.254 420.686 167.06C421.504 166.741 421.87 166.699 423.883 166.694C425.747 166.689 426.309 166.741 427.008 166.985C431.408 168.521 434.316 172.292 434.889 177.203C435.293 180.671 434.061 184.495 431.743 186.97C430.656 188.13 430.364 188.377 429.34 189.004C427.231 190.294 424.785 190.743 422.128 190.326ZM161.689 129.345C157.523 129.047 153.494 128.319 150.104 127.253C148.37 126.708 147.575 126.434 147.263 126.274C147.106 126.194 146.435 125.879 145.771 125.574C142.902 124.254 140.67 122.56 138.303 119.907C132.423 113.316 129.673 104.554 130.838 96.1211C131.744 89.5607 134.538 84.1503 139.386 79.5652C145.238 74.0303 155.341 70.1257 167.153 68.834C167.622 68.7827 168.198 68.714 168.432 68.6813C169.511 68.5306 171.991 68.3046 173.476 68.2215C174.374 68.1713 175.397 68.1012 175.749 68.0657C176.1 68.0303 177.123 67.9619 178.022 67.9137C182.845 67.6551 182.797 67.6592 185.552 67.2811C187.57 67.0042 189.731 66.5346 190.951 66.1079C193.305 65.2842 195.178 63.7139 195.993 61.8813C196.351 61.0763 196.405 60.7802 196.4 59.6398C196.396 58.5171 196.336 58.1925 195.989 57.4098C195.209 55.6534 193.547 54.2917 191.652 53.8578C190.578 53.6119 186.291 53.5122 181.077 53.6118C177.519 53.6798 173.46 54.3411 171.416 55.186C168.635 56.3348 166.928 58.1276 166.695 60.1448C166.55 61.3897 168.197 61.2815 149.551 61.2717C140.374 61.2669 132.819 61.2123 132.763 61.1505C132.499 60.8643 133.934 56.5004 135.216 53.6884C137.418 48.855 140.939 44.4842 145.361 41.0923C153.154 35.1156 164.469 31.5194 177.809 30.7801C181.524 30.5742 194.822 30.7064 195.197 30.953C195.245 30.9843 195.923 31.0541 196.705 31.1081C199.13 31.2757 202.028 31.6799 204.59 32.2079C211.244 33.5791 215.922 35.6702 219.721 38.9718C220.857 39.959 222.83 42.245 223.622 43.4903C225.609 46.6178 227.127 50.8528 227.803 55.157C228.358 58.6858 228.359 58.7513 228.46 86.3052C228.525 104.215 228.609 113.618 228.707 114.131C229.456 118.008 230.903 120.569 233.865 123.257C234.487 123.821 234.959 124.346 234.915 124.423C234.868 124.507 227.782 124.564 217.532 124.564C197.781 124.564 199.895 124.747 199.64 123.018C199.272 120.528 198.763 118.298 198.519 118.104C198.299 117.928 198.195 117.997 197.656 118.678C195.806 121.014 192.046 123.618 188.109 125.289C185.028 126.597 180.851 127.821 177.312 128.452C176.726 128.557 176.214 128.652 176.175 128.663C176.136 128.674 175.656 128.734 175.109 128.797C174.562 128.86 173.923 128.937 173.689 128.969C173.454 129.001 172.815 129.071 172.268 129.126C171.721 129.181 171.114 129.255 170.918 129.292C170.235 129.421 163.303 129.46 161.689 129.345ZM178.306 108.328C185.517 107.547 191.938 103.281 194.819 97.3578C196.03 94.8684 196.446 93.0503 196.638 89.4086C196.72 87.8718 196.747 86.3575 196.699 86.0436C196.56 85.1366 196.409 85.077 194.748 85.2742C193.949 85.369 192.911 85.4862 192.443 85.5346C191.5 85.6318 190.441 85.7717 190.072 85.8477C189.941 85.8748 189.237 85.9422 188.509 85.9974C187.781 86.0525 187.09 86.1244 186.973 86.1571C186.733 86.224 184.786 86.4788 183.492 86.6128C182.711 86.6936 182.113 86.784 181.361 86.9347C181.204 86.966 180.405 87.0987 179.585 87.2296C174.761 87.9992 171.212 89.031 168.432 90.4713C165.892 91.7873 164.417 93.2151 163.554 95.1936C163.207 95.99 163.183 96.1858 163.186 98.2853C163.189 100.248 163.231 100.652 163.524 101.531C164.337 103.969 165.875 105.768 168.203 107C169.75 107.819 171.136 108.213 173.199 108.419C173.781 108.477 174.27 108.537 174.286 108.551C174.367 108.622 176.87 108.484 178.306 108.328ZM336.433 129.309C336.395 129.272 335.597 129.2 334.66 129.149C333.722 129.098 332.667 129.021 332.315 128.978C331.964 128.935 331.26 128.864 330.753 128.821C328.509 128.629 325.252 128.055 321.944 127.268C308.844 124.152 298.604 116.96 292.666 106.704C288.195 98.9828 286.032 89.2402 286.335 78.1895C286.611 68.1132 289.002 59.6106 293.634 52.2324C296.298 47.9896 300.845 43.2678 304.96 40.4717C309.824 37.166 315.279 34.6444 320.665 33.2108C321.329 33.034 322.097 32.8252 322.37 32.7469C324.027 32.2719 328.546 31.4384 330.753 31.2008C331.573 31.1124 332.596 30.9984 333.026 30.9474C336.03 30.5906 345.733 30.5443 348.299 30.8745C349.002 30.9651 349.993 31.0802 350.501 31.1305C352.519 31.3301 356.7 32.1492 359.168 32.8284C369.624 35.7062 377.665 41.018 383.404 48.8391C387.507 54.4295 390.234 61.0626 391.697 69.0099C392.461 73.1647 392.606 75.1257 392.617 81.4612C392.622 84.7484 392.573 87.4961 392.508 87.5672C392.443 87.6383 376.14 87.6976 356.279 87.699C336.418 87.7006 320.088 87.7567 319.99 87.8241C319.438 88.2049 320.195 92.4007 321.311 95.1467C322.297 97.5725 324.589 100.501 326.832 102.202C329.303 104.076 332.802 105.558 335.812 106.006C336.44 106.1 337.109 106.214 337.299 106.26C337.488 106.306 338.57 106.365 339.703 106.391C345.696 106.53 351.67 104.336 355.006 100.769C355.846 99.8712 357.175 98.0119 357.182 97.7246C357.183 97.6504 357.296 97.432 357.433 97.2393L357.68 96.889L374.585 96.8874L391.49 96.8859L391.532 97.251C391.591 97.7535 390.433 100.919 389.406 103.06C386.425 109.279 382.065 114.327 375.827 118.781C375.183 119.241 374.618 119.617 374.57 119.617C374.523 119.617 374.315 119.748 374.107 119.908C373.452 120.414 368.842 123.018 368.602 123.018C368.555 123.018 368.315 123.119 368.069 123.243C364.562 125.008 358.336 127.046 353.698 127.948C350.588 128.553 348.938 128.798 346.736 128.979C346.033 129.037 345.329 129.117 345.173 129.157C344.8 129.252 336.522 129.395 336.433 129.308V129.309ZM358.657 67.3808C358.945 67.1206 358.885 66.4597 358.429 64.8956C357.236 60.7943 354.596 57.5775 350.714 55.4951C348.531 54.3239 345.602 53.4025 342.971 53.0591C341.973 52.9289 337.875 52.9322 336.857 53.0641C333.916 53.4452 330.923 54.3634 328.737 55.5552C324.615 57.8024 321.833 61.0258 320.521 65.0725C320.06 66.4941 319.988 67.2872 320.302 67.4782C320.414 67.5467 329.036 67.6022 339.46 67.6015C355.62 67.6004 358.45 67.5678 358.657 67.3807V67.3808ZM401.214 125.458C400.941 125.348 400.938 124.804 400.938 78.8993C400.938 50.8387 400.989 32.4169 401.068 32.3639C401.272 32.2265 432.377 32.2611 432.503 32.3988C432.565 32.4664 432.633 34.6747 432.654 37.3062C432.687 41.5746 432.716 42.0959 432.922 42.1389C433.061 42.168 433.707 41.5679 434.555 40.6211C437.646 37.1727 440.714 35.0277 444.839 33.4307C447.418 32.432 451.555 31.4985 454.429 31.2666C455.054 31.2162 455.757 31.1463 455.992 31.1113C457.655 30.8628 467.716 30.6863 467.915 30.9022C467.962 30.9527 468 37.2782 468 44.9589C468 58.8383 467.983 59.3763 467.563 59.0938C467.513 59.0598 466.742 58.9253 465.852 58.7948C464.961 58.6644 463.816 58.4946 463.308 58.4176C461.03 58.0719 457.973 57.8608 455.423 57.873C448.981 57.9037 443.987 59.3568 440.434 62.2342C436.824 65.1586 434.807 69.1615 433.953 75.098C433.716 76.7441 433.694 78.6666 433.654 101.068C433.63 114.373 433.59 125.329 433.565 125.414C433.513 125.594 401.66 125.638 401.214 125.458V125.458ZM0.137088 125.267C-0.0426967 125.072 -0.0472104 1.25936 0.132795 1.13848C0.303242 1.02386 34.5099 1.02395 34.6804 1.13857C34.7584 1.19103 34.8107 10.0556 34.8107 23.2395C34.8107 44.8452 34.8155 45.2558 35.0855 45.4129C35.2719 45.5214 43.334 45.5729 60.1516 45.5729C82.4997 45.5729 84.9649 45.549 85.1661 45.33C85.367 45.1114 85.3894 42.886 85.3894 23.1425C85.3894 1.56634 85.3942 1.19612 85.665 1.08703C85.8166 1.02601 93.6324 1.01086 103.034 1.05338L120.127 1.13067L120.162 63.11C120.182 97.1986 120.146 125.146 120.082 125.215C119.954 125.355 85.7284 125.392 85.5206 125.252C85.4413 125.199 85.3894 115.58 85.3894 100.913C85.3894 77.4191 85.3811 76.655 85.1243 76.4594C84.9085 76.2949 80.2439 76.2589 60.0086 76.2657C46.3408 76.2702 35.0799 76.3265 34.9843 76.3907C34.8487 76.4819 34.8107 81.8401 34.8107 100.859C34.8107 123.923 34.7976 125.215 34.5621 125.279C34.033 125.423 0.269784 125.412 0.137318 125.267L0.137088 125.267ZM245.809 124.355C245.691 124.201 245.659 112.069 245.685 78.3281L245.721 32.5107L261.689 32.4714C273.371 32.4427 277.709 32.4789 277.85 32.6063C278.012 32.7523 278.043 40.1591 278.043 78.3733C278.043 109.506 277.996 124.061 277.896 124.265C277.752 124.558 277.423 124.564 261.859 124.564C248.666 124.564 245.941 124.529 245.809 124.355ZM245.33 24.692C245.097 24.544 245.081 23.7948 245.081 12.4264C245.081 2.41693 245.115 0.288124 245.274 0.144148C245.415 0.0167005 249.864 -0.019473 261.861 0.00928354L278.256 0.0486071L278.295 12.106C278.316 18.7375 278.299 24.3199 278.257 24.5112L278.179 24.859L261.879 24.8543C251.072 24.8514 245.495 24.7965 245.33 24.692L245.33 24.692Z" fill="#3E443E"/>
</svg>
