<svg width="420" height="97" viewBox="0 0 420 97" fill="none" xmlns="http://www.w3.org/2000/svg">
<g clip-path="url(#clip0_826_3412)">
<path d="M364.296 95.7694C358.074 94.6961 351.716 92.0666 345.467 87.982C330.821 78.409 322.254 58.7981 325.169 41.518C329.506 15.8075 354.027 -2.41272 379.099 1.44555C404.79 5.39901 423.403 30.264 419.476 55.3872C417.018 71.1179 407.052 84.7042 393.117 91.3218C382.858 96.1938 374.36 97.5053 364.296 95.7694ZM385.513 69.1545C387.888 67.4853 391.192 64.1843 392.854 61.8191C395.4 58.1968 395.934 56.3736 396.243 50.256C396.542 44.33 396.199 42.1202 394.38 38.249C385.851 20.1057 359.05 19.8892 350.335 37.8933C347.857 43.0116 347.504 52.9384 349.619 58.0013C351.63 62.8141 356.698 68.1834 361.558 70.6489C365.026 72.4088 367.208 72.7463 373.498 72.4959C380.172 72.2302 381.769 71.7861 385.513 69.1545ZM189.675 48.6131V2.44877H203.725H217.775V48.6131V94.7774H203.725H189.675V48.6131ZM0 48.6131V3.45235H13.0464H26.0929V21.5166V39.5809H42.6518H59.2107V21.5166V3.45235H72.7589H86.3071V48.6131V93.7738H72.7589H59.2107V76.7131V59.6524H42.6518H26.0929V76.7131V93.7738H13.0464H0L0 48.6131ZM101.361 66.1756V38.5773H136.486H171.611V48.6131V58.6488H150.034H128.457V66.1756V73.7024H150.034H171.611V83.7381V93.7738H136.486H101.361L101.361 66.1756ZM233.832 48.6131V3.45235H246.856H259.88L260.153 21.6664L260.427 39.8805L275.48 21.7304L290.534 3.58027L305.914 3.51634L321.294 3.45241L308.924 17.1495C291.569 36.3678 289.029 39.2945 289.029 40.0676C289.029 40.4418 296.4 52.1143 305.41 66.0064C314.42 79.8986 322.124 91.8294 322.53 92.5194C323.109 93.502 319.831 93.7626 307.403 93.7221L291.538 93.6703L281.127 77.0689L270.716 60.4675L265.321 65.7962L259.925 71.1249V82.4494V93.7738H246.879H233.832V48.6131ZM101.361 13.4881V2.44877H136.988H172.614V13.4881V24.5273H136.988H101.361V13.4881Z" fill="#3E443E"/>
</g>
<defs>
<clipPath id="clip0_826_3412">
<rect width="420" height="96" fill="white" transform="translate(0 0.5)"/>
</clipPath>
</defs>
</svg>
