<svg width="139" height="47" viewBox="0 0 139 47" fill="none" xmlns="http://www.w3.org/2000/svg">
<path d="M51.2651 41.3817C50.5812 41.3817 49.9582 41.2693 49.3962 41.0444C48.8341 40.8196 48.3516 40.4917 47.9488 40.0608C47.546 39.6299 47.2322 39.1006 47.0073 38.4729C46.7919 37.8359 46.6842 37.1099 46.6842 36.2949C46.6842 35.4799 46.8059 34.7585 47.0495 34.1309C47.3024 33.4939 47.6397 32.9599 48.0612 32.529C48.4828 32.098 48.9746 31.7702 49.5367 31.5453C50.0988 31.3205 50.6983 31.2081 51.3353 31.2081C51.7382 31.2081 52.0988 31.2362 52.4173 31.2924C52.7452 31.3486 53.0262 31.4142 53.2604 31.4891C53.504 31.5641 53.7007 31.639 53.8506 31.714C54.0005 31.7889 54.1036 31.8451 54.1598 31.8826L53.7663 33.0067C53.682 32.9505 53.5602 32.8896 53.401 32.8241C53.2417 32.7585 53.059 32.6929 52.8529 32.6273C52.6562 32.5618 52.4361 32.5102 52.1925 32.4728C51.9583 32.4259 51.7194 32.4025 51.4759 32.4025C50.9606 32.4025 50.4969 32.4915 50.0847 32.6695C49.6725 32.8475 49.3212 33.1051 49.0308 33.4423C48.7404 33.7796 48.5156 34.1918 48.3563 34.6789C48.2064 35.1567 48.1315 35.6953 48.1315 36.2949C48.1315 36.8757 48.1971 37.405 48.3282 37.8828C48.4687 38.3605 48.6748 38.7727 48.9465 39.1193C49.2182 39.4566 49.5554 39.7189 49.9582 39.9062C50.3704 40.0936 50.8482 40.1873 51.3915 40.1873C52.0192 40.1873 52.5391 40.1217 52.9513 39.9905C53.3635 39.8594 53.6726 39.7423 53.8787 39.6392L54.23 40.7634C54.1645 40.8102 54.0474 40.8711 53.8787 40.9461C53.7101 41.0116 53.4993 41.0772 53.2464 41.1428C52.9935 41.2084 52.6984 41.2646 52.3611 41.3114C52.0239 41.3583 51.6585 41.3817 51.2651 41.3817ZM55.7914 31.4329H57.1545V41.1709H55.7914V31.4329ZM59.5651 41.1709V31.4329H65.5091V32.5992H60.9282V35.4939H65.0032V36.6321H60.9282V40.0046H65.8604V41.1709H59.5651ZM70.1784 31.3346C71.5461 31.3346 72.5953 31.5969 73.326 32.1215C74.0661 32.6367 74.4361 33.4096 74.4361 34.44C74.4361 35.0021 74.3331 35.4846 74.127 35.8874C73.9303 36.2808 73.6399 36.604 73.2558 36.857C72.881 37.1005 72.422 37.2785 71.8787 37.3909C71.3353 37.5033 70.7217 37.5596 70.0379 37.5596H68.9559V41.1709H67.5928V31.5734C67.9769 31.4798 68.4032 31.4189 68.8716 31.3908C69.3493 31.3533 69.7849 31.3346 70.1784 31.3346ZM70.2908 32.529C69.71 32.529 69.265 32.543 68.9559 32.5711V36.3932H69.9817C70.4501 36.3932 70.8716 36.3651 71.2463 36.3089C71.6211 36.2434 71.9349 36.1403 72.1878 35.9998C72.4501 35.8499 72.6515 35.6485 72.7921 35.3956C72.9326 35.1426 73.0028 34.8194 73.0028 34.426C73.0028 34.0513 72.9279 33.7421 72.778 33.4986C72.6375 33.255 72.4408 33.0629 72.1878 32.9224C71.9443 32.7725 71.6585 32.6695 71.3307 32.6133C71.0028 32.5571 70.6562 32.529 70.2908 32.529ZM82.2546 39.9905V41.1709H76.3949V37.1521L75.3692 37.672L74.9054 36.7445L76.3949 35.9857V31.4329H77.758V35.2831L79.388 34.44L79.8377 35.3675L77.758 36.4495V39.9905H82.2546ZM90.5934 41.1709C90.4342 40.7493 90.2843 40.3372 90.1437 39.9343C90.0032 39.5221 89.858 39.1053 89.7081 38.6837H85.2958L84.4106 41.1709H82.9913C83.366 40.1404 83.7173 39.1896 84.0452 38.3184C84.3731 37.4378 84.6916 36.604 85.0007 35.8171C85.3193 35.0302 85.6331 34.2808 85.9422 33.5688C86.2514 32.8475 86.5746 32.1355 86.9118 31.4329H88.1624C88.4997 32.1355 88.8229 32.8475 89.132 33.5688C89.4412 34.2808 89.7503 35.0302 90.0594 35.8171C90.3779 36.604 90.7011 37.4378 91.029 38.3184C91.3569 39.1896 91.7082 40.1404 92.0829 41.1709H90.5934ZM89.3147 37.5596C89.0149 36.7445 88.7151 35.9576 88.4154 35.1988C88.125 34.4307 87.8205 33.6953 87.502 32.9927C87.1741 33.6953 86.8603 34.4307 86.5605 35.1988C86.2701 35.9576 85.9797 36.7445 85.6893 37.5596H89.3147ZM96.0109 37.7984C96.1889 37.3863 96.4324 36.9085 96.7416 36.3651C97.0507 35.8124 97.3973 35.2457 97.7814 34.6649C98.1749 34.0841 98.5917 33.5126 99.032 32.9505C99.4817 32.3885 99.9313 31.8826 100.381 31.4329H101.632V37.6158H102.784V38.6837H101.632V41.1709H100.367V38.6837H96.0109V37.7984ZM100.367 32.9786C100.086 33.2784 99.8002 33.6157 99.5098 33.9904C99.2287 34.3557 98.9524 34.7398 98.6807 35.1426C98.4091 35.5454 98.1514 35.9576 97.9079 36.3792C97.6737 36.8008 97.4629 37.2129 97.2755 37.6158H100.367V32.9786ZM106.907 41.1709V37.2645C106.261 36.2621 105.652 35.2738 105.081 34.2995C104.509 33.3252 103.971 32.3697 103.465 31.4329H105.067C105.423 32.2011 105.821 32.9833 106.261 33.7796C106.701 34.5665 107.156 35.3253 107.624 36.056C108.083 35.3253 108.533 34.5665 108.973 33.7796C109.413 32.9833 109.816 32.2011 110.182 31.4329H111.699C111.193 32.3697 110.655 33.3252 110.083 34.2995C109.512 35.2644 108.908 36.2434 108.27 37.2364V41.1709H106.907ZM112.017 36.2949C112.017 35.4611 112.139 34.7258 112.383 34.0887C112.636 33.4517 112.973 32.9224 113.394 32.5009C113.825 32.0699 114.322 31.7467 114.884 31.5313C115.455 31.3158 116.06 31.2081 116.697 31.2081C117.324 31.2081 117.914 31.3158 118.467 31.5313C119.029 31.7467 119.521 32.0699 119.943 32.5009C120.364 32.9224 120.697 33.4517 120.94 34.0887C121.193 34.7258 121.32 35.4611 121.32 36.2949C121.32 37.1286 121.193 37.864 120.94 38.501C120.697 39.1381 120.364 39.672 119.943 40.103C119.521 40.5245 119.029 40.843 118.467 41.0585C117.914 41.2739 117.324 41.3817 116.697 41.3817C116.06 41.3817 115.455 41.2739 114.884 41.0585C114.322 40.843 113.825 40.5245 113.394 40.103C112.973 39.672 112.636 39.1381 112.383 38.501C112.139 37.864 112.017 37.1286 112.017 36.2949ZM113.451 36.2949C113.451 36.8851 113.526 37.4237 113.675 37.9109C113.825 38.3886 114.036 38.7961 114.308 39.1334C114.589 39.4706 114.926 39.7329 115.32 39.9203C115.722 40.0983 116.172 40.1873 116.668 40.1873C117.165 40.1873 117.61 40.0983 118.003 39.9203C118.397 39.7329 118.729 39.4706 119.001 39.1334C119.282 38.7961 119.498 38.3886 119.647 37.9109C119.797 37.4237 119.872 36.8851 119.872 36.2949C119.872 35.7047 119.797 35.1707 119.647 34.693C119.498 34.2058 119.282 33.7936 119.001 33.4564C118.729 33.1192 118.397 32.8615 118.003 32.6835C117.61 32.4962 117.165 32.4025 116.668 32.4025C116.172 32.4025 115.722 32.4962 115.32 32.6835C114.926 32.8615 114.589 33.1192 114.308 33.4564C114.036 33.7936 113.825 34.2058 113.675 34.693C113.526 35.1707 113.451 35.7047 113.451 36.2949ZM126.973 41.3817C126.336 41.3817 125.783 41.2833 125.315 41.0866C124.847 40.8899 124.462 40.6229 124.163 40.2856C123.863 39.939 123.638 39.5315 123.488 39.0631C123.348 38.5947 123.277 38.0888 123.277 37.5455V31.4329H124.64V37.3909C124.64 38.3652 124.856 39.0725 125.287 39.5128C125.718 39.9531 126.28 40.1732 126.973 40.1732C127.32 40.1732 127.633 40.1217 127.915 40.0186C128.205 39.9062 128.453 39.7376 128.659 39.5128C128.865 39.2879 129.025 39.0022 129.137 38.6556C129.249 38.2996 129.306 37.8781 129.306 37.3909V31.4329H130.669V37.5455C130.669 38.0888 130.594 38.5947 130.444 39.0631C130.303 39.5315 130.079 39.939 129.769 40.2856C129.47 40.6229 129.086 40.8899 128.617 41.0866C128.158 41.2833 127.61 41.3817 126.973 41.3817Z" fill="#d14d4d"/>
<path d="M51.3693 11.0689C53.8809 11.0689 55.8092 11.5145 57.1541 12.4057C58.499 13.2808 59.1715 14.7229 59.1715 16.7322C59.1715 18.7577 58.4909 20.2242 57.1298 21.1316C55.7687 22.0228 53.8242 22.4684 51.2964 22.4684H50.1054V28.1074H46.3136V11.5064C47.14 11.3444 48.015 11.2309 48.9387 11.1661C49.8623 11.1013 50.6725 11.0689 51.3693 11.0689ZM51.6123 14.3016C51.3369 14.3016 51.0614 14.3097 50.7859 14.3259C50.5267 14.3421 50.2998 14.3583 50.1054 14.3745V19.2357H51.2964C52.6089 19.2357 53.5973 19.0575 54.2617 18.701C54.9261 18.3445 55.2582 17.6801 55.2582 16.7079C55.2582 16.238 55.1691 15.8491 54.9909 15.5412C54.8288 15.2333 54.5858 14.9903 54.2617 14.812C53.9538 14.6176 53.573 14.488 53.1193 14.4231C52.6656 14.3421 52.1633 14.3016 51.6123 14.3016ZM65.14 19.6732C65.14 20.4996 65.2372 21.245 65.4316 21.9094C65.6423 22.5738 65.934 23.149 66.3066 23.6351C66.6955 24.105 67.1655 24.4696 67.7164 24.7289C68.2673 24.9882 68.8993 25.1178 69.6123 25.1178C70.309 25.1178 70.9329 24.9882 71.4838 24.7289C72.051 24.4696 72.5209 24.105 72.8936 23.6351C73.2825 23.149 73.5741 22.5738 73.7686 21.9094C73.9792 21.245 74.0846 20.4996 74.0846 19.6732C74.0846 18.8468 73.9792 18.1014 73.7686 17.4371C73.5741 16.7565 73.2825 16.1813 72.8936 15.7114C72.5209 15.2252 72.051 14.8525 71.4838 14.5933C70.9329 14.334 70.309 14.2044 69.6123 14.2044C68.8993 14.2044 68.2673 14.3421 67.7164 14.6176C67.1655 14.8769 66.6955 15.2495 66.3066 15.7357C65.934 16.2056 65.6423 16.7808 65.4316 17.4614C65.2372 18.1258 65.14 18.863 65.14 19.6732ZM77.9978 19.6732C77.9978 21.1154 77.7791 22.3874 77.3416 23.4893C76.9203 24.5749 76.3369 25.4905 75.5915 26.2359C74.8462 26.965 73.9549 27.516 72.9179 27.8887C71.897 28.2614 70.7952 28.4477 69.6123 28.4477C68.4618 28.4477 67.3761 28.2614 66.3553 27.8887C65.3344 27.516 64.4432 26.965 63.6816 26.2359C62.92 25.4905 62.3205 24.5749 61.8829 23.4893C61.4454 22.3874 61.2267 21.1154 61.2267 19.6732C61.2267 18.2311 61.4535 16.9672 61.9073 15.8815C62.361 14.7796 62.9686 13.856 63.7302 13.1106C64.508 12.3652 65.3992 11.8062 66.4039 11.4335C67.4247 11.0608 68.4942 10.8745 69.6123 10.8745C70.7627 10.8745 71.8484 11.0608 72.8693 11.4335C73.8901 11.8062 74.7813 12.3652 75.5429 13.1106C76.3045 13.856 76.9041 14.7796 77.3416 15.8815C77.7791 16.9672 77.9978 18.2311 77.9978 19.6732ZM85.6309 11.2634C85.9225 11.7981 86.2547 12.4625 86.6274 13.2565C87.0163 14.0342 87.4133 14.885 87.8184 15.8086C88.2397 16.716 88.6529 17.6477 89.058 18.6038C89.4631 19.5598 89.8439 20.4591 90.2004 21.3017C90.5569 20.4591 90.9377 19.5598 91.3428 18.6038C91.7479 17.6477 92.153 16.716 92.5581 15.8086C92.9794 14.885 93.3764 14.0342 93.7491 13.2565C94.138 12.4625 94.4783 11.7981 94.7699 11.2634H98.2214C98.3834 12.3814 98.5293 13.6372 98.6589 15.0308C98.8047 16.4081 98.9263 17.8503 99.0235 19.3573C99.1369 20.848 99.2341 22.3469 99.3152 23.8539C99.4124 25.3608 99.4934 26.7787 99.5582 28.1074H95.8637C95.8151 26.4708 95.7503 24.6884 95.6693 22.7601C95.5882 20.8318 95.4667 18.8873 95.3047 16.9267C95.013 17.6072 94.6889 18.3607 94.3324 19.1871C93.9759 20.0135 93.6194 20.8399 93.263 21.6663C92.9227 22.4927 92.5905 23.2867 92.2664 24.0483C91.9423 24.7937 91.6669 25.4338 91.44 25.9685H88.7906C88.5638 25.4338 88.2883 24.7937 87.9642 24.0483C87.6402 23.2867 87.2999 22.4927 86.9434 21.6663C86.6031 20.8399 86.2547 20.0135 85.8982 19.1871C85.5417 18.3607 85.2177 17.6072 84.926 16.9267C84.764 18.8873 84.6424 20.8318 84.5614 22.7601C84.4804 24.6884 84.4156 26.4708 84.367 28.1074H80.6724C80.7373 26.7787 80.8102 25.3608 80.8912 23.8539C80.9884 22.3469 81.0856 20.848 81.1829 19.3573C81.2963 17.8503 81.4178 16.4081 81.5475 15.0308C81.6933 13.6372 81.8472 12.3814 82.0093 11.2634H85.6309ZM108.028 11.0689C110.54 11.0689 112.468 11.5145 113.813 12.4057C115.158 13.2808 115.83 14.7229 115.83 16.7322C115.83 18.7577 115.15 20.2242 113.788 21.1316C112.427 22.0228 110.483 22.4684 107.955 22.4684H106.764V28.1074H102.972V11.5064C103.799 11.3444 104.674 11.2309 105.597 11.1661C106.521 11.1013 107.331 11.0689 108.028 11.0689ZM108.271 14.3016C107.996 14.3016 107.72 14.3097 107.445 14.3259C107.185 14.3421 106.958 14.3583 106.764 14.3745V19.2357H107.955C109.268 19.2357 110.256 19.0575 110.92 18.701C111.585 18.3445 111.917 17.6801 111.917 16.7079C111.917 16.238 111.828 15.8491 111.65 15.5412C111.487 15.2333 111.244 14.9903 110.92 14.812C110.612 14.6176 110.232 14.488 109.778 14.4231C109.324 14.3421 108.822 14.3016 108.271 14.3016ZM124.551 18.1906C125.231 17.0401 125.88 15.8896 126.495 14.7391C127.111 13.5886 127.678 12.43 128.197 11.2634H132.377C131.454 13.0782 130.498 14.8363 129.509 16.5378C128.521 18.2392 127.476 19.9487 126.374 21.6663V28.1074H122.582V21.7149C121.48 19.9973 120.427 18.2797 119.422 16.5621C118.434 14.8444 117.478 13.0782 116.554 11.2634H120.954C121.472 12.43 122.031 13.5886 122.631 14.7391C123.23 15.8896 123.87 17.0401 124.551 18.1906Z" fill="#3E443E"/>
<path d="M35.8521 42.0617C35.8521 41.384 35.8521 21.4837 35.8521 21.4837L23.0273 9.76374L32.723 0.90332L42.4187 9.76374V42.064L35.8521 42.0617Z" fill="#d14d4d"/>
<path d="M35.4553 21.6046L17.8048 5.47461L0 21.7456V42.1044H6.58864V36.909H13.6841V31.7941H20.7355V26.5987H28.4039V21.6046H35.4553Z" fill="#3E443E"/>
<path d="M17.7287 37.0129C12.6536 37.0129 8.53946 32.9318 8.53946 27.8976C8.53946 22.8633 12.6536 18.7822 17.7287 18.7822C22.8038 18.7822 26.918 22.8633 26.918 27.8976C26.918 32.9318 22.8038 37.0129 17.7287 37.0129Z" fill="#FEFEFD"/>
<path d="M11.136 33.4925C12.6324 35.2327 14.7606 36.3089 17.0525 36.4844C19.3444 36.6598 21.6124 35.9202 23.3576 34.4282C25.1029 32.9362 26.1825 30.8139 26.3591 28.528C26.5357 26.2422 25.7948 23.98 24.2994 22.2389C22.804 20.4978 20.6764 19.4204 18.3846 19.2435C16.0928 19.0667 13.8244 19.805 12.0783 21.296C10.3322 22.787 9.25127 24.9086 9.0733 27.1944C8.89534 29.4801 9.63488 31.7427 11.1293 33.4847" stroke="#3E443E" stroke-width="0.437449" stroke-linecap="square"/>
<path d="M13.7365 32.4294C16.5679 28.7963 11.0219 28.7247 13.7365 24.9307" stroke="#3E443E" stroke-width="1.27375"/>
<path d="M13.7686 24.6846L14.6055 25.7108" stroke="#3E443E" stroke-width="1.27375" stroke-linecap="round"/>
<path d="M13.6992 24.6592L12.1292 25.0758" stroke="#3E443E" stroke-width="1.27375" stroke-linecap="round" stroke-linejoin="bevel"/>
<path d="M17.7048 32.4105C20.6113 28.1147 14.9181 28.03 17.7048 23.5439" stroke="#3E443E" stroke-width="1.4033"/>
<path d="M17.7386 23.2529L18.5977 24.4663" stroke="#3E443E" stroke-width="1.4033" stroke-linecap="round"/>
<path d="M17.668 23.2236L16.0563 23.7162" stroke="#3E443E" stroke-width="1.4033" stroke-linecap="round" stroke-linejoin="bevel"/>
<path d="M21.7873 32.4294C24.6187 28.7963 19.0727 28.7247 21.7873 24.9307" stroke="#3E443E" stroke-width="1.27375"/>
<path d="M21.8193 24.6846L22.6562 25.7108" stroke="#3E443E" stroke-width="1.27375" stroke-linecap="round"/>
<path d="M21.75 24.6592L20.18 25.0758" stroke="#3E443E" stroke-width="1.27375" stroke-linecap="round" stroke-linejoin="bevel"/>
</svg>
