<svg width="668" height="142" viewBox="0 0 668 142" fill="none" xmlns="http://www.w3.org/2000/svg">
<g clip-path="url(#clip0_826_3407)">
<path d="M573.226 142.182C571.231 141.428 568.939 139.633 568.133 138.192C566.825 135.856 565.592 135.954 556.677 139.101C528.02 149.217 500.714 129.934 500.652 99.5365C500.602 75.0789 518.778 56.9033 543.335 56.8534C560.674 56.8182 577.32 67.5914 583.767 83.0204C586.248 88.9592 587.096 134.795 584.789 138.251C582.496 141.685 576.924 143.579 573.226 142.182ZM550.349 120.374C566.544 114.238 570.397 93.8185 557.419 82.8987C547.176 74.2798 534.183 76.2537 527.346 87.4674C520.603 98.526 525.109 114.836 536.245 119.677C542.884 122.563 544.376 122.637 550.349 120.374ZM427.26 139.351C407.96 131.392 396.313 108.671 401.561 89.2172C408.859 62.1611 437.948 48.7138 462.837 60.8907C483.705 71.1006 494.347 99.8145 479.372 105.508C476.882 106.455 464.613 107.158 452.108 107.07C439.603 106.983 428.409 106.949 427.233 106.995C425.576 107.059 425.653 108.157 427.579 111.88C430.197 116.942 439.147 122.162 445.21 122.162C449.546 122.162 457.282 118.348 460.284 114.73C465.275 108.718 477.136 113.65 477.136 121.737C477.136 127.854 475.367 130.251 466.798 135.75C459.777 140.255 456.503 141.212 446.416 141.706C437.689 142.134 432.445 141.49 427.26 139.351ZM461.229 86.9954C458.306 81.3435 450.934 76.9114 444.455 76.9114C437.976 76.9114 430.603 81.3435 427.681 86.9954L425.095 91.9948H444.455H463.814L461.229 86.9954ZM304.468 137.761C302.189 136.202 299.77 134.128 299.093 133.152C298.416 132.177 297.85 103.629 297.836 69.7125L297.811 8.04573L301.924 3.93208C307.167 -1.31069 313.593 -1.31069 318.836 3.93208C322.871 7.96719 322.95 8.57371 322.95 35.6929V63.34L330.072 60.1069C352.059 50.1268 379.29 62.098 387.494 85.3504C390.026 92.5278 391.089 127.395 388.946 132.98C387.492 136.769 378.737 140.976 374.863 139.746C373.09 139.183 370.111 136.78 368.244 134.406C365.28 130.638 364.848 127.634 364.848 110.781C364.848 92.7146 364.576 91.1163 360.614 85.9223C358.091 82.6147 353.791 79.5956 349.972 78.4516C344.502 76.8127 342.468 77.017 336.069 79.8473C325.463 84.5388 322.956 90.5819 322.927 111.521C322.898 131.885 322.086 135.063 316.116 138.15C310.152 141.234 309.512 141.213 304.468 137.761ZM618.653 136.547C615.738 134.419 615.313 131.416 614.562 107.637L613.724 81.1012L608.696 80.542C605.931 80.2345 602.349 78.7978 600.736 77.3494C597.751 74.6691 596.855 67.5148 599.085 64.1738C600.913 61.4375 607.157 58.4761 611.1 58.4761C614.231 58.4761 614.562 57.4705 614.562 47.9555C614.562 34.944 617.489 29.9743 625.132 30.0109C637.477 30.0701 638.025 32.3872 638.025 84.4531C638.025 128.362 637.394 134.255 632.328 137.638C629.301 139.659 622.134 139.087 618.653 136.547Z" fill="#3E443E"/>
<path d="M231.544 140.695C222.626 137.905 215.999 133.425 219.321 132.434C238.456 126.722 248.254 119.468 256.449 104.948C264.571 90.5567 274.926 87.6705 283.858 97.3085C289.087 102.951 288.966 108.258 283.357 119.344C274.078 137.683 251.566 146.959 231.544 140.695ZM135.395 139.668C102.137 135.435 87.4634 95.4461 109.654 69.5211C118.798 58.8383 127.082 55.1753 142.099 55.1753C157.164 55.1753 165.399 58.8384 174.661 69.6593C181.977 78.2064 186.797 92.6026 184.056 97.723C180.878 103.662 176.488 104.538 149.907 104.538C124.601 104.538 123.999 104.62 124.874 107.969C125.368 109.857 128.197 113.25 131.16 115.511C138.528 121.131 148.466 121.098 155.2 115.431C161.464 110.161 171.302 109.661 173.882 114.483C176.777 119.893 175.853 124.59 171.008 129.088C161.36 138.044 149.747 141.494 135.395 139.668ZM161.25 89.6513C162.734 87.2498 155.386 79.1776 149.463 76.7028C143.71 74.299 136.371 74.955 131.917 78.2712C128.071 81.1343 123.467 88.6997 124.775 90.0071C126.458 91.6904 160.193 91.3613 161.25 89.6513ZM4.43859 136.511C0.605582 133.391 0.490462 132.579 0.750851 110.514C1.00905 88.6342 1.21396 87.3935 5.95543 79.001C12.5246 67.3733 20.008 61.6647 33.1628 58.2461C43.3942 55.5872 44.6463 55.5878 53.7623 58.2561C65.6384 61.7325 74.9693 69.7491 80.831 81.512C84.7478 89.372 85.1167 91.9343 85.1167 111.278C85.1167 131.236 84.8953 132.652 81.2379 136.088C76.2057 140.816 69.8719 140.722 65.2977 135.853C61.9837 132.326 61.6537 130.193 61.6537 112.307C61.6537 90.7084 60.0161 85.1313 52.4921 81.1046C46.7088 78.0094 37.5129 78.359 32.142 81.8782C25.2061 86.4227 23.1072 94.0104 23.1072 114.539C23.1072 130.794 22.7021 133.434 19.7553 136.38C15.5243 140.611 9.53767 140.663 4.43859 136.511ZM209.643 104.207C203.778 101.374 200.544 92.879 202.556 85.5915C204.966 76.863 213.796 66.0419 223.308 60.1614C230.535 55.693 232.991 55.0977 244.199 55.0977C253.85 55.0977 258.51 55.9419 263.604 58.6138C267.291 60.5477 270.307 62.6795 270.307 63.3511C270.307 64.0227 266.274 65.9926 261.344 67.7287C249.232 71.9942 239.646 80.2767 232.599 92.5652C225.41 105.102 218.621 108.545 209.643 104.207ZM649.488 77.5885C645.227 75.1069 645.446 63.3507 649.796 61.0224C658.141 56.5567 666.666 60.7618 666.666 69.3431C666.666 77.9019 657.543 82.2806 649.488 77.5885Z" fill="#AA5454"/>
</g>
<defs>
<clipPath id="clip0_826_3407">
<rect width="666.667" height="142" fill="white" transform="translate(0.666016)"/>
</clipPath>
</defs>
</svg>
