<svg width="693" height="116" viewBox="0 0 693 116" fill="none" xmlns="http://www.w3.org/2000/svg">
<path d="M109.895 115.032C101.279 113.266 95.7462 109.183 92.474 102.175C89.9897 96.8543 89.0465 90.337 90.121 85.9159C91.2794 81.1491 94.9115 75.4521 98.9089 72.1318C103.61 68.2266 110.455 65.8949 121.493 64.438C128.635 63.4955 135.782 62.0045 137.456 61.1081C138.53 60.5324 139.797 57.6483 140.067 55.162C140.324 52.7947 139.307 51.2372 136.554 49.7803C134.592 48.7422 134.246 48.6811 130.322 48.6811C126.719 48.6811 125.938 48.7929 124.441 49.5234C123.491 49.9867 122.341 50.7286 121.885 51.1722C120.852 52.1768 119.78 54.5826 119.77 55.9175L119.762 56.925H106.433C99.102 56.925 93.105 56.8014 93.1064 56.6502C93.1142 55.8151 94.571 50.1156 95.3043 48.0536C98.0148 40.4325 104.152 34.606 112.319 31.9004C117.832 30.0739 121.776 29.6399 132.918 29.634C141.522 29.6294 143.594 29.734 146.069 30.2983C156.818 32.7492 163.684 39.0347 166.23 48.7542C166.952 51.5135 166.986 52.4927 167.204 77.0769C167.448 104.508 167.389 103.615 169.404 110.511L170.234 113.35H156.446C143.614 113.35 142.646 113.306 142.48 112.709C142.382 112.356 142.11 110.701 141.876 109.031C141.609 107.131 141.307 106.052 141.07 106.148C140.861 106.233 139.448 107.251 137.929 108.411C134.484 111.043 130.474 113.113 126.478 114.321C123.9 115.101 122.493 115.275 117.858 115.391C114.115 115.483 111.533 115.367 109.895 115.032H109.895ZM130.891 97.0663C134.807 96.1879 136.381 95.0338 138.753 91.3003L139.843 89.5855V83.5144C139.843 80.1752 139.754 77.4432 139.646 77.4432C138.814 77.4432 121.836 83.438 121.154 83.9726C119.645 85.1563 118.736 87.2803 118.729 89.6377C118.712 96.1095 123.129 98.8075 130.891 97.0663ZM274.643 115.008C265.377 113.228 259.442 107.665 257.043 98.511C256.272 95.5685 255.963 88.1335 256.498 85.4078C257.247 81.5929 259.084 78.3373 262.55 74.681C264.97 72.1283 266.285 71.0625 268.287 70.0312C272.943 67.6319 278.24 66.2036 287.078 64.9645C298.854 63.3134 303.824 61.8794 305.14 59.753C305.812 58.6688 306.198 55.6444 305.889 53.8989C305.583 52.175 303.575 50.1493 301.211 49.1801C298.392 48.0247 293.694 48.0185 291.31 49.1671C288.278 50.6275 285.971 53.6925 285.951 56.2839L285.943 57.2915H272.614C265.283 57.2915 259.288 57.1678 259.292 57.0167C259.321 55.9721 260.761 50.0792 261.481 48.0596C264.788 38.7853 272.866 32.5654 284.469 30.3606C288.871 29.5239 301.702 28.9963 306.599 29.4506C319.131 30.6133 326.558 34.7705 330.155 42.6356C333.253 49.409 333.377 50.6781 333.704 78.9089C333.96 101.123 334.034 103.153 334.688 106.205C335.076 108.019 335.719 110.477 336.115 111.667C336.512 112.857 336.836 113.888 336.836 113.957C336.836 114.026 330.387 114.083 322.506 114.083H308.176L307.988 113.259C307.885 112.805 307.608 111.074 307.372 109.411C307.135 107.749 306.823 106.389 306.677 106.389C306.531 106.389 305.195 107.313 303.707 108.443C299.034 111.995 294.588 113.994 289.1 115.011C285.573 115.664 278.054 115.663 274.643 115.007L274.643 115.008ZM298.731 96.9838C301.194 96.142 303.244 94.1093 304.809 90.957L306.12 88.3165L306.05 82.9793C306.012 80.0438 305.926 77.5839 305.859 77.5129C305.792 77.4418 302.802 78.3863 299.216 79.6116C295.629 80.8369 291.81 82.095 290.73 82.4073C288.07 83.1759 286.613 84.2787 285.684 86.2257C284.258 89.2116 284.855 92.4311 287.319 95.0444C288.181 95.959 289.431 96.8902 290.098 97.1138C292.001 97.7521 296.689 97.6816 298.731 96.9838H298.731ZM367.536 115.187C359.195 114.071 350.972 111.024 346.112 107.248C341.347 103.547 337.917 96.6513 336.979 88.8888L336.746 86.961L350.37 87.0569L363.995 87.1527L364.241 88.6819C364.571 90.7287 365.25 92.0162 366.841 93.6159C369.055 95.8411 370.168 96.2619 374.271 96.4264C381.214 96.7047 384.96 94.4074 384.96 89.8706C384.96 85.6265 382.442 84.2844 368.168 80.9177C358.768 78.7005 357.194 78.2464 353.702 76.7427C345.571 73.2414 341.376 68.8817 339.391 61.8714C338.445 58.5288 338.524 52.4188 339.559 48.8643C342.264 39.5803 349.797 33.3383 361.451 30.7242C365.173 29.8891 372.703 29.3448 376.997 29.6003C389.225 30.3278 398.554 33.8922 404.244 40.0105C407.426 43.4324 409.015 46.8534 410.023 52.4498L410.499 55.0931H397.421H384.344L384.124 53.8529C383.621 51.016 380.948 48.165 377.89 47.2039C374.804 46.2338 369.724 46.7895 367.485 48.3423C366.352 49.1274 365.424 51.7866 365.685 53.4934C366.09 56.1331 367.822 57.3367 372.752 58.4053C378.432 59.6363 394.455 64.163 397.429 65.3766C400.948 66.8127 404.803 69.5204 407.075 72.152C409.206 74.6192 411.147 78.6615 411.688 81.7604C412.285 85.1754 411.628 93.2861 410.469 96.8138C407.295 106.472 399.639 112.173 386.517 114.65C382.897 115.333 371.122 115.666 367.536 115.187ZM445.373 114.982C429.309 111.809 418.734 100.118 415.563 82.0232C414.66 76.8736 414.659 66.0785 415.559 61.6882C417.865 50.4584 422.899 42.1658 430.779 36.6168C442.691 28.2284 461.084 27.0396 474.1 33.817C487.965 41.0367 495.263 56.841 493.999 76.9094C492.705 97.4456 482.596 110.297 464.414 114.519C460.162 115.507 449.359 115.769 445.373 114.982H445.373ZM457.771 93.0524C460.956 92.2592 463.241 90.1143 465.165 86.11C467.246 81.7797 468.15 74.2448 467.372 67.7087C466.094 56.962 462.415 52.0046 455.351 51.51C453.129 51.3545 452.633 51.4512 450.676 52.4201C446.57 54.4535 443.697 58.6023 442.607 64.0698C442.01 67.0679 441.919 75.3817 442.444 78.9088C444.075 89.8469 449.721 95.0569 457.771 93.0524ZM649.118 115.014C648.832 114.94 647.197 114.681 645.483 114.438C631.743 112.489 620.153 102.437 616.093 88.9489C612.709 77.703 613.251 63.8498 617.483 53.4041C623.895 37.5809 637.687 29.5217 657.035 30.2925C662.817 30.5229 666.378 31.2017 670.929 32.9407C676.27 34.9815 681.137 38.2557 683.615 41.4747C687.403 46.3968 690.397 53.5752 691.671 60.7908L691.96 62.4295L678.604 62.3337L665.247 62.2378L664.843 60.7593C663.092 54.3601 659.727 51.9094 653.136 52.2347C649.636 52.4074 648.744 52.7725 646.337 55.0176C642.874 58.2471 641.75 62.3333 641.732 71.7641C641.721 76.9766 641.843 78.5233 642.48 81.2443C643.828 87.0122 646.334 90.9652 649.719 92.665C650.682 93.1489 651.676 93.2478 654.443 93.1349C657.52 93.0094 658.171 92.8617 659.793 91.9212C660.808 91.3323 662.04 90.3482 662.531 89.7344C663.744 88.2172 664.944 85.3199 665.231 83.214L665.469 81.4736L668.978 81.4729C670.908 81.4725 677.027 81.3639 682.577 81.2315L692.666 80.9909L692.334 82.9247C690.869 91.4558 687.484 98.5185 682.225 104.019C675.469 111.085 666.583 114.693 655.177 115C652.13 115.082 649.404 115.088 649.118 115.014V115.014ZM582.299 72.4969V31.2773H596.321H610.343V72.4969V113.716H596.321H582.299V72.4969ZM0.666016 57.2566V1.16303L28.1032 1.33482C57.3203 1.51776 59.2467 1.62535 65.8868 3.44492C78.1192 6.79694 86.9965 16.2101 89.986 28.9988C92.2001 38.4705 91.4216 49.2829 87.889 58.1223C85.0193 65.303 79.0149 72.0826 72.8591 75.0926C66.4435 78.2296 61.5928 78.9467 45.2406 79.1757L32.1712 79.3587V96.3544V113.35H16.4186H0.666016V57.2566ZM48.6341 53.2652C55.2214 52.5305 58.7806 50.4977 60.8499 46.2882C61.9386 44.0735 62.0053 43.7344 61.8665 41.1192C61.6225 36.5201 59.6838 33.234 56.0606 31.2778C53.0025 29.6267 51.1253 29.3533 41.6054 29.1726L32.5174 29V41.3138V53.6275L39.0088 53.6211C42.5791 53.6175 46.9105 53.4575 48.6341 53.2652V53.2652ZM174.464 72.4969V31.6437H187.966H201.468V33.4204C201.468 34.3976 201.568 36.4527 201.691 37.9874L201.914 40.7777L204.758 37.7194C208.262 33.9529 211.69 31.9922 216.643 30.9215C226.546 28.7808 236.183 30.0335 242.115 34.2324C245.202 36.4177 247.138 38.8531 248.939 42.8188C251.74 48.9855 252.002 52.7151 252.009 86.5116L252.014 113.35H237.809H223.603L223.64 88.8931C223.673 67.432 223.607 64.0771 223.103 61.505C222.324 57.5302 221.647 56.4715 219.207 55.4085C217.573 54.6972 216.605 54.5435 213.758 54.5435C210.526 54.5435 210.17 54.619 208.392 55.68C206.136 57.0268 205.166 58.4086 204.232 61.6113C203.104 65.4751 202.859 71.0236 202.856 92.7403L202.853 113.35H188.658H174.464L174.464 72.4969ZM498.863 72.3137V31.2773H512.326H525.79L526.039 36.0127L526.288 40.7481L529.107 37.7147C532.521 34.0411 535.27 32.3428 539.943 31.0216C543.031 30.1486 543.969 30.0555 549.929 30.0303C555.28 30.0077 556.927 30.1264 558.757 30.6666C567.316 33.1922 573.115 39.6841 575.293 49.1796C575.778 51.2945 575.868 55.6443 575.976 82.4812L576.1 113.35H562.078H548.055L547.944 87.4275C547.843 63.8672 547.777 61.3303 547.224 59.5874C546.89 58.5327 546.271 57.2507 545.849 56.7384C544.892 55.5767 540.778 54.012 538.653 54.0016C535.332 53.9854 531.293 55.9126 530.004 58.1288C529.627 58.7766 528.906 60.6256 528.402 62.2378C527.505 65.1059 527.479 65.449 527.229 78.176C527.088 85.3299 526.958 96.1707 526.939 102.267L526.906 113.35H512.884H498.863V72.3137ZM582.299 11.1255V0.5H596.321H610.343V11.1255V21.751H596.321H582.299V11.1255Z" fill="#3E443E"/>
</svg>
