<svg width="211" height="43" viewBox="0 0 211 43" fill="none" xmlns="http://www.w3.org/2000/svg">
<g filter="url(#filter0_d_754_3224)">
<path d="M37.0692 35.0692C34.579 34.5871 32.9798 33.472 32.0341 31.5581C31.3161 30.1051 31.0435 28.3252 31.354 27.1179C31.6888 25.8161 32.7386 24.2603 33.8939 23.3535C35.2527 22.287 37.2309 21.6502 40.4212 21.2524C42.4853 20.995 44.551 20.5878 45.0346 20.343C45.3452 20.1858 45.7112 19.3982 45.7892 18.7191C45.8635 18.0727 45.5696 17.6473 44.7739 17.2494C44.2069 16.9659 44.1068 16.9493 42.9728 16.9493C41.9314 16.9493 41.7058 16.9798 41.273 17.1793C40.9985 17.3058 40.6661 17.5084 40.5343 17.6296C40.2359 17.9039 39.926 18.5609 39.9231 18.9255L39.9208 19.2006H36.0685C33.9497 19.2006 32.2165 19.1669 32.2169 19.1256C32.2191 18.8975 32.6402 17.341 32.8521 16.7779C33.6355 14.6966 35.4093 13.1054 37.7695 12.3665C39.363 11.8677 40.503 11.7492 43.7232 11.7476C46.2099 11.7463 46.8087 11.7749 47.5239 11.929C50.6306 12.5983 52.6151 14.3149 53.3508 16.9692C53.5597 17.7228 53.5694 17.9902 53.6325 24.704C53.7028 32.1954 53.6859 31.9514 54.2682 33.8345L54.508 34.61H50.5232C46.8144 34.61 46.5348 34.5979 46.4868 34.4349C46.4584 34.3386 46.3798 33.8866 46.3121 33.4304C46.235 32.9115 46.1478 32.6169 46.0792 32.6432C46.0188 32.6663 45.6104 32.9445 45.1715 33.2612C44.1757 33.98 43.0167 34.5452 41.8617 34.8752C41.1168 35.0882 40.7102 35.1358 39.3705 35.1672C38.2888 35.1926 37.5424 35.1608 37.0691 35.0692H37.0692ZM43.1373 30.163C44.2691 29.9231 44.7239 29.6079 45.4095 28.5883L45.7244 28.12V26.462C45.7244 25.5501 45.6989 24.804 45.6676 24.804C45.427 24.804 40.5202 26.4412 40.3231 26.5872C39.8869 26.9104 39.6242 27.4905 39.6224 28.1343C39.6173 29.9017 40.8939 30.6385 43.1373 30.163V30.163ZM84.6841 35.0626C82.0061 34.5766 80.2908 33.0574 79.5975 30.5575C79.3746 29.7539 79.2852 27.7235 79.4399 26.9791C79.6564 25.9373 80.1873 25.0482 81.1891 24.0497C81.8886 23.3525 82.2685 23.0615 82.847 22.7798C84.1928 22.1246 85.7237 21.7346 88.2781 21.3961C91.6814 20.9453 93.1179 20.5536 93.4984 19.9729C93.6924 19.6768 93.8041 18.8509 93.7147 18.3742C93.6264 17.9034 93.046 17.3502 92.3626 17.0855C91.548 16.77 90.19 16.7683 89.501 17.082C88.625 17.4808 87.9579 18.3178 87.9523 19.0255L87.95 19.3007H84.0977C81.9789 19.3007 80.2463 19.2669 80.2475 19.2256C80.2558 18.9404 80.6719 17.3311 80.88 16.7795C81.8359 14.2467 84.1707 12.5481 87.5238 11.946C88.7963 11.7175 92.5047 11.5734 93.92 11.6975C97.5419 12.015 99.6885 13.1503 100.728 15.2983C101.623 17.148 101.659 17.4946 101.754 25.2043C101.828 31.2707 101.849 31.8252 102.038 32.6588C102.15 33.1541 102.336 33.8253 102.451 34.1504C102.565 34.4754 102.659 34.7568 102.659 34.7757C102.659 34.7947 100.795 34.8101 98.5173 34.8101H94.3756L94.3215 34.585C94.2917 34.4612 94.2115 33.9884 94.1432 33.5343C94.075 33.0803 93.9846 32.7088 93.9424 32.7088C93.9003 32.7088 93.5141 32.9614 93.0842 33.27C91.7335 34.2398 90.4485 34.7857 88.8625 35.0635C87.843 35.242 85.67 35.2416 84.6841 35.0626L84.6841 35.0626ZM91.6459 30.1405C92.3578 29.9105 92.9503 29.3554 93.4026 28.4946L93.7816 27.7735L93.7614 26.3159C93.7503 25.5142 93.7254 24.8424 93.706 24.823C93.6866 24.8036 92.8226 25.0616 91.786 25.3962C90.7494 25.7308 89.6458 26.0744 89.3334 26.1597C88.5649 26.3696 88.1437 26.6708 87.8751 27.2025C87.4631 28.0179 87.6356 28.8971 88.3476 29.6108C88.5968 29.8606 88.9582 30.1149 89.1508 30.1759C89.7009 30.3503 91.0559 30.331 91.6459 30.1405H91.6459ZM111.532 35.1116C109.121 34.807 106.745 33.9748 105.34 32.9436C103.963 31.9327 102.971 30.0496 102.7 27.9298L102.633 27.4033L106.571 27.4295L110.508 27.4556L110.58 27.8733C110.675 28.4322 110.871 28.7838 111.331 29.2207C111.971 29.8284 112.292 29.9433 113.478 29.9882C115.485 30.0642 116.567 29.4368 116.567 28.1979C116.567 27.0388 115.84 26.6723 111.715 25.7529C108.998 25.1474 108.543 25.0234 107.534 24.6127C105.184 23.6565 103.971 22.4659 103.397 20.5514C103.124 19.6386 103.147 17.97 103.446 16.9993C104.228 14.4639 106.405 12.7592 109.773 12.0453C110.849 11.8173 113.025 11.6686 114.266 11.7384C117.8 11.9371 120.497 12.9105 122.141 14.5813C123.061 15.5159 123.52 16.4501 123.811 17.9785L123.949 18.7003H120.169H116.39L116.326 18.3616C116.181 17.5869 115.408 16.8083 114.524 16.5458C113.632 16.2809 112.164 16.4327 111.517 16.8567C111.19 17.0711 110.921 17.7973 110.997 18.2635C111.114 18.9843 111.614 19.313 113.039 19.6049C114.681 19.9411 119.312 21.1773 120.171 21.5087C121.188 21.9009 122.303 22.6403 122.959 23.359C123.575 24.0328 124.136 25.1367 124.293 25.983C124.465 26.9156 124.275 29.1306 123.94 30.094C123.023 32.7315 120.81 34.2886 117.018 34.965C115.971 35.1516 112.568 35.2426 111.532 35.1116V35.1116ZM134.028 35.0555C129.385 34.189 126.329 30.9963 125.412 26.0548C125.151 24.6485 125.151 21.7004 125.411 20.5014C126.078 17.4346 127.533 15.17 129.81 13.6546C133.253 11.3637 138.569 11.0391 142.331 12.8899C146.338 14.8616 148.447 19.1777 148.082 24.6582C147.708 30.2666 144.786 33.7762 139.531 34.9293C138.302 35.199 135.18 35.2706 134.028 35.0555H134.028ZM137.611 29.0668C138.532 28.8502 139.192 28.2644 139.748 27.1709C140.35 25.9883 140.611 23.9305 140.386 22.1456C140.017 19.2107 138.954 17.8569 136.912 17.7218C136.27 17.6793 136.126 17.7057 135.561 17.9704C134.374 18.5257 133.544 19.6587 133.229 21.1518C133.056 21.9706 133.03 24.241 133.182 25.2043C133.653 28.1914 135.285 29.6142 137.611 29.0668V29.0668ZM192.914 35.0645C192.831 35.0443 192.359 34.9734 191.863 34.907C187.892 34.3748 184.542 31.6297 183.369 27.9461C182.391 24.875 182.548 21.0917 183.771 18.2391C185.624 13.9179 189.61 11.7169 195.202 11.9274C196.873 11.9903 197.902 12.1757 199.218 12.6506C200.761 13.208 202.168 14.1021 202.884 14.9812C203.979 16.3254 204.844 18.2858 205.212 20.2563L205.296 20.7039L201.436 20.6777L197.575 20.6515L197.459 20.2477C196.953 18.5001 195.98 17.8309 194.075 17.9197C193.064 17.9669 192.806 18.0666 192.11 18.6797C191.109 19.5617 190.784 20.6776 190.779 23.2531C190.776 24.6766 190.811 25.099 190.995 25.8421C191.385 27.4173 192.109 28.4968 193.087 28.961C193.366 29.0932 193.653 29.1202 194.453 29.0893C195.342 29.0551 195.53 29.0147 195.999 28.7579C196.292 28.5971 196.649 28.3283 196.79 28.1607C197.141 27.7463 197.488 26.9551 197.571 26.38L197.639 25.9047L198.654 25.9045C199.212 25.9044 200.98 25.8747 202.584 25.8386L205.5 25.7729L205.404 26.301C204.981 28.6308 204.002 30.5596 202.482 32.0617C200.53 33.9914 197.961 34.9767 194.665 35.0605C193.784 35.0829 192.996 35.0847 192.914 35.0645V35.0645ZM173.602 23.4532V12.1964H177.655H181.707V23.4532V34.71H177.655H173.602V23.4532ZM5.5 19.2912V3.97233L13.4298 4.01924C21.8741 4.0692 22.4308 4.09859 24.3499 4.5955C27.8853 5.51092 30.451 8.08161 31.315 11.5741C31.955 14.1608 31.7299 17.1136 30.709 19.5276C29.8796 21.4886 28.1442 23.3401 26.3651 24.1621C24.5108 25.0188 23.1089 25.2146 18.3828 25.2772L14.6055 25.3271V29.9686V34.61H10.0528H5.5V19.2912ZM19.3636 18.2011C21.2675 18.0005 22.2961 17.4453 22.8942 16.2958C23.2088 15.6909 23.2281 15.5983 23.188 14.8841C23.1175 13.6282 22.5572 12.7307 21.51 12.1965C20.6262 11.7456 20.0836 11.6709 17.3322 11.6216L14.7056 11.5745V14.9373V18.3001L16.5817 18.2983C17.6136 18.2974 18.8655 18.2536 19.3636 18.2011V18.2011ZM55.7305 23.4532V12.2964H59.6329H63.5353V12.7816C63.5353 13.0485 63.5642 13.6097 63.5997 14.0289L63.6641 14.7909L64.4862 13.9557C65.4988 12.9271 66.4895 12.3916 67.921 12.0992C70.7831 11.5146 73.5685 11.8567 75.283 13.0034C76.1753 13.6002 76.7347 14.2653 77.2553 15.3483C78.0648 17.0324 78.1406 18.0509 78.1426 27.2805L78.1441 34.61H74.0383H69.9326L69.9433 27.9309C69.9528 22.07 69.9338 21.1538 69.7881 20.4514C69.563 19.3659 69.3675 19.0768 68.662 18.7865C68.19 18.5922 67.9101 18.5502 67.0874 18.5502C66.1533 18.5502 66.0502 18.5709 65.5364 18.8606C64.8843 19.2284 64.6041 19.6058 64.334 20.4804C64.0081 21.5356 63.9372 23.0508 63.9363 28.9816L63.9355 34.61H59.8331H55.7306L55.7305 23.4532ZM149.487 23.4032V12.1964H153.379H157.27L157.342 13.4896L157.414 14.7828L158.229 13.9544C159.215 12.9511 160.01 12.4874 161.36 12.1265C162.253 11.8881 162.524 11.8627 164.246 11.8558C165.793 11.8496 166.269 11.8821 166.798 12.0296C169.272 12.7193 170.948 14.4922 171.577 17.0854C171.717 17.663 171.743 18.8509 171.775 26.1799L171.811 34.61H167.758H163.705L163.673 27.5307C163.644 21.0965 163.625 20.4037 163.465 19.9277C163.368 19.6397 163.189 19.2896 163.067 19.1497C162.791 18.8324 161.602 18.4051 160.988 18.4022C160.028 18.3978 158.86 18.9241 158.488 19.5294C158.379 19.7063 158.17 20.2112 158.025 20.6515C157.765 21.4348 157.758 21.5285 157.686 25.0041C157.645 26.9578 157.607 29.9184 157.602 31.5831L157.592 34.61H153.54H149.487V23.4032ZM173.602 6.69302V3.79126H177.655H181.707V6.69302V9.59479H177.655H173.602V6.69302Z" fill="#3E443E"/>
</g>
<defs>
<filter id="filter0_d_754_3224" x="0.5" y="0.79126" width="210" height="41.4059" filterUnits="userSpaceOnUse" color-interpolation-filters="sRGB">
<feFlood flood-opacity="0" result="BackgroundImageFix"/>
<feColorMatrix in="SourceAlpha" type="matrix" values="0 0 0 0 0 0 0 0 0 0 0 0 0 0 0 0 0 0 127 0" result="hardAlpha"/>
<feOffset dy="2"/>
<feGaussianBlur stdDeviation="2.5"/>
<feColorMatrix type="matrix" values="0 0 0 0 0 0 0 0 0 0 0 0 0 0 0 0 0 0 0.25 0"/>
<feBlend mode="normal" in2="BackgroundImageFix" result="effect1_dropShadow_754_3224"/>
<feBlend mode="normal" in="SourceGraphic" in2="effect1_dropShadow_754_3224" result="shape"/>
</filter>
</defs>
</svg>
