<?xml version="1.0" encoding="UTF-8" standalone="no"?>
<svg
   width="649"
   height="146"
   viewBox="0 0 649 146"
   fill="none"
   version="1.1"
   id="svg7"
   sodipodi:docname="Rotenso logo.svg"
   inkscape:version="1.3 (0e150ed6c4, 2023-07-21)"
   xmlns:inkscape="http://www.inkscape.org/namespaces/inkscape"
   xmlns:sodipodi="http://sodipodi.sourceforge.net/DTD/sodipodi-0.dtd"
   xmlns="http://www.w3.org/2000/svg"
   xmlns:svg="http://www.w3.org/2000/svg">
  <defs
     id="defs7" />
  <sodipodi:namedview
     id="namedview7"
     pagecolor="#ffffff"
     bordercolor="#000000"
     borderopacity="0.25"
     inkscape:showpageshadow="2"
     inkscape:pageopacity="0.0"
     inkscape:pagecheckerboard="0"
     inkscape:deskcolor="#d1d1d1"
     inkscape:zoom="0.99691834"
     inkscape:cx="324.5"
     inkscape:cy="194.09815"
     inkscape:window-width="1866"
     inkscape:window-height="1131"
     inkscape:window-x="54"
     inkscape:window-y="32"
     inkscape:window-maximized="1"
     inkscape:current-layer="svg7" />
  <g
     id="g7">
    <path
       d="M608.964 19.8932L607.311 14.1042L618.146 13.6722C631.427 13.1427 641.362 12.0467 645.485 10.6562C647.196 10.0793 648.751 9.78028 648.939 9.99176C649.651 10.7885 643.87 15.5565 638.819 18.3397C633.253 21.4068 626.031 23.7585 618.487 24.9602C610.419 26.2454 610.842 26.4701 608.964 19.8932Z"
       fill="#AA5454"
       id="path4" />
    <path
       d="m 590.04129,27.859437 c -0.601,-0.1782 -1.261,-0.8184 -1.468,-1.4227 -0.251,-0.7326 -0.106,-0.9214 0.436,-0.5667 0.446,0.2925 0.25,-0.1863 -0.437,-1.0642 -0.94,-1.1999 -1.021,-1.5988 -0.328,-1.6073 0.602,-0.0072 0.675,-0.1981 0.209,-0.5512 -0.392,-0.2969 -1.056,-1.664 -1.476,-3.0379 -0.901,-2.9478 -0.911,-3.059 -0.271,-2.8625 0.27,0.0831 1.413,-0.3997 2.54,-1.073 1.126,-0.6732 2.226,-1.0248 2.444,-0.7812 0.217,0.2435 0.814,0.053 1.326,-0.4233 0.618,-0.5749 3.216,-0.7955 7.723,-0.6559 l 6.791,0.2103 1.618,5.2902 c 0.891,2.9096 1.481,5.4325 1.312,5.6063 -0.169,0.1739 -3.948,0.4836 -8.397,0.6882 -4.45,0.2046 -8.397,0.7149 -8.771,1.1339 -0.373,0.419 -1.135,0.5661 -1.691,0.3269 -0.664,-0.2855 -0.849,-0.1396 -0.537,0.4249 0.261,0.4728 0.383,0.8214 0.271,0.7745 -0.111,-0.0469 -0.694,-0.2311 -1.294,-0.4093 z"
       fill="#3e443e"
       id="path5"
       sodipodi:nodetypes="csccccccccssccssccccc" />
    <path
       d="m 121.13045,143.59537 c 0,-0.359 -1.468,-0.458 -3.261,-0.22 -1.966,0.261 -3.428,0.13 -3.682,-0.329 -0.231,-0.419 -0.977,-0.599 -1.658,-0.4 -0.68,0.2 -1.237,0.025 -1.237,-0.389 0,-0.413 -0.745,-0.592 -1.656,-0.397 -0.91,0.195 -1.825,0.046 -2.034,-0.332 -0.208,-0.377 -0.791,-0.509 -1.296,-0.292 -0.504,0.217 -0.917,0.134 -0.917,-0.184 0,-0.596 -6.685304,-2.875 -7.141504,-2.435 -0.14,0.135 -0.4352,-0.03 -0.6559,-0.368 -0.7482,-1.145 -3.4027,-2.503 -4.0353,-2.065 -0.346,0.239 -0.6292,0.066 -0.6292,-0.386 0,-0.452 -0.2951,-0.617 -0.6558,-0.368 -0.3608,0.25 -0.6559,0.049 -0.6559,-0.446 0,-0.496 -0.179,-0.7 -0.3978,-0.455 -0.21881,0.245 -1.00131,-0.185 -1.73901,-0.955 -0.7377,-0.77 -1.5917,-1.226 -1.8978,-1.014 -0.3061,0.212 -0.5566,0.035 -0.5566,-0.393 0,-0.428 -0.4111,-0.778 -0.9136,-0.778 -0.5025,0 -1.0998,-0.544 -1.3272,-1.208 -0.2275,-0.664 -0.5709,-1.031 -0.7632,-0.816 -0.1923,0.216 -1.6923,-0.977 -3.3333,-2.65 -1.641,-1.674 -3.1738,-2.98 -3.4062,-2.903 -0.6798,0.223 -3.363895,-2.871 -3.024095,-3.486 0.1702,-0.309 -0.5604,-1.382 -1.6236,-2.384 -1.0631,-1.002 -1.7862,-1.987 -1.6069,-2.188 0.1794,-0.201 -0.4671,-1.064 -1.4366,-1.919 -0.9694,-0.854 -1.5015,-1.564 -1.1823,-1.578 0.3192,-0.013 -0.0712,-0.634 -0.8675,-1.378 -0.7963,-0.745 -1.2705,-1.553 -1.0539,-1.796 0.2167,-0.243 -0.0893,-0.649 -0.68,-0.903 -0.5906,-0.254 -0.9231,-0.735 -0.7388,-1.069 0.1844,-0.334 -0.2582,-1.073 -0.9834,-1.643 -0.7252,-0.569 -1.1306,-1.245 -0.9009,-1.502 0.2297,-0.258 -0.0656,-0.676 -0.6563,-0.93 -0.5906,-0.254 -0.9093,-0.76 -0.7082,-1.125 0.2012,-0.365 -0.0939,-0.861 -0.6558,-1.102 -0.5619,-0.242 -0.8571,-0.738 -0.6559,-1.102003 0.2011,-0.365 -0.094,-0.8612 -0.6559,-1.1028 -0.5619,-0.2416 -0.857,-0.7376 -0.6559,-1.1023 0.2012,-0.3647 -0.094,-0.8607 -0.6558,-1.1023 -0.5619,-0.2416 -0.886,-0.6853 -0.7202,-0.9859 0.1658,-0.3006 -0.2608,-1.2228 -0.9481,-2.0494 -0.6872,-0.8265 -1.0775,-1.6956 -0.8672,-1.9312 0.2103,-0.2356 -0.101,-0.6361 -0.6916,-0.8901 -0.5907,-0.2539 -0.9107,-0.7578 -0.7111,-1.1196 0.1996,-0.3618 0.0329,-0.6579 -0.3704,-0.6579 -0.4033,0 -0.5496,-0.333 -0.3251,-0.74 0.2246,-0.4071 -0.0515,-0.9378 -0.6134,-1.1794 -0.5619,-0.2415 -0.8583,-0.7353 -0.6587,-1.0971 0.1996,-0.3618 0.0329,-0.6579 -0.3704,-0.6579 -0.4033,0 -0.5576,-0.3186 -0.3427,-0.7081 0.2148,-0.3894 -0.1859,-1.3539 -0.8905,-2.1433 -0.7046,-0.7895 -1.1089,-1.6283 -0.8984,-1.8641 0.2104,-0.2357 0.0208,-0.4286 -0.4213,-0.4286 -0.4422,0 -0.6215,-0.3307 -0.3986,-0.7349 0.223,-0.4042 0.0436,-0.7349 -0.3985,-0.7349 -0.4422,0 -0.6149,-0.2117 -0.384,-0.4705 0.5044,-0.5651 -1.5607,-4.6736 -2.3491,-4.6736 -0.3042,0 -0.3707,-0.3307 -0.1478,-0.7349 0.223,-0.4042 0.0754,-0.7349 -0.3279,-0.7349 -0.4033,0 -0.5509,-0.3307 -0.3279,-0.7349 0.2229,-0.4042 0.0753,-0.7349 -0.328,-0.7349 -0.4033,0 -0.5656,-0.304 -0.3606,-0.6756 0.205,-0.3716 10e-4,-1.1235 -0.4532,-1.671 -0.4542,-0.5474 -0.9233,-1.4803 -1.0424,-2.0732 -0.1191,-0.5928 -0.5133,-1.2833 -0.8759,-1.5344 -0.3626,-0.2511 -0.5908,-0.5849 -0.5071,-0.7418 0.3443,-0.645 -0.833,-3.5923 -1.4348,-3.5923 -0.3578,0 -0.468,-0.3307 -0.2451,-0.7348 0.223,-0.4042 0.0754,-0.7349 -0.3279,-0.7349 -0.4033,0 -0.5665,-0.3025 -0.3626,-0.6721 0.2039,-0.3697 0.0832,-0.7831 -0.2682,-0.9186 -0.3514,-0.1356 -0.4142,-0.6516 -0.1395,-1.1468 0.3393,-0.6114 3.0675,-0.9647 8.5054,-1.1013 4.4033,-0.1105 8.006,-0.4391 8.006,-0.7301 0,-0.2911 0.4427,-0.3388 0.9838,-0.1062 0.5411,0.2327 0.9838,0.0673 0.9838,-0.3674 0,-0.4347 0.4427,-0.6001 0.9838,-0.3674 0.5411,0.2326 0.9838,0.0374 0.9838,-0.4339 0,-0.4713 0.2952,-0.6525 0.6559,-0.4027 0.3607,0.2498 0.6559,0.0844 0.6559,-0.3675 0,-0.4518 0.2951,-0.6172 0.6559,-0.3674 0.3607,0.2498 0.6558,0.0844 0.6558,-0.3674 0,-0.4519 0.2819,-0.6265 0.6264,-0.3879 0.8358,0.5788 9.3978,-8.9687 8.8818,-9.9042 -0.2218,-0.4021 -0.0733,-0.7311 0.33,-0.7311 0.4033,0 0.5509,-0.3307 0.328,-0.7349 -0.223,-0.4042 -0.0754,-0.7349 0.3279,-0.7349 0.4033,0 0.5635,-0.3078 0.356,-0.6841 -0.2076,-0.3762 -0.0573,-0.9057 0.3339,-1.1766 0.3912,-0.2709 0.5529,-0.9552 0.3592,-1.5206 -0.1936,-0.5654 -0.0662,-1.028 0.2832,-1.028 0.3495,0 0.6353,-1.6534 0.6353,-3.6744 0,-2.0209 -0.2858,-3.6743 -0.6353,-3.6743 -0.3494,0 -0.4654,-0.4961 -0.2577,-1.1024 0.2076,-0.6062 0.0334,-1.1023 -0.3873,-1.1023 -0.4206,0 -0.5823,-0.3307 -0.3594,-0.7349 0.223,-0.4041 0.0754,-0.7348 -0.3279,-0.7348 -0.4033,0 -0.5621,-0.3104 -0.3529,-0.6898 0.2093,-0.3793 -0.0169,-0.958 -0.5026,-1.286 -0.4857,-0.328 -1.0892,-1.2224 -1.341,-1.9875 -0.2518,-0.7652 -0.6352,-1.1926 -0.8518,-0.9499 -0.2167,0.2428 -0.8738,-0.2209 -1.4603,-1.0304 -0.5865,-0.8095 -1.7304,-1.5272 -2.5421,-1.5949 -0.8116,-0.0677 -1.4757,-0.4029 -1.4757,-0.745 0,-0.342 -0.3081,-0.4085 -0.6846,-0.1478 -0.3766,0.2608 -1.1003,0.0876 -1.6082,-0.3847 -0.508,-0.4724 -1.5033,-0.6528 -2.2117,-0.4009 -0.7084,0.252 -1.4786,0.1126 -1.7115,-0.3096 -0.2776,-0.5034 -5.8844,-0.7373 -16.2881,-0.6796 -8.7257,0.0484 -16.394,-0.1565 -17.0409,-0.4553 -0.6468,-0.2989 -1.3575,-0.3401 -1.5793,-0.0916 -0.2218,0.2486 -0.7956,0.0871 -1.2751,-0.3588 -0.4796,-0.4459 -1.3089,-0.6228 -1.843,-0.3932 -0.5342,0.2297 -1.1581,0.0788 -1.3865,-0.3353 -0.2284,-0.4141 -0.8091,-0.5836 -1.2904,-0.3766 -0.4813,0.2069 -0.9679,0.0956 -1.0814,-0.2473 -0.1135,-0.3429 -0.9442,-0.7377 -1.8461,-0.8773 -0.9018,-0.1395996 -1.7872,-0.4573996 -1.9676,-0.7061996 -0.31,-0.4277 -4.8478699,-3.1292 -6.2056099,-3.69437 -1.45508,-0.60569 -3.3324,-3.33139 -3.47076,-5.03922997 -0.10649,-1.31456 0.0171,-1.54542 0.43436,-0.81152 0.32076,0.56413 1.04625,0.82659 1.61221,0.58326 0.56595,-0.24334 1.21934,-0.0974 1.45197,0.32438 0.23262,0.42173997 0.97995,0.60359997 1.6607,0.40413997 0.68076,-0.19945997 1.23774,-0.0261 1.23774,0.3852 0,0.45972 0.90364,0.55793 2.3452899,0.25489 1.4682,-0.30862 2.6962,-0.16663 3.2837,0.37969 0.6155,0.57234 2.0488,0.70762 4.1649,0.39311 1.7745,-0.26375 3.3722,-0.21505 3.5505,0.10822 0.1783,0.32326 11.2682,0.51772 24.6441,0.43213 16.5414,-0.10584 24.3199,0.0897 24.3199,0.61127 0,0.42178 0.4428,0.57653 0.9839,0.34388 0.5411,-0.23266 0.9838,-0.0673 0.9838,0.36744 0,0.43474 0.4427,0.60008 0.9838,0.36743 0.5411,-0.23265 0.9838,-0.0832 0.9838,0.33219 0,0.41535 0.2952,0.55081 0.6559,0.30101 0.360695,-0.2498 0.655895,-0.0845 0.655895,0.36744 0,0.45189 0.2642,0.63865 0.5871,0.41503 0.323,-0.22363 0.7636,0.10851 0.9792,0.73808 0.2156,0.62958 0.6155,1.02848 0.8886,0.88645 0.2731,-0.14205 1.4305,0.82909 2.5719,2.15808 1.1415,1.3288996 1.8794,2.4267996 1.6397,2.4395996 -0.2396,0.0128 0.0363,0.4263 0.6132,0.9186 1.1498,0.9814 1.1175,0.9178 1.6696,3.2836 0.2123,0.9094 0.5823,1.6535 0.8223,1.6535 0.24,0 0.4996,0.8563 0.5769,1.9028 0.0773,1.0466 0.3603,2.2867 0.6289,2.7558 0.6289,1.0985 0.6576,13.2196 0.0325,13.7423 -0.2607,0.2179 -0.5462,1.458 -0.6344,2.7558 -0.0883,1.2977 -0.4244,2.3594 -0.747,2.3594 -0.3226,0 -0.4167,0.4961 -0.209,1.1024 0.2076,0.6062 0.0742,1.1023 -0.2965,1.1023 -0.3707,0 -0.4916,0.3307 -0.2687,0.7349 0.223,0.4041 0.0437,0.7348 -0.3985,0.7348 -0.4422,0 -0.6317,0.1929 -0.4213,0.4287 0.2104,0.2358 -0.1939,1.0746 -0.8985,1.864 -0.7045,0.7895 -1.077,1.8051 -0.8278,2.257 0.2493,0.4519 0.1863,0.6481 -0.14,0.4361 -0.3263,-0.212 -1.3311,0.6339 -2.2329,1.8797 -0.9019,1.2458 -1.197,1.9727 -0.6559,1.6153 0.6176,-0.4079 0.524,-0.0621 -0.2517,0.929 -0.6794,0.8683 -1.4675,1.4181 -1.7511,1.2217 -0.2836,-0.1965 -1.0904,0.4615 -1.792895,1.4621 -0.7025,1.0006 -1.457,1.6178 -1.6768,1.3716 -0.2198,-0.2462 -0.585,0.0938 -0.8117,0.7556 -0.2266,0.6618 -0.6784,1.0189 -1.0039,0.7935 -0.3254,-0.2254 -0.7681,0.1053 -0.9838,0.7348 -0.2156,0.6296 -0.6562,0.9618 -0.9791,0.7381 -0.323,-0.2236 -0.5872,-0.0368 -0.5872,0.4151 0,0.4519 -0.2951,0.6172 -0.6559,0.3674 -0.3607,-0.2498 -0.6559,-0.1143 -0.6559,0.301 0,0.4154 -0.4128,0.5777 -0.9174,0.3607 -0.5047,-0.2169 -1.1124,-0.0412 -1.3505,0.3905 -0.2381,0.4318 -0.9402,0.785 -1.5601,0.785 -0.6199,0 -1.7824,0.5143 -2.5833,1.1428 l -1.4563,1.1429 2.7193,5.8385 c 1.4956,3.2112 2.9881,5.8385 3.3167,5.8385 0.3285,0 0.4149,0.3307 0.1919,0.7349 -0.2229,0.4042 -0.0753,0.7349 0.328,0.7349 0.4033,0 0.5509,0.3307 0.3279,0.7349 -0.2229,0.4041 -0.0754,0.7348 0.328,0.7348 0.4033,0 0.5508,0.3307 0.3279,0.7349 -0.2229,0.4042 -0.0754,0.7349 0.3279,0.7349 0.4034,0 0.5509,0.3307 0.328,0.7349 -0.223,0.4042 -0.0436,0.7349 0.3985,0.7349 0.4422,0 0.6189,0.2072 0.3928,0.4606 -0.5562,0.6232 1.3646,4.6835 2.2157,4.6835 0.3727,0 0.4953,0.3307 0.2724,0.7349 -0.223,0.4042 -0.0754,0.7349 0.3279,0.7349 0.4033,0 0.5575,0.3186 0.3427,0.708 -0.2148,0.3895 0.2105,1.3816 0.9451,2.2047 0.7347,0.8231 1.3297,1.6654 1.3224,1.8717 -0.0352,0.9935 2.096295,4.769403 2.692395,4.769403 0.3727,0 0.5236,0.279 0.3353,0.62 -0.1884,0.342 0.6384,1.821 1.8372,3.288 1.1989,1.466 2.061,2.799 1.9158,2.962 -0.1452,0.162 0.6175,1.127 1.695,2.142 1.0774,1.016 1.8345,1.987 1.6825,2.157 -0.1521,0.17 1.2345,1.943 3.0813,3.94 1.8467,1.996 3.12921,3.134 2.84981,2.528 -0.27931,-0.607 0.4045,0.055 1.5196,1.469 1.1151,1.415 2.0395,2.251 2.0541,1.858 0.0146,-0.393 0.4896,0.026 1.0554,0.931 0.5657,0.905 1.3036,1.455 1.6397,1.222 0.336,-0.232 0.611,-0.073 0.611,0.355 0,0.428 0.3074,0.779 0.6833,0.779 0.3758,0 1.305904,0.65 2.066904,1.444 0.7606,0.794 1.6346,1.271 1.9406,1.059 0.306,-0.212 0.556,-0.016 0.556,0.436 0,0.452 0.295,0.617 0.656,0.368 0.361,-0.25 0.656,-0.085 0.656,0.367 0,0.452 0.295,0.617 0.656,0.367 0.361,-0.249 0.656,-0.084 0.656,0.368 0,0.452 0.295,0.617 0.656,0.367 0.36,-0.249 0.655,-0.084 0.655,0.368 0,0.452 0.296,0.617 0.656,0.367 0.361,-0.25 0.656,-0.084 0.656,0.368 0,0.452 0.27,0.634 0.6,0.406 0.33,-0.229 0.703,-0.068 0.83,0.357 0.126,0.424 0.889,0.827 1.695,0.895 0.807,0.069 1.466,0.42 1.466,0.781 0,0.362 0.424,0.475 0.942,0.253 0.518,-0.223 1.043,-0.063 1.168,0.356 0.124,0.419 1.029,0.814 2.009,0.877 0.981,0.064 1.784,0.4 1.784,0.746 0,0.347 0.407,0.455 0.904,0.241 0.497,-0.213 1.194,-0.063 1.549,0.334 0.355,0.398 1.717,0.785 3.028,0.862 1.311,0.076 2.385,0.411 2.387,0.746 0.001,0.334 0.962,0.548 2.134,0.476 1.173,-0.072 2.427,-0.039 2.788,0.073 0.361,0.112 2.279,0.261 4.263,0.333 1.984,0.071 4.426,0.299 5.427,0.507 1.001,0.207 1.948,0.145 2.104,-0.138 0.156,-0.284 2.953,-0.529 6.215,-0.547 3.525,-0.018 6.307,-0.38 6.857,-0.891 0.632,-0.588 1.059,-0.616 1.349,-0.089 0.234,0.424 -0.035,0.77 -0.597,0.77 -0.563,0 -1.023,0.351 -1.023,0.779 0,0.428 -0.244,0.608 -0.544,0.401 -0.489,-0.339 -5.493,1.063 -7.982,2.237 -0.541,0.255 -2.286,0.57 -3.878,0.701 -1.592,0.13 -3.181,0.559 -3.533,0.952 -0.351,0.394 -2.074,0.526 -3.829,0.293 -1.754,-0.233 -3.189,-0.129 -3.189,0.23 0,0.36 -2.804,0.654 -6.231,0.654 -3.427,0 -6.231,-0.294 -6.231,-0.654 z m -43.944014,-20.544 c 0,-0.139 -0.664,-0.883 -1.475695,-1.653 l -1.4757,-1.4 1.2494,1.653 c 1.174195,1.554 1.701995,1.988 1.701995,1.4 z m 57.009014,-21.6 c -1.543,-0.501 -2.935,-0.764 -3.094,-0.586 -0.159,0.178 -0.735,-0.176 -1.279,-0.786 -0.545,-0.610003 -1.411,-0.929003 -1.924,-0.708003 -0.513,0.22 -0.766,0.098 -0.562,-0.2727 0.392,-0.7104 -2.135,-1.9516 -3.255,-1.5986 -0.36,0.1138 -0.456,-0.0172 -0.211,-0.291 0.244,-0.2738 -0.989,-1.9237 -2.74,-3.6665 -1.751,-1.7427 -3.016,-3.3573 -2.81,-3.5879 0.206,-0.2306 -0.109,-0.6271 -0.7,-0.8811 -0.59,-0.2539 -0.91,-0.7577 -0.711,-1.1196 0.2,-0.3618 0.033,-0.6578 -0.37,-0.6578 -0.404,0 -0.551,-0.3307 -0.328,-0.7349 0.223,-0.4042 0.075,-0.7349 -0.328,-0.7349 -0.403,0 -0.551,-0.3307 -0.328,-0.7349 0.223,-0.4042 0.102,-0.7348 -0.269,-0.7348 -0.37,0 -0.504,-0.4961 -0.296,-1.1024 0.207,-0.6062 0.033,-1.1023 -0.387,-1.1023 -0.421,0 -0.595,-0.3078 -0.388,-0.6841 0.208,-0.3763 0.076,-0.8926 -0.291,-1.1474 -0.368,-0.2547 -0.489,-1.2697 -0.268,-2.2554 0.221,-0.9857 0.123,-1.7921 -0.217,-1.7921 -0.72,0 -0.602,-15.8732 0.132,-17.8209 0.266,-0.7073 0.3,-1.824 0.075,-2.4815 -0.225,-0.6575 -0.112,-1.5972 0.252,-2.0883 0.364,-0.4911 0.758,-1.8546 0.876,-3.0301 0.119,-1.1755 0.578,-2.8881 1.02,-3.8059 0.443,-0.9177 0.639,-1.9697 0.436,-2.3376 -0.202,-0.3679 -0.064,-0.8799 0.309,-1.1379 0.372,-0.2579 0.507,-0.7768 0.3,-1.1531 -0.208,-0.3762 -0.048,-0.6841 0.356,-0.6841 0.403,0 0.551,-0.3307 0.328,-0.7348 -0.223,-0.4042 -0.113,-0.7349 0.245,-0.7349 0.652,0 1.768,-2.8244 1.524,-3.8581 -0.071,-0.3032 0.183,-0.5512 0.565,-0.5512 0.382,0 0.531,-0.296 0.332,-0.6579 -0.2,-0.3618 0.096,-0.8555 0.658,-1.0971 0.562,-0.2416 0.857,-0.7376 0.656,-1.1023 -0.201,-0.3647 0.118,-0.8709 0.708,-1.1248 0.591,-0.254 0.901,-0.6561 0.689,-0.8936 -0.212,-0.2376 0.477,-1.2448 1.531,-2.2384 1.053,-0.9936 1.849,-2.1969 1.767,-2.6741 -0.082,-0.4771 0.199,-0.7925 0.625,-0.7008 0.426,0.0917 1.5,-0.7994 2.387,-1.9802 0.887,-1.1808 1.746,-1.9966 1.91,-1.8129 0.164,0.1837 1.064,-0.4613 2,-1.4334 0.936,-0.972 1.868,-1.5816 2.071,-1.3546 0.202,0.2271 0.368,0.007 0.368,-0.4879 0,-0.4954 0.295,-0.6963 0.656,-0.4465 0.361,0.2498 0.656,0.0844 0.656,-0.3675 0,-0.4519 0.252,-0.6473 0.559,-0.4343 0.308,0.213 1.107,-0.0614 1.776,-0.6098 0.67,-0.5484 1.599,-0.8331 2.065,-0.6327 0.466,0.2004 0.847,0.009 0.847,-0.4261 0,-0.4348 0.413,-0.613 0.917,-0.396 0.505,0.217 1.105,0.0557 1.333,-0.3584 0.229,-0.4141 0.849,-0.5666 1.378,-0.3389 0.53,0.2277 1.48,0.1774 2.111,-0.1117 0.631,-0.2891 3.361,-0.4348 6.067,-0.3239 7.319,0.3001 8.227,0.3983 9.068,0.981 0.424,0.2931 1.065,0.3285 1.426,0.0787 0.361,-0.2498 0.656,-0.0488 0.656,0.4466 0,0.4954 0.18,0.699 0.4,0.4525 0.22,-0.2465 1.548,0.364 2.951,1.3565 1.404,0.9926 2.552,1.6778 2.552,1.5228 0,-0.1551 1.408,1.2462 3.129,3.114 1.721,1.8678 3.03,3.6463 2.91,3.9523 -0.121,0.306 0.24,0.754 0.802,0.9956 0.562,0.2416 0.858,0.7353 0.659,1.0971 -0.2,0.3619 -0.033,0.6579 0.37,0.6579 0.403,0 0.566,0.304 0.361,0.6756 -0.205,0.3716 -0.001,1.1157 0.453,1.6535 0.454,0.5378 0.928,1.8046 1.052,2.8151 0.125,1.0104 0.477,1.9412 0.783,2.0684 0.307,0.1271 0.406,0.6724 0.221,1.2117 -0.185,0.5392 -0.094,1.1476 0.201,1.3519 0.622,0.4303 0.542,18.673 -0.089,20.4279 -0.233,0.6471 -0.362,1.4738 -0.287,1.8372 0.075,0.3635 -0.094,1.2538 -0.376,1.9786 -0.282,0.7247 -0.332,1.521 -0.11,1.7696 0.222,0.2485 0.075,0.8956 -0.327,1.438 -0.402,0.5424 -0.564,0.9862 -0.361,0.9862 0.203,0 -0.041,0.8857 -0.542,1.9683 -0.502,1.0825 -0.762,2.2399 -0.579,2.572 0.184,0.3322 -0.011,0.6039 -0.431,0.6039 -0.421,0 -0.595,0.496 -0.388,1.1023 0.208,0.6063 0.043,1.1023 -0.367,1.1023 -0.409,0 -0.561,0.2047 -0.338,0.455 0.223,0.2502 -0.026,0.9382 -0.553,1.529 -0.527,0.5907 -0.791,1.3781 -0.586,1.7497 0.205,0.3716 0.011,0.6756 -0.431,0.6756 -0.442,0 -0.631,0.1933 -0.42,0.4296 0.21,0.2362 -0.038,0.9803 -0.552,1.6534 -0.515,0.6732 -0.914,1.5021 -0.887,1.8421 0.027,0.3399 -0.487,1.0573 -1.142,1.5942 -0.655,0.5369 -1.204,1.2508 -1.22,1.5866 -0.038,0.807 -6.409,7.9254 -6.952,7.7672 -0.232,-0.0676 -1.173,0.6573 -2.091,1.6109 -0.918,0.9536 -1.835,1.548 -2.038,1.3209 -0.203,-0.227 -0.368,-0.0269 -0.368,0.4446 0,0.4716 -0.222,0.7918 -0.492,0.7118 -0.923,-0.2731 -3.444,0.9774 -3.444,1.7085 0,0.401 -0.289,0.528 -0.642,0.284 -0.353,-0.245 -1.312,-0.039 -2.132,0.457 -0.819,0.497003 -2.227,0.994003 -3.129,1.105003 -0.901,0.111 -2.377,0.438 -3.279,0.728 -2.68,0.861 -10.157,0.707 -13.17,-0.27 z m 10.096,-10.220803 c 0.233,-0.2611 1.379,-0.559 2.547,-0.6619 1.168,-0.103 2.232,-0.5528 2.365,-0.9996 0.133,-0.4468 0.512,-0.6254 0.842,-0.3969 0.329,0.2284 0.599,0.0456 0.599,-0.4063 0,-0.4519 0.298,-0.6158 0.661,-0.3642 0.363,0.2516 0.837,-0.0577 1.052,-0.6873 0.216,-0.6296 0.607,-0.9961 0.869,-0.8144 0.263,0.1816 1.918,-1.3085 3.678,-3.3112 1.761,-2.0028 3.004,-3.6414 2.764,-3.6414 -0.241,0 0.303,-0.8295 1.208,-1.8434 0.905,-1.0138 1.464,-2.1713 1.243,-2.5721 -0.221,-0.4007 -0.072,-0.7287 0.331,-0.7287 0.404,0 0.551,-0.3307 0.328,-0.7349 -0.223,-0.4041 -0.075,-0.7348 0.328,-0.7348 0.403,0 0.551,-0.3307 0.328,-0.7349 -0.223,-0.4042 -0.044,-0.7349 0.399,-0.7349 0.442,0 0.621,-0.2047 0.397,-0.4549 -0.223,-0.2502 0.04,-0.9543 0.585,-1.5645 0.544,-0.6103 0.835,-1.563 0.645,-2.1172 -0.19,-0.5542 -0.028,-1.0076 0.36,-1.0076 0.388,0 0.536,-0.496 0.328,-1.1023 -0.207,-0.6063 -0.06,-1.1023 0.328,-1.1023 0.388,0 0.55,-0.4557 0.359,-1.0128 -0.191,-0.557 -0.054,-1.3409 0.304,-1.742 1.844,-2.0668 1.747,-23.1587 -0.114,-24.4468 -0.413,-0.2864 -0.73,-0.8144 -0.703,-1.1734 0.096,-1.3045 -0.697,-3.2248 -1.331,-3.2248 -0.358,0 -0.509,-0.2571 -0.335,-0.5714 0.173,-0.3143 -0.843,-1.8606 -2.257,-3.4362 -1.415,-1.5755 -2.572,-2.6176 -2.572,-2.3156 0,0.302 -0.474,0.0184 -1.053,-0.6306 -0.589,-0.6596 -1.577,-0.9936 -2.241,-0.7575 -0.653,0.2323 -1.377,0.0781 -1.609,-0.3425 -0.511,-0.927 -4.06,-1.0218 -4.557,-0.1217 -0.195,0.3536 -1.159,0.643 -2.143,0.643 -0.983,0 -1.899,0.3741 -2.035,0.8313 -0.136,0.4572 -0.518,0.6444 -0.848,0.4159 -0.33,-0.2284 -0.6,-0.0456 -0.6,0.4063 0,0.4519 -0.292,0.6189 -0.65,0.3712 -0.358,-0.2477 -1.391,0.3792 -2.295,1.393 -0.905,1.0139 -1.646,1.6282 -1.646,1.3652 0,-0.263 -1.021,0.6311 -2.27,1.987 -1.248,1.3559 -2.135,2.7089 -1.971,3.0067 0.164,0.2978 -0.142,0.731 -0.681,0.9628 -0.54,0.2318 -0.981,0.9278 -0.981,1.5468 0,0.6189 -0.24,1.1253 -0.535,1.1253 -0.838,0 -3.528,5.7863 -3.074,6.6109 0.224,0.4059 0.109,0.7379 -0.256,0.7379 -0.766,0 -2.158,5.0666 -1.646,5.9938 0.188,0.3411 -0.003,0.6202 -0.424,0.6202 -0.484,0 -0.618,0.659 -0.364,1.7921 0.221,0.9857 0.107,1.9963 -0.254,2.2458 -0.36,0.2494 -0.659,1.5098 -0.664,2.8008 -0.005,1.291 -0.18,4.4141 -0.389,6.9402 -0.233,2.8081 -0.13,4.593 0.264,4.593 0.355,0 0.646,0.7441 0.647,1.6535 0.003,3.0626 0.766,6.7876 1.442,7.0401 0.369,0.1378 0.504,0.553 0.3,0.9226 -0.204,0.3697 -0.041,0.6722 0.362,0.6722 0.404,0 0.562,0.3103 0.353,0.6897 -0.209,0.3793 0.142,1.0306 0.781,1.4474 0.639,0.4167 0.885,0.7677 0.547,0.78 -0.338,0.0122 0.224,1.0027 1.248,2.2009 1.025,1.1982 2.113,2.0054 2.419,1.7938 0.305,-0.2116 0.555,-0.015 0.555,0.4369 0,0.4519 0.295,0.6173 0.656,0.3675 0.361,-0.2498 0.656,-0.0845 0.656,0.3674 0,0.4519 0.295,0.6173 0.656,0.3675 0.361,-0.2499 0.656,-0.0654 0.656,0.4097 0,0.5021 0.549,0.7031 1.311,0.4798 0.721,-0.2112 1.476,-0.0845 1.678,0.2818 0.423,0.7669 2.492,0.8937 3.119,0.191 z m 351.495,10.638803 c -0.263,-0.294 -1.511,-0.672 -2.773,-0.841 -1.263,-0.169 -2.789,-0.543 -3.392,-0.83 -0.603,-0.287003 -1.489,-0.596003 -1.968,-0.685003 -0.479,-0.089 -1.496,-0.5482 -2.26,-1.0198 -0.765,-0.4716 -1.576,-0.6486 -1.804,-0.3933 -0.228,0.2552 -0.414,0.023 -0.414,-0.5158 0,-0.5389 -0.192,-0.7654 -0.426,-0.5033 -0.736,0.8251 -2.93,-2.6359 -2.448,-3.8631 0.247,-0.6299 0.501,-1.8869 0.564,-2.7934 0.063,-0.9065 0.316,-1.8749 0.564,-2.1521 0.247,-0.2771 0.253,-1.6767 0.012,-3.1101 -0.414,-2.473 -0.378,-2.5411 0.701,-1.3318 0.626,0.7009 1.409,1.0864 1.74,0.8568 0.332,-0.2297 0.603,-0.0479 0.603,0.404 0,0.4519 0.296,0.6173 0.656,0.3675 0.361,-0.2498 0.656,-0.0845 0.656,0.3674 0,0.4519 0.295,0.6172 0.656,0.3674 0.361,-0.2498 0.656,-0.0488 0.656,0.4466 0,0.4954 0.183,0.696 0.406,0.4458 0.223,-0.2502 0.852,0.0444 1.396,0.6547 0.545,0.6102 1.395,0.9356 1.89,0.7229 0.494,-0.2126 0.899,-0.0309 0.899,0.4038 0,0.4348 0.443,0.6001 0.984,0.3674 0.541,-0.2326 0.984,-0.064 0.984,0.3746 0,0.4386 0.59,0.6246 1.311,0.4134 0.721,-0.2113 1.476,-0.0846 1.678,0.2817 0.49,0.8887 6.666,0.8569 7.159,-0.0369 0.213,-0.3865 0.783,-0.5329 1.266,-0.3252 0.483,0.2077 1.324,-0.1217 1.869,-0.732 0.544,-0.6102 1.166,-0.9126 1.381,-0.6719 0.214,0.2407 0.576,-0.1058 0.804,-0.7699 0.227,-0.6641 0.842,-1.2075 1.366,-1.2075 0.523,0 0.779,-0.3141 0.567,-0.698 -0.212,-0.3839 0.236,-1.0707 0.996,-1.5261 0.775,-0.4647 1.227,-1.2768 1.031,-1.8506 -0.193,-0.5623 -0.068,-1.2178 0.277,-1.4567 0.857,-0.5934 0.798,-4.7569 -0.068,-4.7569 -0.382,0 -0.484,-0.3809 -0.227,-0.8464 0.256,-0.4655 -0.078,-1.2922 -0.743,-1.8372 -0.665,-0.5449 -0.948,-0.9908 -0.627,-0.9908 0.32,0 -0.409,-1.1446 -1.619,-2.5435 -1.21,-1.3989 -2.416,-2.3938 -2.68,-2.2109 -0.264,0.1829 -0.979,-0.5201 -1.588,-1.5622 -0.61,-1.042 -1.269,-1.7146 -1.465,-1.4947 -0.197,0.22 -0.901,-0.33 -1.566,-1.2222 -0.664,-0.8923 -1.218,-1.3489 -1.23,-1.0147 -0.012,0.3341 -0.796,-0.4239 -1.743,-1.6845 -0.947,-1.2607 -1.842,-2.1569 -1.99,-1.9916 -0.314,0.3523 -5.089,-4.7824 -5.121,-5.5074 -0.013,-0.2708 -0.662,-1.3172 -1.445,-2.3255 -0.782,-1.0082 -1.249,-2.0268 -1.038,-2.2635 0.211,-0.2367 0.089,-0.4303 -0.272,-0.4303 -0.769,0 -0.748,0.1331 -1.373,-8.635 -0.267,-3.7388 -0.232,-6.7978 0.077,-6.7977 0.309,10e-5 0.392,-0.4958 0.184,-1.1021 -0.207,-0.6063 -0.146,-1.1023 0.137,-1.1023 0.427,0 2.623,-4.3909 2.743,-5.4848 0.057,-0.518 4.205,-5.2633 4.572,-5.2306 0.559,0.0497 4.591,-2.8046 4.591,-3.2494 0,-0.231 0.66,-0.4757 1.467,-0.5438 0.806,-0.068 1.569,-0.4712 1.695,-0.8958 0.127,-0.4247 0.5,-0.5852 0.83,-0.3568 0.33,0.2285 0.954,0.1703 1.386,-0.1294 0.874,-0.605 2.031,-0.7369 8.724,-0.9942 2.525,-0.0971 5.108,0.06 5.739,0.349 0.631,0.2891 1.575,0.3418 2.098,0.1171 0.522,-0.2247 1.862,0.1012 2.976,0.7241 1.115,0.623 2.435,0.9572 2.933,0.7428 0.499,-0.2144 1.738,0.4731 2.754,1.5277 1.178,1.2239 1.552,2.0278 1.032,2.222 -0.449,0.1674 -0.649,0.6068 -0.445,0.9765 0.204,0.3697 0.103,0.6721 -0.224,0.6721 -0.657,0 -2.98,5.3667 -2.98,6.883 0,0.5256 -0.394,0.9557 -0.875,0.9557 -0.481,0 -0.874,-0.2951 -0.874,-0.6557 0,-0.3607 -0.296,-0.4514 -0.656,-0.2016 -0.361,0.2498 -0.656,0.0685 -0.656,-0.4027 0,-0.4713 -0.443,-0.6666 -0.984,-0.4339 -0.541,0.2326 -0.984,0.0673 -0.984,-0.3674 0,-0.4348 -0.423,-0.6083 -0.941,-0.3857 -0.518,0.2226 -1.035,0.0945 -1.148,-0.2846 -0.189,-0.6297 -6.726,-1.7137 -9.061,-1.5024 -0.541,0.049 -1.5,0.1052 -2.131,0.125 -0.632,0.0197 -1.148,0.3657 -1.148,0.7686 0,0.4029 -0.295,0.5282 -0.656,0.2784 -0.361,-0.2498 -0.656,-0.0488 -0.656,0.4466 0,0.4954 -0.201,0.6756 -0.446,0.4005 -0.587,-0.6572 -4.201,3.2336 -3.755,4.0421 0.189,0.3423 0.012,0.6224 -0.39,0.6224 -0.403,0 -0.551,0.3307 -0.328,0.7349 0.223,0.4042 0.121,0.7349 -0.227,0.7349 -0.356,0 -0.535,1.7876 -0.411,4.0944 0.216,4.0122 1.639,7.6636 2.987,7.6636 0.374,0 0.524,0.2827 0.333,0.6281 -0.19,0.3454 0.448,1.4202 1.417,2.3884 1.393,1.3897 1.576,1.4509 0.868,0.2905 -0.492,-0.8084 0.17,-0.147 1.471,1.4698 1.302,1.6167 2.378,2.6469 2.392,2.2892 0.012,-0.3576 0.648,0.2385 1.411,1.3247 0.762,1.0863 1.539,1.8035 1.727,1.5938 0.187,-0.2096 0.912,0.4343 1.612,1.4311 0.7,0.9967 1.515,1.8123 1.811,1.8123 0.297,0 1.53,1.0516 2.74,2.3369 1.211,1.2854 1.758,2.0854 1.217,1.778 -0.541,-0.3075 -0.191,0.2603 0.778,1.2618 0.969,1.0015 1.584,2.0202 1.367,2.2639 -0.218,0.2437 -0.034,0.443 0.408,0.443 0.442,0 0.622,0.3307 0.399,0.7349 -0.223,0.4042 -0.156,0.7349 0.148,0.7349 0.633,0 0.702,0.4284 1.347,8.4494 0.417,5.1847 0.305,6.2653 -0.95,9.1689 -0.783,1.8103 -1.301,3.5125 -1.152,3.7828 0.149,0.2702 -0.212,0.6991 -0.803,0.953 -0.59,0.254 -0.923,0.6303 -0.739,0.8364 0.369,0.4142 -4.13,5.7737 -4.881,5.8127 -0.258,0.0134 -1.045,0.5761 -1.748,1.2502 -0.703,0.6741 -1.45,1.0324 -1.661,0.7961 -0.211,-0.2362 -0.383,-0.1141 -0.383,0.2714 0,0.3851 -0.66,0.7571 -1.466,0.8251 -0.807,0.068 -1.57,0.471003 -1.696,0.895003 -0.126,0.425 -0.458,0.615 -0.736,0.422 -0.279,-0.193 -1.508,-0.011 -2.732,0.404 -2.665,0.903 -11.566,1.302 -12.241,0.548 z m 87.334,-0.013 c -0.22,-0.399 -0.957,-0.562 -1.638,-0.363 -0.68,0.2 -1.237,0.048 -1.237,-0.336 0,-0.384 -0.369,-0.633 -0.82,-0.553 -0.451,0.08 -1.925,-0.405 -3.276,-1.078003 -1.351,-0.6733 -2.68,-1.27 -2.952,-1.3263 -0.272,-0.0563 -0.854,-0.6312 -1.294,-1.2776 -0.439,-0.6464 -0.808,-0.9662 -0.82,-0.7106 -0.027,0.6146 -5.537,-5.4546 -5.57,-6.1362 -0.015,-0.29 -0.518,-1.1715 -1.119,-1.9588 -0.602,-0.7873 -0.922,-1.6247 -0.711,-1.861 0.211,-0.2362 0.048,-0.4295 -0.361,-0.4295 -0.41,0 -0.59,-0.4534 -0.4,-1.0076 0.19,-0.5542 -0.114,-1.5217 -0.674,-2.15 -0.561,-0.6284 -0.842,-1.6631 -0.624,-2.2994 0.221,-0.645 0.058,-1.1569 -0.368,-1.1569 -0.421,0 -0.583,-0.3308 -0.36,-0.7349 0.223,-0.4042 0.189,-1.1275 -0.076,-1.6072 -0.703,-1.2753 -0.734,-16.9715 -0.035,-18.0469 0.327,-0.5031 0.439,-1.5779 0.25,-2.3884 -0.189,-0.8105 -0.044,-1.4737 0.322,-1.4737 0.378,0 0.492,-0.7744 0.264,-1.7921 -0.221,-0.9857 -0.085,-2.0113 0.301,-2.279 0.387,-0.2678 0.545,-0.9494 0.351,-1.5148 -0.193,-0.5654 -0.034,-1.028 0.354,-1.028 0.388,0 0.539,-0.4854 0.336,-1.0788 -0.204,-0.5933 -0.083,-1.2775 0.268,-1.5205 0.351,-0.243 0.468,-0.7496 0.261,-1.1259 -0.208,-0.3762 -0.033,-0.6841 0.387,-0.6841 0.421,0 0.595,-0.496 0.387,-1.1023 -0.207,-0.6063 -0.042,-1.1023 0.367,-1.1023 0.41,0 0.562,-0.2047 0.339,-0.4549 -0.223,-0.2502 0.025,-0.9383 0.553,-1.529 0.527,-0.5908 0.791,-1.3781 0.586,-1.7497 -0.205,-0.3716 -0.01,-0.6757 0.431,-0.6757 0.442,0 0.631,-0.1933 0.42,-0.4295 -0.211,-0.2363 0.038,-0.9803 0.552,-1.6535 0.515,-0.6732 0.92,-1.4899 0.901,-1.8149 -0.019,-0.325 0.643,-1.2597 1.471,-2.0769 0.827,-0.8173 1.113,-1.2607 0.636,-0.9853 -0.478,0.2754 0.997,-1.6009 3.279,-4.1696 2.281,-2.5686 4.332,-4.5937 4.557,-4.5002 0.226,0.0934 1.167,-0.6159 2.092,-1.5764 0.925,-0.9605 1.847,-1.5605 2.05,-1.3335 0.202,0.227 0.368,0.007 0.368,-0.4879 0,-0.4954 0.295,-0.6964 0.656,-0.4466 0.361,0.2498 0.656,0.0845 0.656,-0.3674 0,-0.4519 0.295,-0.6173 0.656,-0.3675 0.361,0.2498 0.656,0.1399 0.656,-0.2444 0,-0.3842 0.71,-0.8983 1.579,-1.1425 0.868,-0.2442 2.122,-0.6552 2.787,-0.9134 1.074,-0.4171 1.063,-0.3428 -0.096,0.6666 -0.717,0.6248 -1.529,0.9804 -1.804,0.7903 -0.661,-0.4576 -0.635,-0.1882 0.265,2.7547 0.419,1.3739 1.083,2.741 1.475,3.0379 0.466,0.3531 0.394,0.5438 -0.209,0.5512 -0.693,0.008 -0.611,0.4074 0.328,1.6073 0.687,0.8779 0.884,1.3567 0.437,1.0642 -0.557,-0.365 -0.684,-0.1568 -0.403,0.6632 0.296,0.8635 0.885,1.0694 2.124,0.742 1.569,-0.4144 1.532,-0.325 -0.432,1.0477 -1.181,0.8254 -2.425,1.5008 -2.765,1.5008 -0.339,0 -0.937,0.6706 -1.329,1.4903 -0.391,0.8197 -0.999,1.2912 -1.351,1.0477 -0.351,-0.2434 -0.558,-0.005 -0.459,0.5306 0.1,0.5352 -0.21,0.8823 -0.688,0.7713 -0.478,-0.1111 -0.691,0.1203 -0.474,0.5143 0.218,0.3939 -0.203,1.0751 -0.935,1.5138 -0.731,0.4387 -1.33,1.1305 -1.33,1.5373 0,0.4069 -0.58,1.4374 -1.289,2.2901 -0.709,0.8527 -1.134,1.831 -0.945,2.1739 0.189,0.343 0.015,0.6236 -0.389,0.6236 -0.404,0 -0.551,0.3307 -0.328,0.7349 0.223,0.4042 0.075,0.7349 -0.328,0.7349 -0.403,0 -0.567,0.3024 -0.363,0.6721 0.204,0.3696 0.083,0.783 -0.27,0.9186 -0.352,0.1356 -0.775,1.0732 -0.939,2.0837 -0.164,1.0104 -0.355,2.0025 -0.425,2.2046 -0.069,0.2021 -0.091,0.6155 -0.048,0.9186 0.042,0.3031 -0.249,0.5512 -0.649,0.5512 -0.401,0 -0.542,0.5351 -0.316,1.1954 0.225,0.6575 0.068,1.6563 -0.349,2.2196 -0.874,1.1791 -1.226,20.8364 -0.374,20.8361 0.292,-1e-4 0.349,0.3306 0.126,0.7348 -0.223,0.4041 -0.175,1.1482 0.107,1.6534 0.283,0.5053 0.538,1.2493 0.567,1.6535 0.126,1.7409 1.606,4.6129 2.596,5.0388 0.592,0.2543 0.917,0.7513 0.722,1.1043 -0.195,0.353 0.229,1.2333 0.942,1.9563 0.713,0.7229 1.305,1.0151 1.316,0.6494 0.01,-0.3658 0.325,-0.0794 0.696,0.6364 0.372,0.7158 0.954,1.1097 1.292,0.8752 0.339,-0.2344 0.616,-0.0565 0.616,0.3954 0,0.4519 0.275,0.6313 0.61,0.3988 0.336,-0.2325 0.809,-0.0642 1.051,0.3742 0.241,0.4383 0.852,0.6194 1.357,0.4025 0.504,-0.217 0.917,-0.0742 0.917,0.3173 0,0.7915 2.819,0.9832 3.485,0.237 0.233,-0.2611 1.379,-0.559 2.547,-0.662 1.168,-0.1029 2.232,-0.5527 2.365,-0.9995 0.133,-0.4468 0.512,-0.6254 0.841,-0.397 0.33,0.2285 0.6,0.0457 0.6,-0.4062 0,-0.4519 0.279,-0.6289 0.619,-0.3934 0.34,0.2356 1.734,-0.8197 3.097,-2.345 1.363,-1.5252 2.73,-2.6823 3.038,-2.5713 0.307,0.1111 0.391,-0.1008 0.187,-0.4707 -0.204,-0.37 0.374,-1.2195 1.284,-1.8877 0.911,-0.6683 1.5,-1.4965 1.31,-1.8406 -0.19,-0.3441 0.115,-0.8233 0.677,-1.0649 0.562,-0.2415 0.838,-0.7722 0.613,-1.1793 -0.224,-0.407 -0.129,-0.74 0.212,-0.74 0.635,0 3.046,-4.9242 3.058,-6.2465 0.005,-0.4042 0.275,-0.9525 0.604,-1.2185 0.328,-0.266 0.642,-1.0928 0.696,-1.8372 0.055,-0.7445 0.466,-2.1102 0.915,-3.0348 0.449,-0.9247 0.632,-2.3302 0.407,-3.1233 -0.248,-0.8785 -0.105,-1.442 0.369,-1.442 0.476,0 0.654,-0.7164 0.46,-1.8547 -0.174,-1.0201 -0.061,-2.0317 0.251,-2.248 0.846,-0.5861 0.687,-11.6508 -0.203,-14.0377 -1.52,-4.0813 -1.312,-5.2923 0.976,-5.6864 1.15,-0.1981 3.124,-0.5498 4.386,-0.7817 1.263,-0.2318 2.877,-0.4267 3.587,-0.433 0.711,-0.006 1.47,-0.3341 1.687,-0.7286 0.781,-1.4146 2.924,1.8763 3.136,4.8151 0.117,1.6106 0.51,3.3314 0.875,3.8239 0.893,1.2056 0.098,13.4089 -1.082,16.5909 -0.264,0.7134 -0.331,1.9377 -0.148,2.7206 0.183,0.783 0.074,1.5221 -0.242,1.6425 -0.317,0.1204 -0.708,1.3764 -0.87,2.791 -0.162,1.4147 -0.35,2.7375 -0.417,2.9396 -0.067,0.202 -0.087,0.6154 -0.045,0.9186 0.043,0.3031 -0.249,0.5511 -0.648,0.5511 -0.399,0 -0.556,0.4961 -0.349,1.1023 0.208,0.6063 0.075,1.1023 -0.296,1.1023 -0.371,0 -0.507,0.3025 -0.303,0.6722 0.204,0.3696 0.147,0.783 -0.125,0.9186 -0.617,0.3063 -3.659,6.4929 -3.193,6.4929 0.186,0 -0.38,0.8684 -1.258,1.9297 -0.878,1.0613 -1.523,2.136 -1.435,2.3883 0.164,0.465 -7.124,8.6789 -7.94,8.9498 -1.575,0.5223 -2.031,0.9309 -1.703,1.525 0.205,0.3719 0.13,0.596 -0.168,0.498 -0.833,-0.2744 -6.116,2.5466 -6.116,3.2664 0,0.35 -0.242,0.468 -0.539,0.263 -0.296,-0.205 -1.308,0.074 -2.249,0.621003 -0.94,0.547 -1.824,0.866 -1.964,0.71 -0.139,-0.156 -1.267,0.06 -2.506,0.48 -3.088,1.048 -12.979,1.446 -13.478,0.543 z m -361.29,-2.288003 c 0.036,-0.9299 0.268,-2.0575 0.516,-2.5059 0.247,-0.4483 0.269,-1.341 0.049,-1.9838 -0.226,-0.6609 -0.064,-1.1686 0.373,-1.1686 0.425,0 0.708,-0.7441 0.628,-1.6535 -0.079,-0.9094 0.084,-2.2465 0.362,-2.9712 0.279,-0.7248 0.325,-1.5211 0.104,-1.7696 -0.222,-0.2485 -0.099,-0.8633 0.274,-1.3663 0.372,-0.5029 0.771,-2.3522 0.886,-4.1094 0.115,-1.7573 0.424,-3.7579 0.687,-4.4459 0.263,-0.688 0.286,-1.5974 0.053,-2.0209 -0.234,-0.4235 -0.08,-0.7701 0.341,-0.7701 0.484,0 0.618,-0.6591 0.364,-1.7921 -0.222,-0.9931 -0.082,-2.0131 0.314,-2.2876 0.393,-0.2725 0.57,-1.1195 0.392,-1.8822 -0.178,-0.7628 -0.025,-1.3869 0.342,-1.3869 0.392,0 0.486,-0.7996 0.228,-1.9512 -0.256,-1.1452 -0.14,-2.1567 0.281,-2.4487 0.396,-0.2736 0.814,-1.9584 0.93,-3.7441 0.117,-1.7856 0.427,-3.8095 0.69,-4.4975 0.263,-0.6879 0.287,-1.5973 0.053,-2.0209 -0.233,-0.4235 -0.08,-0.77 0.341,-0.77 0.484,0 0.618,-0.6591 0.364,-1.7922 -0.222,-0.993 -0.082,-2.0131 0.314,-2.2876 0.394,-0.2725 0.57,-1.1195 0.392,-1.8822 -0.178,-0.7628 -0.068,-1.3868 0.244,-1.3868 0.313,0 0.565,-0.9094 0.56,-2.021 -0.01,-2.3298 0.331,-4.4266 1.012,-6.2112 0.263,-0.688 0.278,-1.6119 0.035,-2.0531 -0.244,-0.4413 -0.156,-1.2012 0.194,-1.6887 0.35,-0.4875 0.842,-1.9612 1.092,-3.2748 0.535,-2.8039 1.912,-2.5469 -13.19,-2.4621 -11.726,0.0659 -12.175,-0.1232 -10.298,-4.3398 0.56,-1.2563 0.852,-2.9922 0.65,-3.8575 -0.815,-3.4922 -0.86,-3.487 30.743,-3.487 25.787,0 29.741,0.1449 30.069,1.1023 0.208,0.6063 0.06,1.1023 -0.329,1.1023 -0.421,0 -0.544,0.7235 -0.305,1.7922 0.221,0.9857 0.105,1.9973 -0.257,2.248 -0.362,0.2507 -0.658,1.2226 -0.658,2.1597 0,0.9371 -0.369,2.0412 -0.82,2.4536 -0.473,0.4327 -5.053,0.7663 -10.833,0.789 -5.507,0.0216 -10.328,0.258 -10.715,0.5254 -0.386,0.2675 -0.556,1.1104 -0.378,1.8731 0.178,0.7628 0.024,1.3869 -0.342,1.3869 -0.378,0 -0.492,0.7744 -0.264,1.7921 0.222,0.9931 0.082,2.0131 -0.314,2.2876 -0.394,0.2725 -0.57,1.1191 -0.392,1.8815 0.178,0.7623 0.032,1.5878 -0.324,1.8344 -0.356,0.2466 -0.475,1.2188 -0.264,2.1604 0.211,0.9416 0.067,1.931 -0.32,2.1988 -0.386,0.2677 -0.548,0.9388 -0.359,1.4912 0.19,0.5525 0.038,1.2165 -0.336,1.4756 -0.374,0.2592 -0.508,1.2416 -0.297,2.1832 0.211,0.9415 0.062,1.9349 -0.332,2.2074 -0.393,0.2724 -0.57,1.1194 -0.391,1.8822 0.178,0.7627 0.024,1.3868 -0.342,1.3868 -0.378,0 -0.492,0.7744 -0.265,1.7922 0.223,0.993 0.083,2.013 -0.313,2.2876 -0.394,0.2724 -0.57,1.1194 -0.392,1.8822 0.178,0.7627 0.035,1.3868 -0.318,1.3868 -0.353,0 -0.576,0.7441 -0.497,1.6535 0.08,0.9094 -0.073,2.2163 -0.339,2.9043 -0.266,0.688 -0.292,1.5974 -0.059,2.0209 0.234,0.4236 0.079,0.7701 -0.344,0.7701 -0.482,0 -0.661,0.8246 -0.48,2.2046 0.158,1.2126 0.026,2.2047 -0.295,2.2047 -0.321,0 -0.52,0.5787 -0.442,1.286 0.079,0.7073 -0.082,1.8648 -0.356,2.5721 -0.275,0.7073 -0.333,1.7715 -0.13,2.3648 0.203,0.5934 0.117,1.2534 -0.191,1.4668 -0.86,0.5958 -0.359,15.3392 0.533,15.6723 0.412,0.1538 0.584,0.5793 0.382,0.9456 -0.202,0.3663 0.373,1.4955 1.277,2.5092 l 1.646,1.843003 h -10.65 -10.65 z m 73.526,0.588003 c -0.207,-0.606003 -0.057,-1.102203 0.335,-1.102203 0.391,0 0.557,-0.6614 0.368,-1.4697 -0.188,-0.8084 -0.053,-1.4698 0.301,-1.4698 0.354,0 0.58,-0.9094 0.501,-2.0209 -0.079,-1.1115 0.072,-2.5838 0.336,-3.2718 0.264,-0.6879 0.305,-1.5691 0.09,-1.9581 -0.214,-0.389 -0.107,-0.8182 0.24,-0.9538 0.346,-0.1356 0.745,-1.7655 0.886,-3.622 0.14,-1.8565 0.447,-3.7222 0.68,-4.1461 0.234,-0.4238 0.541,-2.0464 0.683,-3.6058 0.141,-1.5594 0.47,-3.414 0.731,-4.1213 0.261,-0.7074 0.304,-1.7821 0.096,-2.3884 -0.207,-0.6063 -0.095,-1.1023 0.251,-1.1023 0.345,0 0.639,-0.7441 0.653,-1.6535 0.058,-3.8072 0.351,-5.6953 0.886,-5.6953 0.312,0 0.399,-0.7269 0.191,-1.6152 -0.207,-0.8884 -0.082,-2.0136 0.279,-2.5004 0.36,-0.4867 0.73,-2.3272 0.822,-4.0899 0.091,-1.7627 0.403,-3.6347 0.693,-4.16 0.289,-0.5254 0.603,-2.1744 0.696,-3.6646 0.093,-1.4901 0.386,-3.2722 0.65,-3.9602 0.264,-0.6879 0.289,-1.5974 0.055,-2.0209 -0.234,-0.4235 -0.177,-0.7701 0.126,-0.7701 0.934,0 0.529,-16.6517 -0.437,-17.9562 -0.469,-0.6328 -0.684,-1.1506 -0.478,-1.1506 0.206,0 -0.026,-1.0748 -0.516,-2.3884 l -0.891,-2.3884 22.505,0.2023 c 20.176,0.1813 22.547,0.3273 22.918,1.411 0.228,0.6648 0.183,1.4005 -0.1,1.6349 -0.668,0.554 -0.969,2.0276 -1.062,5.203 l -0.076,2.572 -11.978,-0.245 c -9.854,-0.2016 -12.148,-0.0543 -12.938,0.8311 -0.529,0.5919 -0.785,1.2729 -0.571,1.5133 0.215,0.2405 0.028,0.9267 -0.415,1.5251 -0.443,0.5983 -0.616,1.433 -0.383,1.8549 0.233,0.4219 0.074,0.7671 -0.353,0.7671 -0.513,0 -0.643,0.7481 -0.383,2.2046 0.244,1.3725 0.123,2.2047 -0.323,2.2047 -0.394,0 -0.565,0.6455 -0.381,1.4345 0.184,0.789 0.097,1.533 -0.195,1.6535 -0.291,0.1204 -0.628,1.7071 -0.75,3.5259 -0.121,1.8188 -0.482,3.5195 -0.801,3.7792 -0.32,0.2598 -0.388,1.3345 -0.152,2.3884 l 0.429,1.9161 h 11.097 c 10.692,0 11.093,0.0535 10.998,1.4697 -0.054,0.8084 -0.356,1.4698 -0.67,1.4698 -0.314,0 -0.449,0.4104 -0.3,0.912 0.15,0.5016 -0.138,1.371 -0.638,1.932 -0.501,0.5609 -0.755,1.4733 -0.566,2.0274 0.19,0.5542 0.047,1.0076 -0.319,1.0076 -0.365,0 -0.577,0.5248 -0.471,1.1661 0.17,1.026 -0.983,1.1542 -9.595,1.0673 -5.383,-0.0544 -9.961,-0.2191 -10.173,-0.3661 -1,-0.6921 -2.678,1.8755 -2.912,4.4541 -0.143,1.5755 -0.473,3.4433 -0.733,4.1506 -0.261,0.7074 -0.304,1.7821 -0.097,2.3884 0.208,0.6063 0.071,1.1023 -0.304,1.1023 -0.376,0 -0.618,0.7441 -0.538,1.6535 0.079,0.9094 -0.079,2.2322 -0.351,2.9395 -0.273,0.7073 -0.326,1.7821 -0.118,2.3884 0.207,0.6063 0.057,1.1023 -0.335,1.1023 -0.41,0 -0.552,0.6843 -0.334,1.6152 0.207,0.8884 0.058,2.0459 -0.332,2.5721 -0.513,0.6921 -0.483,1.2618 0.108,2.0592 0.675,0.912 3.061,1.1023 13.815,1.1023 7.958,0 13.155,0.285 13.404,0.7349 0.222,0.4042 0.061,0.7348 -0.36,0.7348 -0.42,0 -0.595,0.4961 -0.387,1.1024 0.208,0.6062 0.074,1.1023 -0.297,1.1023 -0.37,0 -0.491,0.3307 -0.268,0.7349 0.223,0.4041 0.061,0.7348 -0.36,0.7348 -0.42,0 -0.594,0.4961 -0.387,1.1024 0.208,0.6062 0.074,1.1023 -0.296,1.1023 -0.371,0 -0.492,0.3307 -0.269,0.7349 0.223,0.4041 0.061,0.7348 -0.359,0.7348 -0.421,0 -0.605,0.4687 -0.408,1.0411 0.196,0.573 -0.092,1.235003 -0.64,1.470003 -0.548,0.236 -9.647,0.428 -20.22,0.428 -16.484,0 -19.279,-0.157 -19.603,-1.102 z m 81.664,-1.960203 c 0.338,-1.6844 0.467,-3.4927 0.287,-4.0183 -0.18,-0.5256 -0.017,-1.1703 0.362,-1.4327 0.379,-0.2625 0.554,-1.2651 0.39,-2.2282 -0.164,-0.9631 -0.012,-1.7511 0.337,-1.7511 0.35,0 0.456,-0.8064 0.235,-1.7921 -0.221,-0.9857 -0.091,-2.0071 0.288,-2.2698 0.379,-0.2626 0.63,-1.027 0.557,-1.6985 -0.072,-0.6715 0.098,-1.8139 0.378,-2.5387 0.28,-0.7247 0.328,-1.521 0.107,-1.7695 -0.222,-0.2485 -0.099,-0.8634 0.274,-1.3663 0.372,-0.503 0.771,-2.3522 0.886,-4.1095 0.115,-1.7572 0.424,-3.7579 0.687,-4.4458 0.263,-0.688 0.287,-1.5974 0.053,-2.021 -0.234,-0.4235 -0.075,-0.77 0.352,-0.77 0.509,0 0.644,-0.7421 0.392,-2.153 -0.211,-1.1841 -0.098,-2.2599 0.252,-2.3906 0.543,-0.2029 0.864,-2.3171 1.457,-9.6029 0.057,-0.7073 0.368,-1.286 0.691,-1.286 0.322,0 0.394,-0.8584 0.159,-1.9075 -0.24,-1.0702 -0.1,-2.3491 0.318,-2.9134 0.409,-0.5533 0.802,-2.2585 0.872,-3.7893 0.07,-1.5308 0.293,-3.1133 0.494,-3.5167 0.345,-0.6915 0.28,-12.4916 -0.068,-12.4916 -0.09,0 -0.247,-1.1457 -0.35,-2.546 -0.102,-1.4003 -0.496,-2.6618 -0.875,-2.8033 -0.379,-0.1415 -0.527,-0.7291 -0.329,-1.3059 0.197,-0.5767 -0.065,-1.231 -0.584,-1.4539 -0.518,-0.2229 -0.942,-0.887 -0.942,-1.4759 0,-0.8762 1.383,-1.0707 7.615,-1.0707 h 7.615 l 1.703,2.1747 c 0.937,1.1961 1.551,2.3458 1.364,2.5548 -0.187,0.209 0.144,0.5878 0.735,0.8418 0.59,0.2539 0.909,0.7601 0.708,1.1248 -0.201,0.3647 0.094,0.8607 0.656,1.1023 0.562,0.2416 0.857,0.7376 0.656,1.1023 -0.202,0.3647 0.094,0.8608 0.656,1.1024 0.561,0.2415 0.857,0.7376 0.655,1.1023 -0.201,0.3647 0.094,0.8607 0.656,1.1023 0.562,0.2416 0.857,0.7376 0.656,1.1023 -0.201,0.3647 0.094,0.8607 0.656,1.1023 0.562,0.2416 0.857,0.7377 0.656,1.1023 -0.201,0.3647 0.047,0.8404 0.55,1.057 0.504,0.2166 0.92,0.793 0.925,1.2808 0.012,1.2178 6.205,11.5428 6.923,11.5428 0.319,0 0.42,0.2891 0.225,0.6424 -0.195,0.3533 0.347,1.4904 1.204,2.5267 0.857,1.0364 1.4,2.0623 1.206,2.2798 -0.194,0.2175 0.13,0.6033 0.721,0.8572 0.59,0.254 0.909,0.7602 0.708,1.1249 -0.202,0.3646 0.094,0.8607 0.656,1.1023 0.562,0.2416 0.857,0.7376 0.656,1.1023 -0.202,0.3647 0.093,0.8607 0.655,1.1023 0.562,0.2416 0.87,0.715 0.684,1.052 -0.186,0.337 0.09,0.881 0.613,1.209 0.523,0.328 0.916,0.7617 0.874,0.9638 -0.162,0.7696 3.604,7.3488 4.207,7.3488 0.347,0 0.474,0.2857 0.282,0.6349 -0.42,0.7606 2.104,6.86 3.146,7.6059 1.269,0.9072 2.364,-1.1753 2.61,-4.96 0.13,-2.0066 0.457,-4.227 0.726,-4.9343 0.269,-0.7073 0.32,-1.7821 0.112,-2.3884 -0.208,-0.6062 -0.057,-1.1023 0.334,-1.1023 0.411,0 0.552,-0.6843 0.335,-1.6152 -0.207,-0.8884 -0.059,-2.0441 0.329,-2.5682 0.388,-0.5241 0.551,-1.6161 0.362,-2.4266 -0.189,-0.8105 -0.04,-1.4737 0.332,-1.4737 0.402,0 0.517,-0.895 0.283,-2.2046 -0.236,-1.3261 -0.12,-2.2046 0.293,-2.2046 0.378,0 0.622,-0.7441 0.542,-1.6535 -0.079,-0.9094 0.073,-2.2164 0.339,-2.9043 0.266,-0.688 0.285,-1.6119 0.041,-2.0532 -0.243,-0.4412 -0.09,-1.2774 0.34,-1.8581 0.43,-0.5807 0.916,-2.6331 1.081,-4.5608 0.935,-10.9873 0.957,-12.0595 0.268,-12.99 -0.401,-0.5414 -0.559,-1.4797 -0.352,-2.0851 0.207,-0.6054 -0.069,-1.6 -0.613,-2.2103 -0.545,-0.6103 -0.808,-1.3143 -0.585,-1.5645 0.224,-0.2502 0.045,-0.4549 -0.398,-0.4549 -0.442,0 -0.667,-0.2481 -0.501,-0.5512 0.166,-0.3031 4.38,-0.4497 9.363,-0.3256 5.265,0.131 8.687,0.4848 8.167,0.8444 -0.491,0.3404 -0.716,1.1377 -0.499,1.7719 0.218,0.6341 0.087,1.3662 -0.289,1.6268 -0.376,0.2607 -0.523,1.1635 -0.327,2.0062 0.197,0.8428 0.033,1.9707 -0.364,2.5065 -0.641,0.8661 -1.112,3.8022 -1.418,8.8395 -0.056,0.9094 -0.356,1.6535 -0.667,1.6535 -0.312,0 -0.437,0.992 -0.278,2.2046 0.159,1.2125 0.01,2.2046 -0.33,2.2046 -0.34,0 -0.464,0.6611 -0.276,1.4691 0.189,0.8079 0.058,1.6662 -0.29,1.9073 -0.348,0.2411 -0.572,1.1509 -0.497,2.0217 0.075,0.8708 -0.081,2.1462 -0.347,2.8341 -0.266,0.688 -0.308,1.5692 -0.093,1.9582 0.214,0.389 0.106,0.8182 -0.24,0.9538 -0.346,0.1355 -0.756,1.7346 -0.911,3.5534 -0.155,1.8188 -0.495,3.8857 -0.756,4.593 -0.261,0.7073 -0.305,1.7821 -0.098,2.3884 0.208,0.6062 0.057,1.1023 -0.334,1.1023 -0.41,0 -0.552,0.6843 -0.335,1.6152 0.207,0.8884 0.098,1.992 -0.243,2.4524 -0.341,0.4604 -0.737,2.1311 -0.881,3.7126 -0.143,1.5816 -0.473,3.4543 -0.734,4.1616 -0.261,0.7073 -0.304,1.7821 -0.097,2.3883 0.208,0.6063 0.104,1.1024 -0.231,1.1024 -0.335,0 -0.615,0.9094 -0.622,2.0209 -0.022,3.605 -0.309,5.3279 -0.883,5.3279 -0.309,0 -0.497,0.744 -0.418,1.6534 0.08,0.9095 -0.08,2.2372 -0.355,2.9505 -0.274,0.7134 -0.346,1.9535 -0.158,2.7558 0.187,0.8024 0.045,1.4588 -0.315,1.4588 -0.381,0 -0.561,1.6127 -0.43,3.8581 l 0.224,3.858103 -4.812,0.217 c -2.9,0.131 -4.66,-0.058 -4.43,-0.476 0.211,-0.382 -0.428,-1.690103 -1.418,-2.907703 -0.991,-1.2177 -1.888,-2.6567 -1.993,-3.198 -0.106,-0.5412 -0.757,-1.5217 -1.448,-2.1789 -0.691,-0.6571 -1.079,-1.3934 -0.862,-1.6362 0.216,-0.2427 -0.091,-0.6498 -0.684,-0.9047 -0.593,-0.2548 -1.078,-0.9344 -1.078,-1.5101 0,-0.5757 -0.441,-1.2364 -0.98,-1.4681 -0.539,-0.2318 -0.815,-0.7198 -0.614,-1.0845 0.201,-0.3647 -0.094,-0.8607 -0.656,-1.1023 -0.562,-0.2416 -0.857,-0.7376 -0.656,-1.1023 0.201,-0.3647 -0.094,-0.8608 -0.656,-1.1024 -0.562,-0.2415 -0.857,-0.7376 -0.656,-1.1023 0.201,-0.3647 -0.094,-0.8607 -0.656,-1.1023 -0.561,-0.2416 -0.876,-0.7017 -0.699,-1.0224 0.177,-0.3207 -0.534,-1.6089 -1.579,-2.8625 -1.045,-1.2537 -1.708,-2.2899 -1.473,-2.3027 0.235,-0.0128 -0.146,-0.5089 -0.846,-1.1024 -0.701,-0.5934 -1.059,-1.0789 -0.796,-1.0789 0.263,0 -0.725,-1.9842 -2.194,-4.4093 -1.47,-2.4251 -2.974,-4.4093 -3.343,-4.4093 -0.369,0 -0.486,-0.333 -0.262,-0.74 0.225,-0.4071 -0.052,-0.9378 -0.613,-1.1794 -0.562,-0.2415 -0.857,-0.7376 -0.656,-1.1023 0.201,-0.3647 -0.096,-0.8614 -0.66,-1.1039 -0.564,-0.2425 -1.025,-0.9119 -1.025,-1.4876 0,-0.5758 -0.441,-1.2364 -0.98,-1.4682 -0.539,-0.2317 -0.816,-0.7197 -0.615,-1.0844 0.202,-0.3647 -0.094,-0.8608 -0.656,-1.1023 -0.561,-0.2416 -0.873,-0.7087 -0.691,-1.0379 0.182,-0.3293 -0.101,-1.082 -0.628,-1.6727 -0.528,-0.5908 -0.776,-1.2788 -0.553,-1.529 0.223,-0.2503 0.044,-0.455 -0.398,-0.455 -0.442,0 -0.621,-0.3307 -0.398,-0.7348 0.222,-0.4042 0.092,-0.7349 -0.29,-0.7349 -0.382,0 -0.636,-0.2481 -0.564,-0.5512 0.219,-0.9313 -0.923,-4.1966 -1.651,-4.7198 -0.836,-0.6008 -2.594,2.9505 -2.131,4.3041 0.182,0.5318 0.008,0.9669 -0.386,0.9669 -0.445,0 -0.57,0.8258 -0.329,2.1761 0.217,1.2164 0.084,2.3874 -0.303,2.655 -0.38,0.2634 -0.546,1.103 -0.368,1.8657 0.178,0.7628 0.034,1.3868 -0.32,1.3868 -0.354,0 -0.559,0.9097 -0.455,2.0214 0.104,1.1118 -0.051,2.4565 -0.344,2.9884 -0.293,0.5319 -0.359,1.1627 -0.145,1.4017 0.213,0.2391 0.122,0.7958 -0.203,1.2372 -0.324,0.4413 -0.691,2.2906 -0.814,4.1094 -0.123,1.8188 -0.431,3.4823 -0.685,3.6966 -0.254,0.2143 -0.549,2.1144 -0.656,4.2224 -0.107,2.108 -0.439,3.8342 -0.737,3.8359 -0.298,0.001 -0.477,1.0779 -0.397,2.3915 0.079,1.3136 -0.068,3.254 -0.327,4.312 -0.556,2.2653 0.661,10.459 1.606,10.8158 0.359,0.1356 0.486,0.549 0.282,0.9186 -0.204,0.3697 -0.093,0.6722 0.247,0.6722 0.34,0 0.772,0.6613 0.961,1.47 0.331,1.417003 0.02,1.469003 -8.708,1.469003 h -9.051 z"
       fill="#3e443e"
       id="path6" />
  </g>
</svg>
